<svg width="622" height="349" viewBox="0 0 622 349" fill="none" xmlns="http://www.w3.org/2000/svg">
<g clip-path="url(#clip0_347_946)">
<path d="M52.6046 287.501C57.91 295.914 64.3734 303.537 71.8042 310.146C71.974 310.301 72.1484 310.449 72.3227 310.602L88.188 301.169C88.0707 301.009 87.9411 300.83 87.8022 300.634C79.5185 289.095 42.1068 212.323 41.8782 195.322C41.8494 196.729 28.4144 249.568 52.6046 287.501Z" fill="#E6E6E6"/>
<path d="M68.743 311.966C68.988 312.076 69.2383 312.183 69.4902 312.286L81.3928 305.209C81.207 305.102 80.9901 304.975 80.7415 304.832C76.6669 302.451 64.5431 295.294 52.6058 287.501C39.7796 279.124 27.1617 270.016 24.9722 265.307C25.4278 266.391 39.5501 299.327 68.743 311.966Z" fill="#E6E6E6"/>
<path d="M571.558 318.451C571.291 328.395 569.626 338.252 566.612 347.731C566.545 347.951 566.471 348.168 566.399 348.388H547.944C547.963 348.191 547.984 347.971 548.003 347.731C549.233 333.577 542.204 248.455 533.721 233.722C534.464 234.917 572.988 273.475 571.558 318.451Z" fill="#E6E6E6"/>
<path d="M570.173 347.731C570.018 347.951 569.858 348.171 569.694 348.388H555.848C555.953 348.201 556.075 347.981 556.216 347.731C558.503 343.601 565.273 331.252 571.556 318.45C578.306 304.693 584.504 290.414 583.982 285.246C584.144 286.411 588.817 321.944 570.173 347.731Z" fill="#E6E6E6"/>
<path d="M299.458 347.875H86.0409C80.9825 347.869 76.1329 345.856 72.5561 342.277C68.9792 338.698 66.9673 333.845 66.9615 328.784V19.091C66.9673 14.0295 68.9792 9.17694 72.556 5.59791C76.1329 2.01889 80.9825 0.00568305 86.0409 -3.05176e-05H299.458C304.516 0.00568303 309.366 2.01888 312.943 5.5979C316.52 9.17692 318.532 14.0295 318.537 19.091V328.784C318.532 333.845 316.52 338.698 312.943 342.277C309.366 345.856 304.516 347.869 299.458 347.875Z" fill="#CACACA"/>
<path d="M299.834 335.694H85.6652C84.1059 335.692 82.611 335.072 81.5084 333.968C80.4058 332.865 79.7856 331.369 79.7838 329.809V18.0655C79.7856 16.5052 80.4058 15.0094 81.5084 13.9061C82.611 12.8029 84.1059 12.1823 85.6652 12.1805H299.834C301.393 12.1823 302.888 12.8029 303.991 13.9061C305.093 15.0094 305.713 16.5052 305.715 18.0655V329.809C305.713 331.369 305.093 332.865 303.991 333.968C302.888 335.072 301.393 335.692 299.834 335.694Z" fill="white"/>
<path d="M191.938 7.4707C192.834 7.4707 193.561 6.74358 193.561 5.84663C193.561 4.94968 192.834 4.22256 191.938 4.22256C191.042 4.22256 190.315 4.94968 190.315 5.84663C190.315 6.74358 191.042 7.4707 191.938 7.4707Z" fill="white"/>
<path d="M621.204 349H0.795765C0.584714 349 0.382309 348.916 0.233074 348.767C0.0838381 348.617 0 348.415 0 348.204C0 347.993 0.0838381 347.79 0.233074 347.641C0.382309 347.491 0.584714 347.408 0.795765 347.408H621.204C621.415 347.408 621.618 347.491 621.767 347.641C621.916 347.79 622 347.993 622 348.204C622 348.415 621.916 348.617 621.767 348.767C621.618 348.916 621.415 349 621.204 349Z" fill="#CACACA"/>
<path d="M192.748 258.366C204.19 258.366 213.466 249.084 213.466 237.635C213.466 226.186 204.19 216.904 192.748 216.904C181.305 216.904 172.029 226.186 172.029 237.635C172.029 249.084 181.305 258.366 192.748 258.366Z" fill="#E4E4E4"/>
<path d="M205.719 197.845H179.777L164.115 121.187C163.713 117.184 164.153 113.141 165.408 109.319C166.662 105.497 168.704 101.98 171.4 98.9953C174.096 96.0108 177.387 93.6247 181.061 91.9908C184.735 90.3569 188.711 89.5115 192.732 89.5092C196.752 89.5068 200.729 90.3474 204.405 91.977C208.081 93.6065 211.375 95.9887 214.075 98.97C216.774 101.951 218.82 105.466 220.079 109.286C221.338 113.107 221.783 117.149 221.385 121.153L205.719 197.845Z" fill="#E4E4E4"/>
<path d="M294.679 94.805H389.498C394.074 94.805 398.513 96.3626 402.087 99.2219C405.66 102.081 408.155 106.072 409.161 110.538L457.071 323.176C457.594 325.496 457.603 327.901 457.098 330.225C456.594 332.548 455.587 334.733 454.149 336.625C452.711 338.518 450.877 340.073 448.775 341.182C446.673 342.291 444.354 342.926 441.981 343.043L344.507 347.848C339.287 348.105 334.153 346.454 330.061 343.201C325.969 339.949 323.199 335.318 322.269 330.172L295.092 179.835L289.951 151.397L282.365 109.433C282.04 107.635 282.115 105.788 282.585 104.023C283.056 102.259 283.909 100.619 285.085 99.2221C286.261 97.8251 287.731 96.705 289.389 95.9414C291.048 95.1779 292.854 94.7899 294.679 94.805Z" fill="#3F3D56"/>
<path d="M377.016 99.389H388.084C391.262 99.389 394.345 100.477 396.821 102.472C399.297 104.467 401.016 107.249 401.693 110.356L447.68 321.259C447.945 322.474 447.945 323.731 447.68 324.945C447.414 326.159 446.89 327.302 446.143 328.295C445.396 329.288 444.444 330.108 443.351 330.698C442.259 331.289 441.051 331.637 439.812 331.719L342.653 338.09C339.912 338.27 337.201 337.434 335.037 335.741C332.873 334.048 331.407 331.617 330.92 328.912L291.679 110.923C291.425 109.512 291.484 108.062 291.851 106.676C292.218 105.291 292.884 104.002 293.803 102.902C294.722 101.802 295.871 100.918 297.169 100.311C298.467 99.7036 299.882 99.3889 301.315 99.3889H311.815C312.831 99.3889 313.819 99.7242 314.626 100.343C315.432 100.961 316.013 101.829 316.277 102.811C316.51 103.677 317.022 104.443 317.735 104.989C318.447 105.535 319.319 105.831 320.216 105.831H370.063C371.82 105.831 373.512 105.168 374.801 103.973C376.09 102.779 376.881 101.142 377.016 99.389Z" fill="white"/>
<path d="M426.053 166.994C426.363 167.195 426.657 167.42 426.932 167.667L459.05 159.475L461.241 151.722L473.367 153.501L470.821 167.604C470.615 168.743 470.046 169.785 469.198 170.573C468.35 171.36 467.27 171.852 466.119 171.973L428.618 175.925C428.007 177.212 427.019 178.283 425.784 178.995C424.55 179.707 423.128 180.026 421.708 179.91C420.289 179.793 418.938 179.247 417.836 178.344C416.734 177.44 415.932 176.223 415.539 174.853C415.145 173.483 415.178 172.025 415.632 170.674C416.087 169.323 416.941 168.142 418.083 167.289C419.224 166.436 420.598 165.951 422.022 165.898C423.445 165.845 424.851 166.228 426.053 166.994Z" fill="#FFB6B6"/>
<path d="M403.132 196.071C414.575 196.071 423.851 186.79 423.851 175.34C423.851 163.891 414.575 154.609 403.132 154.609C391.69 154.609 382.414 163.891 382.414 175.34C382.414 186.79 391.69 196.071 403.132 196.071Z" fill="#029AA4"/>
<path d="M416.104 135.55H390.161L374.5 58.8923C374.097 54.8894 374.538 50.8466 375.792 47.0244C377.047 43.2022 379.088 39.6854 381.785 36.7009C384.481 33.7164 387.772 31.3303 391.446 29.6964C395.12 28.0625 399.096 27.2172 403.116 27.2148C407.137 27.2124 411.113 28.0531 414.79 29.6826C418.466 31.3121 421.76 33.6943 424.459 36.6756C427.159 39.6569 429.204 43.1712 430.464 46.9919C431.723 50.8126 432.168 54.855 431.77 58.8584L416.104 135.55Z" fill="#029AA4"/>
<path d="M475.534 160.539L467.26 167.681L455.685 177.665L450.572 151.491L450.037 148.769L449.616 146.609L461.345 126.165L471.123 126.727L471.791 126.767L471.805 126.914L471.959 128.285L473.964 146.328L474.01 146.763L475.534 160.539Z" fill="#3F3D56"/>
<path d="M421.454 339.544L413.26 339.543L409.362 307.92L421.455 307.921L421.454 339.544Z" fill="#FFB6B6"/>
<path d="M423.543 347.491L397.124 347.49V347.156C397.124 344.427 398.207 341.81 400.136 339.88C402.064 337.951 404.68 336.867 407.407 336.866H407.408L423.544 336.867L423.543 347.491Z" fill="#2F2E41"/>
<path d="M507.001 340.213L498.807 340.212L494.908 308.589L507.002 308.589L507.001 340.213Z" fill="#FFB6B6"/>
<path d="M509.09 348.16L482.67 348.159V347.825C482.67 345.096 483.754 342.479 485.682 340.549C487.611 338.619 490.226 337.535 492.953 337.535H492.954L509.09 337.536L509.09 348.16Z" fill="#2F2E41"/>
<path d="M513.549 326.286L491.494 329.63L459.408 220.973L425.329 330.299L400.601 326.955L432.681 199.894V189.863L437.025 174.817L436.57 170.744L433.409 142.262L432.039 129.911L431.951 129.113C431.876 128.443 432.053 127.77 432.448 127.224C432.842 126.678 433.426 126.298 434.084 126.159L444.377 123.992H461.199L471.123 126.727L471.805 126.915L472.113 127.002L471.959 128.286L469.633 147.799L469.506 148.869L467.26 167.681L466.766 171.807C486.147 185.851 486.816 199.894 486.816 199.894L513.549 326.286Z" fill="#2F2E41"/>
<path d="M450.755 115.532C459.82 115.532 467.17 108.178 467.17 99.1066C467.17 90.0354 459.82 82.6816 450.755 82.6816C441.689 82.6816 434.34 90.0354 434.34 99.1066C434.34 108.178 441.689 115.532 450.755 115.532Z" fill="#FFB6B6"/>
<path d="M467.996 168.033L435.524 172.282L436.131 176.924L468.603 172.675L467.996 168.033Z" fill="#3F3D56"/>
<path d="M391.968 173.681C392.278 173.882 392.572 174.108 392.848 174.355L424.965 166.162L427.156 158.409L439.282 160.189L436.736 174.291C436.53 175.43 435.961 176.472 435.113 177.26C434.265 178.048 433.185 178.539 432.034 178.661L394.534 182.612C393.922 183.9 392.934 184.971 391.699 185.683C390.465 186.394 389.044 186.713 387.624 186.597C386.204 186.481 384.853 185.934 383.751 185.031C382.649 184.128 381.848 182.91 381.454 181.54C381.06 180.17 381.093 178.713 381.547 177.361C382.002 176.01 382.857 174.83 383.998 173.977C385.139 173.124 386.513 172.638 387.937 172.586C389.36 172.533 390.766 172.915 391.968 173.681Z" fill="#FFB6B6"/>
<path d="M441.369 130.345L435.688 125.998C434.152 125.415 432.048 127.072 431.678 128.673L423.658 161.442L440.367 173.479L442.706 169.801L441.369 130.345Z" fill="#3F3D56"/>
<g opacity="0.2">
<path d="M473.964 146.328C472.546 146.891 471.1 147.382 469.633 147.799C469.165 147.94 468.684 148.074 468.209 148.201C465.082 149.069 461.867 149.589 458.625 149.752C457.23 149.811 455.832 149.773 454.442 149.638C452.949 149.49 451.475 149.198 450.038 148.769C449.991 148.756 449.937 148.742 449.89 148.729C446.902 147.88 444.162 146.322 441.904 144.188C441.399 143.697 440.928 143.171 440.494 142.617C439.246 141.087 438.33 139.314 437.805 137.411C437.281 135.508 437.158 133.516 437.446 131.562C437.502 131.208 437.578 130.858 437.673 130.512C437.925 129.571 438.258 128.654 438.669 127.771C438.85 127.356 439.05 126.948 439.264 126.547L446.816 123.992H461.199L471.123 126.727L471.792 126.768L471.805 126.915L472.112 127.002L471.959 128.286L473.964 146.328Z" fill="black"/>
</g>
<path d="M438.177 85.5085C435.107 85.132 431.738 85.3982 429.345 87.3591C426.952 89.32 426.18 93.3964 428.446 95.5033C430.451 97.3685 433.587 96.9298 436.273 97.4602C438.588 97.9792 440.661 99.26 442.161 101.098C443.662 102.935 444.503 105.224 444.55 107.596C444.51 114.4 437.984 119.552 436.812 126.255C436.012 130.829 437.94 135.642 441.273 138.873C444.606 142.104 449.188 143.851 453.805 144.324C458.421 144.797 463.09 144.074 467.576 142.887C472.082 141.696 476.517 140.005 480.298 137.278C484.078 134.551 487.177 130.707 488.391 126.205C489.604 121.703 488.733 116.541 485.605 113.084C482.023 109.126 476.065 107.765 472.967 103.417C469.494 98.5437 470.779 91.6032 467.968 86.3195C466.092 82.7918 462.539 80.3856 458.751 79.1181C454.963 77.8505 450.919 77.6004 446.927 77.4776C444.828 77.4131 442.666 77.3916 440.711 78.157C438.756 78.9225 437.038 80.6669 436.936 82.765C436.835 84.8631 438.177 85.5085 438.177 85.5085Z" fill="#2F2E41"/>
</g>
<defs>
<clipPath id="clip0_347_946">
<rect width="622" height="349" fill="white"/>
</clipPath>
</defs>
</svg>
