<svg width="17" height="17" viewBox="0 0 17 17" fill="none" xmlns="http://www.w3.org/2000/svg">
<path d="M8.725 16.45C12.9914 16.45 16.45 12.9914 16.45 8.725C16.45 4.4586 12.9914 1 8.725 1C4.4586 1 1 4.4586 1 8.725C1 10.132 1.37618 11.4512 2.03347 12.5875L1.38625 16.0637L4.8625 15.4165C5.99875 16.0738 7.31797 16.45 8.725 16.45Z" stroke="black" stroke-linecap="round" stroke-linejoin="round"/>
<path d="M4.70795 12.1244V11.7608C4.70795 10.3554 5.84725 9.21613 7.25265 9.21613C8.65806 9.21613 9.79736 10.3554 9.79736 11.7608V12.1244" stroke="black" stroke-width="0.8" stroke-linecap="round"/>
<path d="M9.07007 9.94283C9.07007 8.93898 9.88387 8.12518 10.8877 8.12518C11.8916 8.12518 12.7054 8.93898 12.7054 9.94283V10.1246" stroke="black" stroke-width="0.8" stroke-linecap="round"/>
<path d="M7.25343 9.21616C8.05651 9.21616 8.70755 8.56511 8.70755 7.76204C8.70755 6.95895 8.05651 6.30792 7.25343 6.30792C6.45035 6.30792 5.79932 6.95895 5.79932 7.76204C5.79932 8.56511 6.45035 9.21616 7.25343 9.21616Z" stroke="black" stroke-width="0.8" stroke-linecap="round" stroke-linejoin="round"/>
<path d="M10.8882 8.12527C11.4905 8.12527 11.9788 7.63699 11.9788 7.03468C11.9788 6.43237 11.4905 5.94409 10.8882 5.94409C10.2859 5.94409 9.79761 6.43237 9.79761 7.03468C9.79761 7.63699 10.2859 8.12527 10.8882 8.12527Z" stroke="black" stroke-width="0.8" stroke-linecap="round" stroke-linejoin="round"/>
</svg>
