<svg width="17" height="17" viewBox="0 0 17 17" fill="none" xmlns="http://www.w3.org/2000/svg">
<path d="M15.5712 8.24292L8.68227 15.1319C7.83836 15.9759 6.69371 16.45 5.50019 16.45C4.30666 16.45 3.16202 15.9759 2.31808 15.1319C1.47412 14.288 1 13.1433 1 11.9498C1 10.7562 1.47412 9.61164 2.31808 8.76765L9.207 1.87871C9.76966 1.31608 10.5328 1 11.3284 1C12.1241 1 12.8872 1.31608 13.4498 1.87871C14.0125 2.44135 14.3286 3.20444 14.3286 4.00012C14.3286 4.79581 14.0125 5.5589 13.4498 6.12153L6.5534 13.0105C6.27208 13.2918 5.89053 13.4498 5.49269 13.4498C5.09485 13.4498 4.7133 13.2918 4.43199 13.0105C4.15067 12.7291 3.99262 12.3477 3.99262 11.9498C3.99262 11.5519 4.15067 11.1704 4.43199 10.8891L10.7962 4.53235" stroke="black" stroke-linecap="round" stroke-linejoin="round"/>
</svg>
