<svg width="568" height="306" viewBox="0 0 568 306" fill="none" xmlns="http://www.w3.org/2000/svg">
<g clip-path="url(#clip0_347_734)">
<path d="M35.9775 255.562L34.2057 264.434C34.0723 265.112 33.9327 265.802 33.781 266.486C32.3002 266.18 30.7649 266.266 29.3275 266.735C30.4679 268.361 31.4898 270.067 32.3855 271.84C31.2691 275.274 29.6308 278.447 26.8883 280.742C25.0566 282.241 22.8689 283.243 20.5361 283.653C18.2033 284.062 15.8042 283.865 13.5701 283.08L13.649 282.728C10.7001 277.018 12.302 269.817 15.9668 264.543C17.8359 261.94 20.0506 259.604 22.55 257.596C25.0256 255.537 27.7014 253.69 30.3529 251.868C30.9484 251.459 31.6525 251.237 32.3752 251.229C33.0979 251.222 33.8064 251.43 34.4102 251.826C35.0139 252.223 35.4855 252.79 35.7647 253.455C36.0439 254.121 36.1179 254.854 35.9775 255.562Z" fill="#E4E4E4"/>
<path d="M14.201 304.426C13.4553 299.005 12.6884 293.514 13.2114 288.034C13.6762 283.167 15.1633 278.414 18.1922 274.516C19.7998 272.452 21.756 270.682 23.9728 269.288C24.551 268.925 25.0825 269.839 24.5073 270.201C20.6719 272.62 17.7053 276.193 16.0352 280.403C14.1907 285.086 13.8946 290.19 14.215 295.164C14.4073 298.172 14.8144 301.159 15.2252 304.145C15.2583 304.28 15.2384 304.422 15.1696 304.543C15.1008 304.664 14.9883 304.754 14.8551 304.795C14.7196 304.832 14.5752 304.813 14.4532 304.744C14.3312 304.675 14.2414 304.561 14.2034 304.426L14.201 304.426Z" fill="#F2F2F2"/>
<path d="M20.6006 32.4799C46.5923 32.0289 72.5867 31.9641 98.5839 32.2856C124.577 32.6089 150.562 33.3203 176.538 34.4197C191.114 35.0367 205.685 35.7758 220.249 36.6371C221.419 36.7062 221.415 34.8892 220.249 34.8203C194.299 33.2877 168.33 32.1409 142.342 31.3799C116.357 30.621 90.3656 30.2501 64.3662 30.2673C49.7769 30.277 35.1884 30.409 20.6006 30.6632C19.4306 30.6835 19.4269 32.5003 20.6006 32.4799Z" fill="#E6E6E6"/>
<path d="M201.738 21.0884L213.103 20.2441C214.264 20.1579 214.274 18.3404 213.103 18.4274L201.738 19.2716C200.577 19.3579 200.567 21.1753 201.738 21.0884Z" fill="#E6E6E6"/>
<path d="M201.738 31.9889L213.103 31.1447C214.264 31.0584 214.274 29.241 213.103 29.3279L201.738 30.1722C200.577 30.2584 200.567 32.0759 201.738 31.9889Z" fill="#E6E6E6"/>
<path d="M200.883 27.0109L217.042 28.4761C218.208 28.5819 218.201 26.7645 217.042 26.6594L200.883 25.1942C199.717 25.0884 199.724 26.9058 200.883 27.0109Z" fill="#E6E6E6"/>
<path d="M27.3268 18.6451C26.5365 18.6403 25.7622 18.8677 25.1004 19.299C24.4387 19.7304 23.9188 20.3466 23.6055 21.0708C23.2551 21.7797 23.1469 22.5836 23.2975 23.3596C23.4482 24.1356 23.8493 24.841 24.4396 25.368C24.9945 25.8392 25.6601 26.1623 26.374 26.307C27.088 26.4518 27.8271 26.4135 28.5223 26.1958C29.2332 25.948 29.8497 25.4863 30.2869 24.8744C30.724 24.2624 30.9604 23.5303 30.9635 22.7787C30.9952 21.9448 30.7689 21.1215 30.3153 20.4205C29.8616 19.7196 29.2027 19.1751 28.4281 18.8611C28.1954 18.798 27.9471 18.8293 27.7374 18.9482C27.5277 19.067 27.3735 19.2638 27.3086 19.4956C27.2512 19.7277 27.2851 19.9728 27.4033 20.1807C27.5216 20.3886 27.7152 20.5433 27.9442 20.613C28.1029 20.6742 27.7993 20.5352 27.9474 20.6157C28.0083 20.6488 28.0704 20.6787 28.1302 20.7141C28.181 20.7442 28.2297 20.777 28.2791 20.8093C28.449 20.9199 28.1962 20.728 28.3048 20.8275C28.399 20.9138 28.4923 20.998 28.5779 21.0932C28.6102 21.1292 28.737 21.2292 28.6385 21.1593C28.5631 21.1058 28.6094 21.1184 28.6385 21.1613C28.6605 21.194 28.6838 21.2257 28.7056 21.2585C28.7766 21.3657 28.8411 21.477 28.8988 21.5918C28.9121 21.6184 28.9244 21.6455 28.938 21.672C28.9635 21.7215 29.0004 21.7345 28.9405 21.6725C28.8832 21.6132 28.9197 21.6172 28.9402 21.6743C28.9536 21.7118 28.9683 21.7488 28.9814 21.7864C29.0241 21.909 29.0599 22.0338 29.0887 22.1603C29.1021 22.2187 29.1128 22.2776 29.1243 22.3364C29.1649 22.545 29.1184 22.2067 29.1282 22.3617C29.1364 22.491 29.1459 22.619 29.1437 22.7489C29.1427 22.8084 29.1401 22.8677 29.1359 22.927C29.1338 22.9566 29.1305 22.9861 29.1286 23.0157C29.1191 23.1582 29.1188 22.9636 29.1388 22.9503C29.0972 23.0713 29.0696 23.1966 29.0566 23.3239C29.0403 23.3804 29.0209 23.4356 29.0028 23.4915C28.9394 23.6864 29.0622 23.3853 28.9947 23.5185C28.9392 23.6329 28.8771 23.744 28.8088 23.8514C28.7791 23.8963 28.6673 23.9978 28.7588 23.9272C28.858 23.8505 28.7067 23.9825 28.6745 24.0165C28.633 24.0601 28.59 24.1023 28.5454 24.1429C28.5168 24.1707 28.4867 24.1968 28.4551 24.2212C28.4493 24.2183 28.6072 24.116 28.5221 24.1701C28.414 24.239 28.3116 24.3126 28.1976 24.3725C28.1843 24.3795 28.0386 24.4469 28.0392 24.4493C28.0329 24.4247 28.2265 24.3812 28.0936 24.4241C28.0657 24.4331 28.0384 24.444 28.0106 24.4533C27.8896 24.494 27.7661 24.5268 27.6408 24.5516C27.6122 24.5573 27.5819 24.5602 27.5536 24.5675C27.4595 24.5918 27.6435 24.5532 27.649 24.5564C27.5795 24.5534 27.5099 24.5596 27.4419 24.5747C27.3128 24.5821 27.1833 24.5821 27.0542 24.5747C27.0243 24.573 26.9945 24.57 26.9646 24.5683C26.8953 24.5643 26.8444 24.5144 26.9367 24.5685C27.0079 24.6103 27.002 24.5798 26.9389 24.5682C26.9094 24.5627 26.8797 24.5582 26.8503 24.5526C26.7224 24.5288 26.596 24.4979 26.4716 24.4601C26.4047 24.4397 26.3391 24.416 26.2731 24.393C26.2443 24.3847 26.2163 24.3739 26.1893 24.3608C26.1889 24.3534 26.3595 24.4422 26.2695 24.3938C26.1558 24.3326 26.0382 24.2813 25.9272 24.2145C25.868 24.1788 25.8111 24.1401 25.7535 24.1019C25.7281 24.0866 25.7041 24.0694 25.6814 24.0504C25.6833 24.0427 25.8225 24.1714 25.7495 24.1019C25.6571 24.014 25.5582 23.9354 25.4707 23.8418C25.4507 23.8204 25.4317 23.7979 25.4118 23.7765L25.3925 23.7545C25.3431 23.6943 25.3422 23.6946 25.3897 23.7553C25.438 23.7695 25.4358 23.8223 25.39 23.7537C25.3737 23.7293 25.3563 23.7055 25.3401 23.681C25.2662 23.5759 25.2031 23.4636 25.1519 23.3458C25.1564 23.3423 25.2308 23.5643 25.1739 23.3968C25.1631 23.3651 25.1511 23.334 25.1405 23.3023C25.1196 23.2393 25.1012 23.1757 25.0853 23.1114C25.0696 23.0476 25.0615 22.9819 25.0456 22.9184C25.0189 22.8114 25.0613 23.0028 25.0564 22.998C25.0413 22.9831 25.0477 22.8903 25.0466 22.8681C25.0393 22.7256 25.0556 22.5872 25.0581 22.4455C25.0601 22.3358 25.049 22.5311 25.0467 22.5254C25.0473 22.4925 25.0531 22.4599 25.064 22.4289C25.0805 22.3542 25.0958 22.2795 25.116 22.2056C25.1391 22.121 25.1656 22.0374 25.1957 21.9549C25.207 21.924 25.2207 21.8936 25.2311 21.8625C25.2694 21.7484 25.1553 22.0002 25.2182 21.8974C25.3048 21.7558 25.3693 21.6027 25.4612 21.4629C25.483 21.4298 25.6155 21.2453 25.5452 21.3384C25.4752 21.4312 25.6171 21.2553 25.644 21.2255C25.7556 21.1014 25.8869 20.9995 26.0025 20.8807C26.0709 20.8104 25.9548 20.9154 25.9479 20.9202C25.9837 20.8947 26.0188 20.8682 26.055 20.8433C26.1182 20.7998 26.1829 20.7587 26.2492 20.72C26.3239 20.6763 26.4083 20.6438 26.4807 20.5976C26.5662 20.543 26.4153 20.6215 26.4126 20.6232C26.4516 20.6038 26.4925 20.5883 26.5345 20.5768C26.605 20.5519 26.9115 20.4198 26.9758 20.4611C26.9729 20.4593 26.743 20.4796 26.9288 20.4677C26.9727 20.4649 27.0165 20.4606 27.0604 20.4588C27.1494 20.4551 27.238 20.4573 27.3269 20.4619C27.5677 20.4604 27.7983 20.3641 27.9687 20.1941C28.139 20.0241 28.2354 19.794 28.237 19.5535C28.2318 19.3142 28.1343 19.0862 27.9647 18.9169C27.7951 18.7477 27.5666 18.6503 27.3268 18.6451Z" fill="#E6E6E6"/>
<path d="M40.0686 18.6451C39.2783 18.6403 38.504 18.8677 37.8422 19.299C37.1805 19.7304 36.6606 20.3466 36.3473 21.0708C35.9969 21.7797 35.8887 22.5836 36.0394 23.3596C36.19 24.1356 36.5911 24.841 37.1814 25.368C37.7363 25.8392 38.4019 26.1623 39.1159 26.307C39.8299 26.4518 40.569 26.4135 41.2641 26.1958C41.975 25.948 42.5915 25.4863 43.0287 24.8744C43.4659 24.2624 43.7022 23.5303 43.7053 22.7787C43.737 21.9448 43.5107 21.1215 43.0571 20.4205C42.6035 19.7196 41.9445 19.1751 41.17 18.8611C40.9372 18.798 40.6889 18.8293 40.4792 18.9482C40.2695 19.067 40.1153 19.2638 40.0504 19.4956C39.993 19.7277 40.0269 19.9728 40.1451 20.1807C40.2634 20.3886 40.457 20.5433 40.6861 20.613C40.8447 20.6742 40.5412 20.5352 40.6893 20.6157C40.7502 20.6488 40.8122 20.6787 40.872 20.7141C40.9228 20.7442 40.9715 20.777 41.0209 20.8093C41.1908 20.9199 40.938 20.728 41.0466 20.8275C41.1408 20.9138 41.2341 20.998 41.3197 21.0932C41.352 21.1292 41.4789 21.2292 41.3803 21.1593C41.3049 21.1058 41.3512 21.1184 41.3803 21.1613C41.4023 21.194 41.4256 21.2257 41.4474 21.2585C41.5184 21.3657 41.5829 21.477 41.6406 21.5918C41.654 21.6184 41.6662 21.6455 41.6798 21.672C41.7053 21.7215 41.7422 21.7345 41.6823 21.6725C41.6251 21.6132 41.6615 21.6172 41.682 21.6743C41.6955 21.7118 41.7102 21.7488 41.7233 21.7864C41.7659 21.909 41.8018 22.0338 41.8306 22.1603C41.8439 22.2187 41.8546 22.2776 41.8661 22.3364C41.9067 22.545 41.8602 22.2067 41.87 22.3617C41.8782 22.491 41.8878 22.619 41.8855 22.7489C41.8845 22.8084 41.8819 22.8677 41.8777 22.927C41.8756 22.9566 41.8723 22.9861 41.8704 23.0157C41.861 23.1582 41.8607 22.9636 41.8806 22.9503C41.839 23.0713 41.8114 23.1966 41.7984 23.3239C41.7821 23.3804 41.7627 23.4356 41.7446 23.4915C41.6813 23.6864 41.804 23.3853 41.7365 23.5185C41.681 23.6329 41.6189 23.744 41.5506 23.8514C41.521 23.8963 41.4091 23.9978 41.5006 23.9272C41.5998 23.8505 41.4486 23.9825 41.4163 24.0165C41.3748 24.0601 41.3318 24.1023 41.2872 24.1429C41.2587 24.1707 41.2285 24.1968 41.1969 24.2212C41.1911 24.2183 41.349 24.116 41.2639 24.1701C41.1558 24.239 41.0534 24.3126 40.9394 24.3725C40.9261 24.3795 40.7804 24.4469 40.781 24.4493C40.7748 24.4247 40.9684 24.3812 40.8355 24.4241C40.8076 24.4331 40.7802 24.444 40.7524 24.4533C40.6314 24.494 40.5079 24.5268 40.3827 24.5516C40.354 24.5573 40.3237 24.5602 40.2954 24.5675C40.2013 24.5918 40.3853 24.5532 40.3909 24.5564C40.3213 24.5534 40.2517 24.5596 40.1837 24.5747C40.0546 24.5821 39.9252 24.5821 39.796 24.5747C39.7661 24.573 39.7363 24.57 39.7065 24.5683C39.6371 24.5643 39.5862 24.5144 39.6785 24.5685C39.7497 24.6103 39.7438 24.5798 39.6807 24.5682C39.6512 24.5627 39.6216 24.5582 39.5921 24.5526C39.4643 24.5288 39.3379 24.4979 39.2135 24.4601C39.1465 24.4397 39.0809 24.416 39.0149 24.393C38.9861 24.3847 38.9581 24.3739 38.9312 24.3608C38.9308 24.3534 39.1014 24.4422 39.0113 24.3938C38.8976 24.3326 38.78 24.2813 38.669 24.2145C38.6098 24.1788 38.5529 24.1401 38.4953 24.1019C38.47 24.0866 38.4459 24.0694 38.4233 24.0504C38.4252 24.0427 38.5644 24.1714 38.4913 24.1019C38.3989 24.014 38.3 23.9354 38.2125 23.8418C38.1925 23.8204 38.1736 23.7979 38.1536 23.7765L38.1343 23.7545C38.085 23.6943 38.084 23.6946 38.1315 23.7553C38.1798 23.7695 38.1776 23.8223 38.1318 23.7537C38.1155 23.7293 38.0982 23.7055 38.0819 23.681C38.008 23.5759 37.9449 23.4636 37.8938 23.3458C37.8982 23.3423 37.9726 23.5643 37.9157 23.3968C37.905 23.3651 37.8929 23.334 37.8823 23.3023C37.8614 23.2393 37.843 23.1757 37.8271 23.1114C37.8114 23.0476 37.8033 22.9819 37.7875 22.9184C37.7607 22.8114 37.8031 23.0028 37.7983 22.998C37.7831 22.9831 37.7895 22.8903 37.7884 22.8681C37.7811 22.7256 37.7974 22.5872 37.7999 22.4455C37.8019 22.3358 37.7908 22.5311 37.7885 22.5254C37.7891 22.4925 37.7949 22.4599 37.8058 22.4289C37.8223 22.3542 37.8376 22.2795 37.8578 22.2056C37.8809 22.121 37.9075 22.0374 37.9376 21.9549C37.9488 21.924 37.9625 21.8936 37.9729 21.8625C38.0112 21.7484 37.8971 22.0002 37.96 21.8974C38.0466 21.7558 38.1111 21.6027 38.2031 21.4629C38.2248 21.4298 38.3573 21.2453 38.287 21.3384C38.217 21.4312 38.3589 21.2553 38.3858 21.2255C38.4975 21.1014 38.6287 20.9995 38.7443 20.8807C38.8127 20.8104 38.6966 20.9154 38.6897 20.9202C38.7255 20.8947 38.7606 20.8682 38.7968 20.8433C38.86 20.7998 38.9247 20.7587 38.991 20.72C39.0657 20.6763 39.1501 20.6438 39.2225 20.5976C39.308 20.543 39.1571 20.6215 39.1544 20.6232C39.1934 20.6038 39.2343 20.5883 39.2763 20.5768C39.3468 20.5519 39.6533 20.4198 39.7176 20.4611C39.7147 20.4593 39.4849 20.4796 39.6707 20.4677C39.7146 20.4649 39.7583 20.4606 39.8023 20.4588C39.8912 20.4551 39.9798 20.4573 40.0687 20.4619C40.3096 20.4604 40.5401 20.3641 40.7105 20.1941C40.8808 20.0241 40.9772 19.794 40.9788 19.5535C40.9737 19.3142 40.8761 19.0862 40.7065 18.9169C40.5369 18.7477 40.3084 18.6503 40.0686 18.6451Z" fill="#E6E6E6"/>
<path d="M52.8104 18.6451C52.0201 18.6403 51.2458 18.8677 50.584 19.299C49.9223 19.7304 49.4024 20.3466 49.0891 21.0708C48.7387 21.7797 48.6305 22.5836 48.7812 23.3596C48.9318 24.1356 49.3329 24.841 49.9232 25.368C50.4781 25.8392 51.1437 26.1623 51.8577 26.307C52.5716 26.4518 53.3108 26.4135 54.0059 26.1958C54.7168 25.948 55.3333 25.4863 55.7705 24.8744C56.2077 24.2624 56.444 23.5303 56.4471 22.7787C56.4788 21.9448 56.2525 21.1215 55.7989 20.4205C55.3453 19.7196 54.6863 19.1751 53.9117 18.8611C53.679 18.798 53.4307 18.8293 53.221 18.9482C53.0113 19.067 52.8571 19.2638 52.7922 19.4956C52.7348 19.7277 52.7687 19.9728 52.8869 20.1807C53.0052 20.3886 53.1988 20.5433 53.4278 20.613C53.5865 20.6742 53.2829 20.5352 53.431 20.6157C53.4919 20.6488 53.554 20.6787 53.6138 20.7141C53.6646 20.7442 53.7133 20.777 53.7627 20.8093C53.9326 20.9199 53.6798 20.728 53.7884 20.8275C53.8826 20.9138 53.9759 20.998 54.0615 21.0932C54.0938 21.1292 54.2206 21.2292 54.1221 21.1593C54.0467 21.1058 54.093 21.1184 54.1221 21.1613C54.1441 21.194 54.1674 21.2257 54.1892 21.2585C54.2602 21.3657 54.3247 21.477 54.3824 21.5918C54.3958 21.6184 54.408 21.6455 54.4216 21.672C54.4471 21.7215 54.484 21.7345 54.4241 21.6725C54.3668 21.6132 54.4033 21.6172 54.4238 21.6743C54.4372 21.7118 54.4519 21.7488 54.465 21.7864C54.5077 21.909 54.5435 22.0338 54.5723 22.1603C54.5857 22.2187 54.5964 22.2776 54.6079 22.3364C54.6485 22.545 54.602 22.2067 54.6118 22.3617C54.62 22.491 54.6296 22.619 54.6273 22.7489C54.6263 22.8084 54.6237 22.8677 54.6195 22.927C54.6174 22.9566 54.6141 22.9861 54.6122 23.0157C54.6027 23.1582 54.6024 22.9636 54.6224 22.9503C54.5808 23.0713 54.5532 23.1966 54.5402 23.3239C54.5239 23.3804 54.5045 23.4356 54.4864 23.4915C54.4231 23.6864 54.5458 23.3853 54.4783 23.5185C54.4228 23.6329 54.3607 23.744 54.2924 23.8514C54.2627 23.8963 54.1509 23.9978 54.2424 23.9272C54.3416 23.8505 54.1903 23.9825 54.1581 24.0165C54.1166 24.0601 54.0736 24.1023 54.029 24.1429C54.0004 24.1707 53.9703 24.1968 53.9387 24.2212C53.9329 24.2183 54.0908 24.116 54.0057 24.1701C53.8976 24.239 53.7952 24.3126 53.6812 24.3725C53.6679 24.3795 53.5222 24.4469 53.5228 24.4493C53.5166 24.4247 53.7101 24.3812 53.5773 24.4241C53.5493 24.4331 53.522 24.444 53.4942 24.4533C53.3732 24.494 53.2497 24.5268 53.1245 24.5516C53.0958 24.5573 53.0655 24.5602 53.0372 24.5675C52.9431 24.5918 53.1271 24.5532 53.1327 24.5564C53.0631 24.5534 52.9935 24.5596 52.9255 24.5747C52.7964 24.5821 52.6669 24.5821 52.5378 24.5747C52.5079 24.573 52.4781 24.57 52.4483 24.5683C52.3789 24.5643 52.328 24.5144 52.4203 24.5685C52.4915 24.6103 52.4856 24.5798 52.4225 24.5682C52.393 24.5627 52.3634 24.5582 52.3339 24.5526C52.2061 24.5288 52.0797 24.4979 51.9553 24.4601C51.8883 24.4397 51.8227 24.416 51.7567 24.393C51.7279 24.3847 51.6999 24.3739 51.673 24.3608C51.6726 24.3534 51.8432 24.4422 51.7531 24.3938C51.6394 24.3326 51.5218 24.2813 51.4108 24.2145C51.3516 24.1788 51.2947 24.1401 51.2371 24.1019C51.2117 24.0866 51.1877 24.0694 51.1651 24.0504C51.167 24.0427 51.3062 24.1714 51.2331 24.1019C51.1407 24.014 51.0418 23.9354 50.9543 23.8418C50.9343 23.8204 50.9153 23.7979 50.8954 23.7765L50.8761 23.7545C50.8268 23.6943 50.8258 23.6946 50.8733 23.7553C50.9216 23.7695 50.9194 23.8223 50.8736 23.7537C50.8573 23.7293 50.84 23.7055 50.8237 23.681C50.7498 23.5759 50.6867 23.4636 50.6356 23.3458C50.64 23.3423 50.7144 23.5643 50.6575 23.3968C50.6468 23.3651 50.6347 23.334 50.6241 23.3023C50.6032 23.2393 50.5848 23.1757 50.5689 23.1114C50.5532 23.0476 50.5451 22.9819 50.5292 22.9184C50.5025 22.8114 50.5449 23.0028 50.54 22.998C50.5249 22.9831 50.5313 22.8903 50.5302 22.8681C50.5229 22.7256 50.5392 22.5872 50.5417 22.4455C50.5437 22.3358 50.5326 22.5311 50.5303 22.5254C50.5309 22.4925 50.5367 22.4599 50.5476 22.4289C50.5641 22.3542 50.5794 22.2795 50.5996 22.2056C50.6227 22.121 50.6493 22.0374 50.6793 21.9549C50.6906 21.924 50.7043 21.8936 50.7147 21.8625C50.753 21.7484 50.6389 22.0002 50.7018 21.8974C50.7884 21.7558 50.8529 21.6027 50.9449 21.4629C50.9666 21.4298 51.0991 21.2453 51.0288 21.3384C50.9588 21.4312 51.1007 21.2553 51.1276 21.2255C51.2393 21.1014 51.3705 20.9995 51.4861 20.8807C51.5545 20.8104 51.4384 20.9154 51.4315 20.9202C51.4673 20.8947 51.5024 20.8682 51.5386 20.8433C51.6018 20.7998 51.6665 20.7587 51.7328 20.72C51.8075 20.6763 51.8919 20.6438 51.9643 20.5976C52.0498 20.543 51.8989 20.6215 51.8962 20.6232C51.9352 20.6038 51.9761 20.5883 52.0181 20.5768C52.0886 20.5519 52.3951 20.4198 52.4594 20.4611C52.4565 20.4593 52.2267 20.4796 52.4124 20.4677C52.4563 20.4649 52.5001 20.4606 52.544 20.4588C52.633 20.4551 52.7216 20.4573 52.8105 20.4619C53.0514 20.4604 53.2819 20.3641 53.4523 20.1941C53.6226 20.0241 53.719 19.794 53.7206 19.5535C53.7154 19.3142 53.6179 19.0862 53.4483 18.9169C53.2787 18.7477 53.0502 18.6503 52.8104 18.6451Z" fill="#E6E6E6"/>
<path d="M236.883 219.828H13.6556C10.8328 219.825 8.12658 218.704 6.13057 216.712C4.13457 214.72 3.01181 212.019 3.00864 209.201V10.6264C3.0118 7.8091 4.13454 5.10806 6.13054 3.1159C8.12653 1.12374 10.8328 0.00315924 13.6556 0H236.883C239.706 0.00315924 242.412 1.12374 244.408 3.1159C246.404 5.10806 247.527 7.8091 247.53 10.6264V209.201C247.527 212.019 246.404 214.72 244.408 216.712C242.412 218.704 239.706 219.825 236.883 219.828ZM13.6556 1.21117C11.1545 1.21401 8.75675 2.20689 6.98826 3.97198C5.21977 5.73707 4.22499 8.13022 4.22214 10.6264V209.201C4.22505 211.698 5.21987 214.091 6.98836 215.856C8.75684 217.621 11.1546 218.614 13.6556 218.616H236.883C239.384 218.614 241.782 217.621 243.55 215.856C245.319 214.091 246.313 211.698 246.316 209.201V10.6264C246.314 8.13022 245.319 5.73707 243.55 3.97198C241.782 2.20689 239.384 1.21401 236.883 1.21117H13.6556Z" fill="#E6E6E6"/>
<path d="M13.2857 135.11L91.7868 134.871L169.887 134.634L213.944 134.501C214.18 134.492 214.404 134.393 214.568 134.224C214.732 134.054 214.823 133.828 214.823 133.592C214.823 133.357 214.732 133.13 214.568 132.961C214.404 132.791 214.18 132.692 213.944 132.684L135.443 132.922L57.3424 133.159L13.2857 133.293C13.0498 133.301 12.8262 133.4 12.6622 133.57C12.4982 133.739 12.4066 133.966 12.4066 134.201C12.4066 134.437 12.4982 134.663 12.6622 134.833C12.8262 135.002 13.0498 135.102 13.2857 135.11Z" fill="#E6E6E6"/>
<path d="M52.8883 133.637L53.3737 105.031C53.3935 103.861 51.5733 103.861 51.5534 105.031L51.068 133.637C51.0482 134.806 52.8684 134.807 52.8883 133.637Z" fill="#E6E6E6"/>
<path d="M90.407 133.946L91.5899 97.9901L91.9279 87.7169C91.9663 86.5475 90.146 86.5489 90.1076 87.7169L88.9247 123.673L88.5867 133.946C88.5482 135.116 90.3686 135.114 90.407 133.946Z" fill="#E6E6E6"/>
<path d="M127.824 70.6726C127.111 83.4081 125.791 120.973 125.077 133.708C125.012 134.876 126.832 134.872 126.897 133.708C127.611 120.973 128.931 83.4081 129.645 70.6726C129.71 69.5045 127.89 69.5082 127.824 70.6726Z" fill="#E6E6E6"/>
<path d="M165.062 120.929L164.839 133.17C164.817 134.339 166.638 134.339 166.659 133.17C166.922 118.712 167.598 119.184 167.673 115.103C167.694 113.934 165.874 113.934 165.852 115.103C165.852 115.103 165.325 106.472 165.062 120.929Z" fill="#E6E6E6"/>
<path d="M201.535 88.772L201.741 123.114L201.8 132.948C201.808 133.183 201.907 133.406 202.077 133.57C202.247 133.733 202.474 133.825 202.71 133.825C202.946 133.825 203.173 133.733 203.343 133.57C203.512 133.406 203.612 133.183 203.62 132.948L203.414 98.6056L203.355 88.772C203.347 88.5365 203.248 88.3134 203.078 88.1497C202.908 87.986 202.681 87.8945 202.445 87.8945C202.209 87.8945 201.982 87.986 201.812 88.1497C201.643 88.3134 201.543 88.5365 201.535 88.772Z" fill="#E6E6E6"/>
<path d="M13.4321 134.088C11.9254 129.955 15.3218 125.981 18.8117 124.195C22.9928 122.055 27.8027 121.57 32.0282 119.507C38.3276 116.432 42.916 110.913 46.9987 105.389C51.201 99.7027 55.046 93.6002 60.3856 88.8758C63.1994 86.3309 66.5226 84.4114 70.1354 83.2444C74.6874 81.8265 79.515 81.7293 84.2186 82.3007C93.938 83.4814 102.948 87.488 112.326 90.0346C121.167 92.4354 130.909 93.7855 139.588 90.052C143.997 88.1552 147.602 84.9738 151.475 82.2208C155.223 79.5285 159.414 77.5109 163.858 76.2591C172.57 73.8412 182.084 74.4868 190.194 78.5742C197.65 82.2831 203.553 88.5014 206.861 96.1316C210.707 105.299 210.206 115.544 208.95 125.194C208.625 127.688 208.239 130.174 207.848 132.658C207.668 133.802 209.422 134.295 209.604 133.141C211.168 123.191 212.727 112.926 210.781 102.913C209.098 94.1699 204.281 86.3383 197.231 80.8838C190.152 75.4144 181.351 72.6423 172.408 73.0649C167.722 73.2819 163.109 74.306 158.772 76.0918C154.27 77.9503 150.458 80.7049 146.586 83.6033C142.605 86.5834 138.501 89.0484 133.559 90.0203C128.764 90.9631 123.777 90.6097 119.004 89.7196C109.155 87.8829 99.9744 83.6727 90.209 81.5155C81.1613 79.5168 71.3981 79.3171 63.2962 84.4186C57.064 88.3428 52.6602 94.435 48.4339 100.318C44.2447 106.149 40.0024 112.384 33.8767 116.367C30.1398 118.797 25.9392 119.694 21.759 121.06C17.568 122.43 13.5446 124.741 11.8357 129.027C11.0992 130.792 11.0426 132.767 11.6768 134.571C12.0742 135.661 13.834 135.19 13.4321 134.088Z" fill="#E6E6E6"/>
<path d="M52.2843 101.075L52.282 101.076L52.2865 101.075H52.2843Z" fill="#E6E6E6"/>
<path d="M55.4405 99.4042C55.0198 98.6606 54.3487 98.0899 53.5463 97.7935C52.7439 97.4971 51.8622 97.4942 51.0579 97.7852C50.658 97.9309 50.2915 98.1551 49.98 98.4446C49.6685 98.7341 49.4183 99.083 49.2442 99.4707C49.2094 99.5531 49.189 99.6397 49.1606 99.7241C49.1211 99.7878 49.0737 99.8452 49.0384 99.9118C48.6611 100.662 48.5578 101.52 48.7463 102.338C48.9347 103.157 49.4032 103.884 50.0708 104.394C50.7385 104.905 51.5637 105.167 52.4042 105.135C53.2447 105.104 54.048 104.781 54.6756 104.222C55.3353 103.627 55.7709 102.825 55.9101 101.948C56.0492 101.071 55.8835 100.174 55.4405 99.4042ZM53.1608 100.947C53.1655 101.035 53.1683 100.993 53.1608 100.947V100.947ZM52.9291 100.421C52.9201 100.411 52.9213 100.412 52.9291 100.421V100.421ZM51.9077 100.831C51.8927 100.806 51.894 100.81 51.9077 100.831V100.831ZM52.1498 101.036C52.1846 101.051 52.2074 101.055 52.1498 101.036V101.036ZM52.2579 101.087L52.2818 101.076C52.276 101.077 52.2701 101.076 52.2649 101.073L52.2656 101.073L52.2844 101.075L52.2879 101.074L52.277 101.071C52.2864 101.071 52.2873 101.072 52.2879 101.074C52.3962 101.024 52.3231 101.048 52.2603 101.067L52.2561 101.066C52.2169 101.046 52.1748 101.033 52.1313 101.026C52.1273 101.024 52.1226 101.022 52.1192 101.02C52.0844 100.995 51.9082 100.858 52.0716 101.002C52.0361 100.971 52.0009 100.94 51.9675 100.906C51.9478 100.886 51.9299 100.864 51.9141 100.84C51.8926 100.804 51.8719 100.767 51.8517 100.729L51.8487 100.709C51.846 100.692 51.844 100.686 51.8418 100.675C51.8428 100.665 51.8445 100.654 51.8461 100.643C51.8583 100.61 51.8661 100.576 51.8693 100.542L51.8763 100.533C51.9024 100.496 51.9253 100.454 51.9503 100.416C51.8184 100.616 52.0019 100.394 52.0156 100.366C52.0179 100.361 52.0138 100.364 52.0148 100.36C52.0202 100.357 52.0185 100.359 52.025 100.356C52.0659 100.332 52.1046 100.305 52.1461 100.282C52.1955 100.254 52.3903 100.199 52.1883 100.257C52.2342 100.244 52.2782 100.227 52.3246 100.215C52.333 100.213 52.401 100.204 52.4376 100.197C52.4698 100.196 52.501 100.195 52.5043 100.195C52.5194 100.195 52.5345 100.197 52.5496 100.198C52.5161 100.202 52.6646 100.234 52.7088 100.241C52.7151 100.246 52.7184 100.249 52.7271 100.256C52.7643 100.283 52.8097 100.307 52.8491 100.332C52.6731 100.219 52.8514 100.341 52.885 100.375C52.9051 100.395 52.9236 100.417 52.9425 100.438C52.9599 100.458 52.9756 100.479 52.9894 100.502C53.0183 100.555 53.049 100.608 53.0793 100.66L53.0877 100.673C53.0875 100.675 53.0875 100.677 53.0875 100.678C53.1033 100.763 53.1266 100.845 53.1572 100.925C53.1587 100.932 53.1598 100.939 53.1606 100.946C53.1634 100.992 53.1673 101.038 53.1674 101.084L53.167 101.094C53.0268 101.021 52.8713 100.982 52.7132 100.981C52.5551 100.98 52.3991 101.016 52.2579 101.087Z" fill="#E6E6E6"/>
<path d="M52.2901 101.074C52.2929 101.075 52.2896 101.075 52.2896 101.075L52.2901 101.074Z" fill="#E6E6E6"/>
<path d="M52.2892 101.075L52.2869 101.075C52.2898 101.076 52.2892 101.075 52.2892 101.075Z" fill="#E6E6E6"/>
<path d="M52.2881 101.073L52.2891 101.074L52.2881 101.073Z" fill="#E6E6E6"/>
<path d="M91.1159 84.1189L91.1142 84.1198L91.1177 84.1189H91.1159Z" fill="#E6E6E6"/>
<path d="M94.2727 82.4478C93.852 81.7042 93.1808 81.1335 92.3784 80.8371C91.576 80.5407 90.6944 80.5378 89.89 80.8288C89.4902 80.9745 89.1236 81.1987 88.8121 81.4882C88.5006 81.7777 88.2504 82.1266 88.0764 82.5143C88.0415 82.5967 88.0212 82.6833 87.9927 82.7677C87.9533 82.8314 87.9059 82.8888 87.8705 82.9554C87.4933 83.7057 87.39 84.5639 87.5784 85.382C87.7669 86.2001 88.2353 86.9271 88.903 87.4376C89.5707 87.9482 90.3958 88.2104 91.2363 88.179C92.0769 88.1477 92.8801 87.8248 93.5078 87.2659C94.1674 86.6708 94.6031 85.8682 94.7422 84.9916C94.8814 84.115 94.7157 83.2173 94.2727 82.4478ZM91.9929 83.9906C91.9977 84.0786 92.0004 84.0364 91.9929 83.9906V83.9906ZM91.7612 83.4647C91.7523 83.4544 91.7534 83.4555 91.7612 83.4647V83.4647ZM90.7398 83.8746C90.7248 83.8501 90.7262 83.8536 90.7398 83.8746V83.8746ZM90.9819 84.0794C91.0168 84.0949 91.0396 84.099 90.9819 84.0794V84.0794ZM91.09 84.1309L91.114 84.1199C91.1081 84.1204 91.1022 84.1193 91.097 84.1166L91.0977 84.1164L91.1165 84.1188L91.12 84.1172L91.1091 84.1146C91.1185 84.1143 91.1194 84.1157 91.12 84.1172C91.2283 84.0677 91.1552 84.0914 91.0924 84.1108L91.0883 84.1098C91.049 84.09 91.0069 84.0765 90.9635 84.0699C90.9594 84.0676 90.9547 84.066 90.9513 84.0636C90.9165 84.0388 90.7403 83.9015 90.9037 84.0455C90.8682 84.0141 90.833 83.9833 90.7996 83.9495C90.7799 83.9293 90.762 83.9074 90.7462 83.884C90.7248 83.8473 90.704 83.8103 90.6838 83.773L90.6808 83.7528C90.6781 83.7361 90.6761 83.7291 90.6739 83.7191C90.675 83.7087 90.6766 83.6975 90.6783 83.6867C90.6905 83.654 90.6982 83.6199 90.7014 83.5851L90.7084 83.5763C90.7345 83.5399 90.7574 83.4974 90.7824 83.4596C90.6505 83.6595 90.834 83.4375 90.8477 83.4094C90.85 83.4046 90.8459 83.4072 90.8469 83.4038C90.8523 83.4009 90.8506 83.4029 90.8571 83.3992C90.898 83.3751 90.9367 83.3483 90.9782 83.3254C91.0277 83.298 91.2224 83.2428 91.0204 83.3005C91.0663 83.2874 91.1104 83.2709 91.1567 83.2588C91.1651 83.2566 91.2331 83.2471 91.2698 83.2405C91.3019 83.2397 91.3331 83.2387 91.3364 83.2388C91.3515 83.239 91.3666 83.2408 91.3817 83.2415C91.3482 83.246 91.4968 83.278 91.5409 83.2848C91.5472 83.2897 91.5505 83.293 91.5592 83.2993C91.5965 83.3265 91.6418 83.3507 91.6812 83.3761C91.5052 83.2625 91.6835 83.3851 91.7171 83.4186C91.7372 83.4387 91.7557 83.4601 91.7747 83.4812C91.792 83.5013 91.8077 83.5228 91.8215 83.5454C91.8504 83.5982 91.8811 83.6516 91.9114 83.7035L91.9198 83.7168C91.9197 83.7186 91.9196 83.7203 91.9196 83.722C91.9354 83.8062 91.9587 83.8889 91.9893 83.9689C91.9908 83.9757 91.9919 83.9826 91.9927 83.9895C91.9955 84.0356 91.9994 84.0816 91.9995 84.128L91.9991 84.1373C91.8589 84.0644 91.7034 84.0258 91.5453 84.0246C91.3873 84.0235 91.2312 84.0599 91.09 84.1309Z" fill="#E6E6E6"/>
<path d="M91.1214 84.1187L91.119 84.119C91.122 84.1193 91.1214 84.1187 91.1214 84.1187Z" fill="#E6E6E6"/>
<path d="M91.1203 84.1171L91.1212 84.1176L91.1203 84.1171Z" fill="#E6E6E6"/>
<path d="M91.1223 84.1178C91.125 84.1186 91.1218 84.1187 91.1218 84.1187L91.1223 84.1178Z" fill="#E6E6E6"/>
<path d="M128.739 92.5953L128.74 92.5958L128.739 92.5953Z" fill="#E6E6E6"/>
<path d="M131.891 65.4914C131.471 64.7478 130.799 64.1771 129.997 63.8807C129.195 63.5843 128.313 63.5814 127.509 63.8724C127.109 64.0181 126.742 64.2423 126.431 64.5318C126.119 64.8213 125.869 65.1702 125.695 65.5579C125.66 65.6403 125.64 65.7269 125.611 65.8113C125.572 65.875 125.525 65.9324 125.489 65.999C125.112 66.7493 125.009 67.6075 125.197 68.4256C125.386 69.2437 125.854 69.9707 126.522 70.4812C127.189 70.9918 128.014 71.2539 128.855 71.2226C129.696 71.1913 130.499 70.8684 131.126 70.3095C131.786 69.7144 132.222 68.9118 132.361 68.0352C132.5 67.1586 132.334 66.2609 131.891 65.4914ZM129.612 67.0342C129.616 67.1222 129.619 67.08 129.612 67.0342V67.0342ZM129.38 66.5083C129.371 66.498 129.372 66.4991 129.38 66.5083V66.5083ZM128.358 66.9182C128.343 66.8937 128.345 66.8972 128.358 66.9182V66.9182ZM128.601 67.123C128.635 67.1385 128.658 67.1426 128.601 67.123V67.123ZM128.709 67.1745L128.733 67.1635C128.727 67.164 128.721 67.1629 128.716 67.1601L128.716 67.16L128.735 67.1623L128.739 67.1608L128.728 67.1582C128.737 67.1579 128.738 67.1593 128.739 67.1608C128.847 67.1113 128.774 67.135 128.711 67.1544L128.707 67.1534C128.668 67.1336 128.626 67.1201 128.582 67.1135C128.578 67.1112 128.573 67.1096 128.57 67.1072C128.535 67.0824 128.359 66.9451 128.522 67.0891C128.487 67.0577 128.452 67.0269 128.418 66.9931C128.399 66.9729 128.381 66.951 128.365 66.9276C128.343 66.8909 128.323 66.8539 128.302 66.8165L128.299 66.7964C128.297 66.7797 128.295 66.7727 128.293 66.7627C128.294 66.7523 128.295 66.7411 128.297 66.7303C128.309 66.6976 128.317 66.6635 128.32 66.6287L128.327 66.6199C128.353 66.5835 128.376 66.541 128.401 66.5031C128.269 66.7031 128.453 66.4811 128.466 66.453C128.469 66.4481 128.465 66.4508 128.466 66.4474C128.471 66.4445 128.469 66.4465 128.476 66.4427C128.517 66.4187 128.555 66.3919 128.597 66.369C128.646 66.3416 128.841 66.2864 128.639 66.3441C128.685 66.331 128.729 66.3145 128.775 66.3024C128.784 66.3002 128.852 66.2907 128.888 66.2841C128.921 66.2833 128.952 66.2823 128.955 66.2824C128.97 66.2826 128.985 66.2844 129 66.2851C128.967 66.2895 129.115 66.3216 129.16 66.3284C129.166 66.3333 129.169 66.3366 129.178 66.3429C129.215 66.3701 129.26 66.3943 129.3 66.4196C129.124 66.3061 129.302 66.4287 129.336 66.4622C129.356 66.4823 129.374 66.5037 129.393 66.5248C129.411 66.5449 129.426 66.5664 129.44 66.589C129.469 66.6418 129.5 66.6952 129.53 66.7471L129.538 66.7604C129.538 66.7621 129.538 66.7639 129.538 66.7656C129.554 66.8498 129.577 66.9324 129.608 67.0125C129.609 67.0193 129.611 67.0262 129.611 67.0331C129.614 67.0792 129.618 67.1252 129.618 67.1715L129.618 67.1809C129.478 67.108 129.322 67.0694 129.164 67.0682C129.006 67.0671 128.85 67.1035 128.709 67.1745Z" fill="#E6E6E6"/>
<path d="M128.735 92.5971L128.733 92.598L128.736 92.5971H128.735Z" fill="#E6E6E6"/>
<path d="M128.74 92.5969L128.738 92.5972C128.741 92.5975 128.74 92.5969 128.74 92.5969Z" fill="#E6E6E6"/>
<path d="M128.741 92.596C128.744 92.5968 128.74 92.5969 128.74 92.5969L128.741 92.596Z" fill="#E6E6E6"/>
<path d="M170.117 112.121C169.696 111.378 169.025 110.807 168.222 110.511C167.42 110.214 166.538 110.211 165.734 110.503C165.334 110.648 164.968 110.872 164.656 111.162C164.345 111.451 164.094 111.8 163.92 112.188C163.886 112.27 163.865 112.357 163.837 112.441C163.797 112.505 163.75 112.563 163.715 112.629C163.337 113.379 163.234 114.238 163.423 115.056C163.611 115.874 164.079 116.601 164.747 117.111C165.415 117.622 166.24 117.884 167.08 117.853C167.921 117.821 168.724 117.498 169.352 116.94C170.011 116.344 170.447 115.542 170.586 114.665C170.725 113.789 170.56 112.891 170.117 112.121ZM167.837 113.664C167.842 113.752 167.844 113.71 167.837 113.664V113.664ZM167.605 113.138C167.596 113.128 167.597 113.129 167.605 113.138V113.138ZM166.584 113.548C166.569 113.524 166.57 113.527 166.584 113.548V113.548ZM166.826 113.753C166.861 113.769 166.884 113.773 166.826 113.753V113.753ZM166.934 113.805L166.958 113.794C166.952 113.794 166.946 113.793 166.941 113.79L166.942 113.79L166.961 113.792L166.964 113.791L166.953 113.788C166.963 113.788 166.963 113.789 166.964 113.791C167.072 113.741 166.999 113.765 166.936 113.785L166.932 113.784C166.893 113.764 166.851 113.75 166.808 113.744C166.804 113.741 166.799 113.74 166.795 113.737C166.761 113.713 166.584 113.575 166.748 113.719C166.712 113.688 166.677 113.657 166.644 113.623C166.624 113.603 166.606 113.581 166.59 113.558C166.569 113.521 166.548 113.484 166.528 113.447L166.525 113.427C166.522 113.41 166.52 113.403 166.518 113.393C166.519 113.382 166.521 113.371 166.522 113.36C166.535 113.328 166.542 113.294 166.545 113.259L166.552 113.25C166.579 113.214 166.601 113.171 166.626 113.133C166.495 113.333 166.678 113.111 166.692 113.083C166.694 113.078 166.69 113.081 166.691 113.078C166.696 113.075 166.695 113.077 166.701 113.073C166.742 113.049 166.781 113.022 166.822 112.999C166.872 112.972 167.066 112.917 166.865 112.974C166.91 112.961 166.954 112.945 167.001 112.932C167.009 112.93 167.077 112.921 167.114 112.914C167.146 112.913 167.177 112.912 167.18 112.912C167.196 112.913 167.211 112.915 167.226 112.915C167.192 112.92 167.341 112.952 167.385 112.958C167.391 112.963 167.395 112.967 167.403 112.973C167.441 113 167.486 113.024 167.525 113.05C167.349 112.936 167.528 113.059 167.561 113.092C167.581 113.112 167.6 113.134 167.619 113.155C167.636 113.175 167.652 113.196 167.666 113.219C167.694 113.272 167.725 113.325 167.755 113.377L167.764 113.391C167.764 113.392 167.764 113.394 167.764 113.396C167.779 113.48 167.803 113.563 167.833 113.643C167.835 113.649 167.836 113.656 167.837 113.663C167.84 113.709 167.843 113.755 167.844 113.802L167.843 113.811C167.703 113.738 167.547 113.699 167.389 113.698C167.231 113.697 167.075 113.734 166.934 113.805Z" fill="#E6E6E6"/>
<path d="M166.96 73.8239L166.958 73.8248L166.962 73.8239H166.96Z" fill="#E6E6E6"/>
<path d="M166.965 73.8237L166.963 73.8241C166.966 73.8244 166.965 73.8237 166.965 73.8237Z" fill="#E6E6E6"/>
<path d="M166.966 73.8228C166.969 73.8236 166.966 73.8237 166.966 73.8237L166.966 73.8228Z" fill="#E6E6E6"/>
<path d="M166.964 73.8221L166.965 73.8226L166.964 73.8221Z" fill="#E6E6E6"/>
<path d="M205.915 84.2645C205.494 83.521 204.823 82.9503 204.021 82.6539C203.219 82.3575 202.337 82.3545 201.532 82.6456C201.133 82.7913 200.766 83.0155 200.455 83.305C200.143 83.5945 199.893 83.9433 199.719 84.331C199.684 84.4134 199.664 84.5001 199.635 84.5845C199.596 84.6481 199.548 84.7056 199.513 84.7722C199.136 85.5225 199.032 86.3806 199.221 87.1988C199.409 88.0169 199.878 88.7439 200.545 89.2544C201.213 89.7649 202.038 90.0271 202.879 89.9958C203.719 89.9644 204.523 89.6415 205.15 89.0827C205.81 88.4875 206.246 87.6849 206.385 86.8083C206.524 85.9318 206.358 85.0341 205.915 84.2645ZM203.635 85.8073C203.64 85.8953 203.643 85.8532 203.635 85.8073V85.8073ZM203.404 85.2814C203.395 85.2712 203.396 85.2723 203.404 85.2814V85.2814ZM202.382 85.6913C202.367 85.6668 202.369 85.6703 202.382 85.6913V85.6913ZM202.624 85.8962C202.659 85.9117 202.682 85.9158 202.624 85.8962V85.8962ZM202.733 85.9476L202.756 85.9367C202.751 85.9372 202.745 85.936 202.739 85.9333L202.74 85.9332L202.759 85.9355L202.762 85.9339L202.752 85.9314C202.761 85.9311 202.762 85.9325 202.762 85.9339C202.871 85.8844 202.798 85.9082 202.735 85.9276L202.731 85.9266C202.692 85.9067 202.649 85.8932 202.606 85.8866C202.602 85.8844 202.597 85.8827 202.594 85.8803C202.559 85.8556 202.383 85.7183 202.546 85.8622C202.511 85.8309 202.476 85.8001 202.442 85.7663C202.422 85.7461 202.404 85.7242 202.389 85.7008C202.367 85.6641 202.346 85.6271 202.326 85.5897L202.323 85.5696C202.321 85.5528 202.319 85.5459 202.316 85.5358C202.317 85.5254 202.319 85.5143 202.321 85.5034C202.333 85.4708 202.341 85.4366 202.344 85.4019L202.351 85.393C202.377 85.3566 202.4 85.3142 202.425 85.2763C202.293 85.4763 202.476 85.2542 202.49 85.2261C202.493 85.2213 202.488 85.2239 202.489 85.2206C202.495 85.2176 202.493 85.2197 202.5 85.2159C202.54 85.1919 202.579 85.1651 202.621 85.1421C202.67 85.1148 202.865 85.0596 202.663 85.1172C202.709 85.1041 202.753 85.0876 202.799 85.0755C202.808 85.0734 202.876 85.0639 202.912 85.0573C202.944 85.0565 202.976 85.0555 202.979 85.0555C202.994 85.0557 203.009 85.0576 203.024 85.0582C202.991 85.0627 203.139 85.0948 203.183 85.1015C203.19 85.1065 203.193 85.1097 203.202 85.116C203.239 85.1432 203.284 85.1674 203.324 85.1928C203.148 85.0793 203.326 85.2018 203.36 85.2354C203.38 85.2555 203.398 85.2769 203.417 85.298C203.434 85.3181 203.45 85.3395 203.464 85.3622C203.493 85.4149 203.524 85.4683 203.554 85.5203L203.562 85.5336C203.562 85.5353 203.562 85.537 203.562 85.5388C203.578 85.623 203.601 85.7056 203.632 85.7857C203.633 85.7925 203.634 85.7993 203.635 85.8062C203.638 85.8523 203.642 85.8983 203.642 85.9447L203.642 85.9541C203.501 85.8811 203.346 85.8425 203.188 85.8414C203.03 85.8403 202.874 85.8767 202.733 85.9476Z" fill="#E6E6E6"/>
<path d="M202.758 85.9357L202.757 85.9365L202.76 85.9357H202.758Z" fill="#E6E6E6"/>
<path d="M202.763 85.9338L202.764 85.9343L202.763 85.9338Z" fill="#E6E6E6"/>
<path d="M202.765 85.9345C202.767 85.9354 202.764 85.9355 202.764 85.9355L202.765 85.9345Z" fill="#E6E6E6"/>
<path d="M202.764 85.9354L202.761 85.9358C202.764 85.9361 202.764 85.9354 202.764 85.9354Z" fill="#E6E6E6"/>
<path d="M192.949 113.689L164.737 115.254C164.578 115.262 164.422 115.21 164.3 115.107C164.179 115.004 164.101 114.859 164.084 114.701C164.067 114.543 164.111 114.384 164.208 114.258C164.304 114.131 164.445 114.046 164.603 114.021L193.438 109.338L192.949 113.689Z" fill="#3F3D56"/>
<path d="M228.803 176.377L239.434 158.525L247.292 162.229C247.292 162.229 233.752 179.108 233.32 179.593C233.505 180.414 233.436 181.271 233.122 182.051C232.808 182.831 232.264 183.498 231.562 183.963C230.861 184.428 230.034 184.67 229.191 184.656C228.349 184.642 227.531 184.373 226.845 183.884C226.159 183.396 225.638 182.711 225.35 181.921C225.063 181.13 225.023 180.272 225.235 179.458C225.447 178.644 225.902 177.914 226.539 177.364C227.176 176.813 227.965 176.469 228.803 176.377Z" fill="#FFB6B6"/>
<path d="M233.225 134.909L250.449 143.878C251.526 144.652 252.428 145.641 253.1 146.783C253.771 147.925 254.196 149.195 254.348 150.51C254.5 151.825 254.376 153.158 253.982 154.423C253.589 155.687 252.935 156.856 252.063 157.854L240.189 171.449L235.016 164.453L239.003 156.132L231.283 154.1L233.225 134.909Z" fill="white"/>
<path d="M184.141 113.98L182.201 134.657L173.51 134.671C173.51 134.671 178.496 113.63 178.677 113.006C178.158 112.344 177.853 111.54 177.801 110.701C177.75 109.862 177.955 109.027 178.389 108.306C178.824 107.586 179.467 107.014 180.234 106.666C181.001 106.319 181.856 106.212 182.686 106.36C183.515 106.507 184.28 106.903 184.879 107.494C185.478 108.085 185.883 108.844 186.041 109.67C186.199 110.496 186.102 111.35 185.762 112.12C185.423 112.89 184.857 113.538 184.141 113.98Z" fill="#FFB6B6"/>
<path d="M201.439 156.263L181.437 152.602C173.015 151.591 169.558 146.06 171.078 140.665L175.969 123.303L183.647 127.411L183.617 136.635L194.365 135.168L201.439 156.263Z" fill="white"/>
<path d="M193.251 299.155H187.752L185.135 277.982H193.252L193.251 299.155Z" fill="#FFB6B6"/>
<path d="M193.445 304.881L176.533 304.88V304.667C176.533 302.924 177.227 301.253 178.461 300.021C179.696 298.789 181.37 298.097 183.116 298.097L186.205 295.758L191.969 298.097L193.445 298.097L193.445 304.881Z" fill="#2F2E41"/>
<path d="M232.165 299.155H237.665L240.281 277.982H232.164L232.165 299.155Z" fill="#FFB6B6"/>
<path d="M231.972 304.881L248.884 304.88V304.667C248.884 302.924 248.19 301.253 246.956 300.021C245.721 298.789 244.047 298.097 242.301 298.097L239.211 295.758L233.448 298.097L231.971 298.097L231.972 304.881Z" fill="#2F2E41"/>
<path d="M184.893 262.423C184.975 261.215 185.62 254.534 185.62 254.534L187.167 240.365L189.894 202.805L192.324 192.933L204.353 197.61L214.114 192.94L225.716 196.641L234.75 200.022C234.75 200.022 234.765 201.47 234.835 203.218C234.927 205.507 235.09 208.313 235.476 209.043C236.122 210.332 235.96 217.252 235.96 217.252C235.96 217.252 236.602 231.333 237.41 232.877C238.218 234.421 238.381 237.636 238.137 238.28C237.894 238.925 238.945 255.835 238.945 255.835C238.945 255.835 241.645 285.759 239.951 290.271C238.257 294.783 231.857 291.827 231.857 291.827C231.857 291.827 232.166 290.623 230.31 290.055C228.454 289.488 222.8 247.058 222.8 247.058C222.8 247.058 221.748 238.358 220.781 235.864C219.814 233.371 218.925 226.365 218.925 226.365C218.925 226.365 212.954 214.771 212.877 212.192C212.877 212.192 212.095 209.78 211.357 212.435C210.618 215.091 208.441 221.452 208.441 221.452L206.318 229.264L203.82 240.936L202.203 250.763C202.203 250.763 199.782 263.805 199.395 264.369C199.009 264.932 199.395 276.847 199.395 276.847C199.395 276.847 197.524 286.995 194.879 288.766C192.233 290.538 185.225 288.794 185.225 288.794C185.225 288.794 184.812 263.631 184.893 262.423Z" fill="#2F2E41"/>
<path d="M193.886 161.166L192.349 181.04L190.04 183.426C189.831 183.641 189.669 183.895 189.562 184.175C189.454 184.454 189.405 184.752 189.416 185.051C189.426 185.35 189.498 185.643 189.625 185.914C189.752 186.185 189.933 186.427 190.156 186.627L188.884 188.804L188.433 195.666C188.305 196.199 188.296 196.755 188.408 197.293C188.519 197.83 188.748 198.337 189.079 198.776C189.409 199.215 189.832 199.576 190.319 199.833C190.805 200.09 191.342 200.236 191.891 200.262L231.714 202.129C232.26 202.155 232.806 202.06 233.311 201.853C233.817 201.645 234.271 201.329 234.641 200.926C235.011 200.524 235.288 200.046 235.453 199.525C235.617 199.004 235.665 198.454 235.593 197.913L232.207 172.47V170.567L230.691 166.893L231.47 154.585L233.282 135.05L222.748 132.334L217.036 128.412L207.113 128.569L201.091 133.505L193.063 134.76L186.991 135.964L186.218 137.642L187.765 137.307L193.372 159.133L193.886 161.166Z" fill="white"/>
<path d="M211.852 125.749C218.308 125.749 223.542 120.525 223.542 114.081C223.542 107.638 218.308 102.414 211.852 102.414C205.396 102.414 200.163 107.638 200.163 114.081C200.163 120.525 205.396 125.749 211.852 125.749Z" fill="#FFB6B6"/>
<path d="M209.034 124.996L217.48 124.566C218.562 124.511 219.743 124.415 220.53 123.672C220.954 123.213 221.279 122.673 221.488 122.085C222.268 120.275 223.049 118.464 223.81 116.646C224.862 114.13 225.896 111.474 225.627 108.761C225.564 107.522 225.044 106.351 224.166 105.472C223.718 105.049 223.143 104.786 222.529 104.724C221.915 104.662 221.298 104.804 220.774 105.129C220.644 104.271 220.32 103.454 219.827 102.739C219.334 102.025 218.684 101.431 217.927 101.004C216.399 100.161 214.654 99.7918 212.914 99.943C210.39 100.105 207.98 101.053 206.024 102.653C205.474 103.16 204.886 103.625 204.266 104.044C203.954 104.252 203.603 104.394 203.234 104.462C202.865 104.531 202.487 104.523 202.121 104.44C201.758 104.343 201.443 104.119 201.234 103.809C201.024 103.498 200.934 103.122 200.981 102.751C200.386 103.195 199.978 103.844 199.837 104.572C199.696 105.299 199.831 106.054 200.217 106.687C199.778 106.87 199.3 106.937 198.828 106.882C198.356 106.826 197.906 106.649 197.523 106.369C197.112 106.572 196.748 106.859 196.455 107.211C196.162 107.563 195.945 107.972 195.819 108.412C195.694 108.853 195.661 109.314 195.725 109.767C195.788 110.221 195.945 110.656 196.187 111.045C196.429 111.434 196.749 111.769 197.127 112.027C197.506 112.286 197.934 112.462 198.385 112.546C198.836 112.629 199.3 112.618 199.746 112.513C200.192 112.407 200.611 112.21 200.977 111.933C201.489 112.65 201.299 113.624 201.232 114.502C201.165 115.38 201.401 116.471 202.249 116.713C203.395 117.041 204.324 115.501 205.516 115.517C205.811 115.541 206.094 115.637 206.342 115.797C206.59 115.956 206.795 116.174 206.939 116.432C207.22 116.949 207.412 117.51 207.508 118.09L209.034 124.948" fill="#2F2E41"/>
<path d="M538.345 229.903C538.345 228.096 537.738 226.63 536.991 226.626H333.52C332.77 226.63 332.166 228.096 332.162 229.903V304.274C332.162 304.442 332.1 304.604 331.987 304.728C331.874 304.852 331.719 304.93 331.551 304.946C331.005 304.999 330.459 305.047 329.913 305.092C329.9 305.092 329.886 305.096 329.873 305.096C329.575 305.123 329.278 305.143 328.981 305.167H328.978C328.825 304.884 328.674 304.6 328.524 304.313C328.474 304.216 328.447 304.109 328.447 304V225.652C328.447 225.153 328.468 224.651 328.501 224.156C328.55 223.475 328.634 222.798 328.755 222.127C329.325 218.995 330.615 216.875 332.081 216.868H538.426C538.64 216.87 538.852 216.914 539.048 217C539.336 217.127 539.596 217.309 539.814 217.536C540.111 217.843 540.364 218.189 540.568 218.564C541.408 220.236 541.893 222.064 541.989 223.933C541.989 223.953 541.993 223.974 541.993 223.994C542.04 224.54 542.064 225.096 542.06 225.652L542.108 232.876L542.138 237.183L542.229 250.7L542.263 255.5L542.411 304.779C542.411 304.958 542.34 305.129 542.214 305.256C542.087 305.382 541.915 305.453 541.736 305.453H539.021C538.842 305.453 538.67 305.382 538.543 305.256C538.417 305.129 538.345 304.958 538.345 304.779V229.903Z" fill="#E6E6E6"/>
<path d="M483.056 183.069H461.131C460.821 183.069 460.524 183.192 460.305 183.412C460.086 183.631 459.963 183.928 459.963 184.237V218.805H484.227V184.237C484.227 184.084 484.197 183.932 484.138 183.79C484.079 183.648 483.993 183.519 483.884 183.411C483.775 183.302 483.646 183.216 483.504 183.157C483.362 183.099 483.21 183.068 483.056 183.069ZM472.167 202.709C471.482 202.706 470.825 202.433 470.34 201.949C469.855 201.465 469.582 200.81 469.578 200.125V196.138C469.578 195.453 469.851 194.796 470.337 194.311C470.822 193.827 471.481 193.554 472.167 193.554C472.854 193.554 473.512 193.827 473.998 194.311C474.483 194.796 474.756 195.453 474.756 196.138V200.125C474.753 200.81 474.479 201.465 473.994 201.949C473.51 202.433 472.853 202.706 472.167 202.709Z" fill="#CCCCCC"/>
<path d="M459.888 217.699V221.034C459.888 221.207 459.957 221.373 460.08 221.495C460.202 221.617 460.368 221.686 460.541 221.686H483.649C483.822 221.685 483.987 221.616 484.11 221.494C484.232 221.372 484.301 221.207 484.302 221.034V217.699H459.888Z" fill="#3F3D56"/>
<path d="M519.361 129.122H425.642C424.837 129.123 424.065 129.443 423.496 130.011C422.927 130.58 422.606 131.35 422.605 132.154V195.274C422.606 196.077 422.926 196.848 423.496 197.416C424.065 197.985 424.837 198.304 425.642 198.305H519.361C520.166 198.304 520.938 197.985 521.508 197.416C522.077 196.848 522.397 196.077 522.398 195.274V132.154C522.397 131.35 522.076 130.58 521.507 130.011C520.938 129.443 520.166 129.123 519.361 129.122Z" fill="#E6E6E6"/>
<path d="M518.578 131.312H426.425C425.994 131.313 425.581 131.484 425.277 131.789C424.972 132.093 424.801 132.506 424.801 132.936V194.492C424.802 194.922 424.973 195.333 425.278 195.637C425.582 195.941 425.995 196.112 426.425 196.113H518.578C519.009 196.112 519.422 195.941 519.726 195.637C520.031 195.333 520.202 194.922 520.203 194.492V132.936C520.203 132.506 520.032 132.093 519.727 131.789C519.423 131.484 519.009 131.313 518.578 131.312Z" fill="white"/>
<path d="M500.628 222.847H445.803C445.652 222.847 445.504 222.813 445.369 222.749C445.233 222.684 445.114 222.591 445.019 222.474C444.925 222.358 444.857 222.222 444.822 222.077C444.787 221.931 444.785 221.779 444.816 221.633L445.666 217.6C445.715 217.374 445.839 217.172 446.018 217.027C446.198 216.881 446.422 216.802 446.653 216.801H499.778C500.009 216.802 500.233 216.881 500.412 217.027C500.592 217.172 500.716 217.374 500.765 217.6L501.615 221.633C501.646 221.779 501.644 221.931 501.609 222.077C501.574 222.222 501.506 222.358 501.412 222.474C501.317 222.591 501.198 222.684 501.062 222.749C500.927 222.813 500.779 222.847 500.628 222.847Z" fill="#CCCCCC"/>
<path d="M448.435 217.527H447.339C447.175 217.527 447.042 217.659 447.042 217.823V218.243C447.042 218.406 447.175 218.538 447.339 218.538H448.435C448.598 218.538 448.731 218.406 448.731 218.243V217.823C448.731 217.659 448.598 217.527 448.435 217.527Z" fill="#E6E6E6"/>
<path d="M451.812 217.527H450.716C450.552 217.527 450.42 217.659 450.42 217.823V218.243C450.42 218.406 450.552 218.538 450.716 218.538H451.812C451.976 218.538 452.108 218.406 452.108 218.243V217.823C452.108 217.659 451.976 217.527 451.812 217.527Z" fill="#E6E6E6"/>
<path d="M455.189 217.527H454.093C453.929 217.527 453.797 217.659 453.797 217.823V218.243C453.797 218.406 453.929 218.538 454.093 218.538H455.189C455.353 218.538 455.485 218.406 455.485 218.243V217.823C455.485 217.659 455.353 217.527 455.189 217.527Z" fill="#E6E6E6"/>
<path d="M458.566 217.527H457.47C457.307 217.527 457.174 217.659 457.174 217.823V218.243C457.174 218.406 457.307 218.538 457.47 218.538H458.566C458.73 218.538 458.863 218.406 458.863 218.243V217.823C458.863 217.659 458.73 217.527 458.566 217.527Z" fill="#E6E6E6"/>
<path d="M461.944 217.527H460.847C460.684 217.527 460.551 217.659 460.551 217.823V218.243C460.551 218.406 460.684 218.538 460.847 218.538H461.944C462.107 218.538 462.24 218.406 462.24 218.243V217.823C462.24 217.659 462.107 217.527 461.944 217.527Z" fill="#E6E6E6"/>
<path d="M465.321 217.527H464.224C464.061 217.527 463.928 217.659 463.928 217.823V218.243C463.928 218.406 464.061 218.538 464.224 218.538H465.321C465.484 218.538 465.617 218.406 465.617 218.243V217.823C465.617 217.659 465.484 217.527 465.321 217.527Z" fill="#E6E6E6"/>
<path d="M468.698 217.527H467.602C467.438 217.527 467.305 217.659 467.305 217.823V218.243C467.305 218.406 467.438 218.538 467.602 218.538H468.698C468.861 218.538 468.994 218.406 468.994 218.243V217.823C468.994 217.659 468.861 217.527 468.698 217.527Z" fill="#E6E6E6"/>
<path d="M472.075 217.527H470.979C470.815 217.527 470.683 217.659 470.683 217.823V218.243C470.683 218.406 470.815 218.538 470.979 218.538H472.075C472.239 218.538 472.371 218.406 472.371 218.243V217.823C472.371 217.659 472.239 217.527 472.075 217.527Z" fill="#E6E6E6"/>
<path d="M475.452 217.527H474.356C474.192 217.527 474.06 217.659 474.06 217.823V218.243C474.06 218.406 474.192 218.538 474.356 218.538H475.452C475.616 218.538 475.748 218.406 475.748 218.243V217.823C475.748 217.659 475.616 217.527 475.452 217.527Z" fill="#E6E6E6"/>
<path d="M478.829 217.527H477.733C477.57 217.527 477.437 217.659 477.437 217.823V218.243C477.437 218.406 477.57 218.538 477.733 218.538H478.829C478.993 218.538 479.126 218.406 479.126 218.243V217.823C479.126 217.659 478.993 217.527 478.829 217.527Z" fill="#E6E6E6"/>
<path d="M482.207 217.527H481.11C480.947 217.527 480.814 217.659 480.814 217.823V218.243C480.814 218.406 480.947 218.538 481.11 218.538H482.207C482.37 218.538 482.503 218.406 482.503 218.243V217.823C482.503 217.659 482.37 217.527 482.207 217.527Z" fill="#E6E6E6"/>
<path d="M485.584 217.527H484.488C484.324 217.527 484.191 217.659 484.191 217.823V218.243C484.191 218.406 484.324 218.538 484.488 218.538H485.584C485.747 218.538 485.88 218.406 485.88 218.243V217.823C485.88 217.659 485.747 217.527 485.584 217.527Z" fill="#E6E6E6"/>
<path d="M488.961 217.527H487.865C487.701 217.527 487.568 217.659 487.568 217.823V218.243C487.568 218.406 487.701 218.538 487.865 218.538H488.961C489.124 218.538 489.257 218.406 489.257 218.243V217.823C489.257 217.659 489.124 217.527 488.961 217.527Z" fill="#E6E6E6"/>
<path d="M492.338 217.527H491.242C491.078 217.527 490.946 217.659 490.946 217.823V218.243C490.946 218.406 491.078 218.538 491.242 218.538H492.338C492.502 218.538 492.634 218.406 492.634 218.243V217.823C492.634 217.659 492.502 217.527 492.338 217.527Z" fill="#E6E6E6"/>
<path d="M495.715 217.527H494.619C494.456 217.527 494.323 217.659 494.323 217.823V218.243C494.323 218.406 494.456 218.538 494.619 218.538H495.715C495.879 218.538 496.011 218.406 496.011 218.243V217.823C496.011 217.659 495.879 217.527 495.715 217.527Z" fill="#E6E6E6"/>
<path d="M499.092 217.527H497.996C497.833 217.527 497.7 217.659 497.7 217.823V218.243C497.7 218.406 497.833 218.538 497.996 218.538H499.092C499.256 218.538 499.389 218.406 499.389 218.243V217.823C499.389 217.659 499.256 217.527 499.092 217.527Z" fill="#E6E6E6"/>
<path d="M448.395 219.212H447.299C447.135 219.212 447.002 219.345 447.002 219.508V219.928C447.002 220.091 447.135 220.224 447.299 220.224H448.395C448.558 220.224 448.691 220.091 448.691 219.928V219.508C448.691 219.345 448.558 219.212 448.395 219.212Z" fill="#E6E6E6"/>
<path d="M451.772 219.212H450.676C450.512 219.212 450.38 219.345 450.38 219.508V219.928C450.38 220.091 450.512 220.224 450.676 220.224H451.772C451.936 220.224 452.068 220.091 452.068 219.928V219.508C452.068 219.345 451.936 219.212 451.772 219.212Z" fill="#E6E6E6"/>
<path d="M455.149 219.212H454.053C453.889 219.212 453.757 219.345 453.757 219.508V219.928C453.757 220.091 453.889 220.224 454.053 220.224H455.149C455.313 220.224 455.445 220.091 455.445 219.928V219.508C455.445 219.345 455.313 219.212 455.149 219.212Z" fill="#E6E6E6"/>
<path d="M458.526 219.212H457.43C457.267 219.212 457.134 219.345 457.134 219.508V219.928C457.134 220.091 457.267 220.224 457.43 220.224H458.526C458.69 220.224 458.823 220.091 458.823 219.928V219.508C458.823 219.345 458.69 219.212 458.526 219.212Z" fill="#E6E6E6"/>
<path d="M461.904 219.212H460.807C460.644 219.212 460.511 219.345 460.511 219.508V219.928C460.511 220.091 460.644 220.224 460.807 220.224H461.904C462.067 220.224 462.2 220.091 462.2 219.928V219.508C462.2 219.345 462.067 219.212 461.904 219.212Z" fill="#E6E6E6"/>
<path d="M465.281 219.212H464.185C464.021 219.212 463.888 219.345 463.888 219.508V219.928C463.888 220.091 464.021 220.224 464.185 220.224H465.281C465.444 220.224 465.577 220.091 465.577 219.928V219.508C465.577 219.345 465.444 219.212 465.281 219.212Z" fill="#E6E6E6"/>
<path d="M468.658 219.212H467.562C467.398 219.212 467.266 219.345 467.266 219.508V219.928C467.266 220.091 467.398 220.224 467.562 220.224H468.658C468.821 220.224 468.954 220.091 468.954 219.928V219.508C468.954 219.345 468.821 219.212 468.658 219.212Z" fill="#E6E6E6"/>
<path d="M472.035 219.212H470.939C470.775 219.212 470.643 219.345 470.643 219.508V219.928C470.643 220.091 470.775 220.224 470.939 220.224H472.035C472.199 220.224 472.331 220.091 472.331 219.928V219.508C472.331 219.345 472.199 219.212 472.035 219.212Z" fill="#E6E6E6"/>
<path d="M475.412 219.212H474.316C474.153 219.212 474.02 219.345 474.02 219.508V219.928C474.02 220.091 474.153 220.224 474.316 220.224H475.412C475.576 220.224 475.709 220.091 475.709 219.928V219.508C475.709 219.345 475.576 219.212 475.412 219.212Z" fill="#E6E6E6"/>
<path d="M478.789 219.212H477.693C477.53 219.212 477.397 219.345 477.397 219.508V219.928C477.397 220.091 477.53 220.224 477.693 220.224H478.789C478.953 220.224 479.086 220.091 479.086 219.928V219.508C479.086 219.345 478.953 219.212 478.789 219.212Z" fill="#E6E6E6"/>
<path d="M482.167 219.212H481.07C480.907 219.212 480.774 219.345 480.774 219.508V219.928C480.774 220.091 480.907 220.224 481.07 220.224H482.167C482.33 220.224 482.463 220.091 482.463 219.928V219.508C482.463 219.345 482.33 219.212 482.167 219.212Z" fill="#E6E6E6"/>
<path d="M485.544 219.212H484.448C484.284 219.212 484.151 219.345 484.151 219.508V219.928C484.151 220.091 484.284 220.224 484.448 220.224H485.544C485.707 220.224 485.84 220.091 485.84 219.928V219.508C485.84 219.345 485.707 219.212 485.544 219.212Z" fill="#E6E6E6"/>
<path d="M488.921 219.212H487.825C487.661 219.212 487.529 219.345 487.529 219.508V219.928C487.529 220.091 487.661 220.224 487.825 220.224H488.921C489.085 220.224 489.217 220.091 489.217 219.928V219.508C489.217 219.345 489.085 219.212 488.921 219.212Z" fill="#E6E6E6"/>
<path d="M492.298 219.212H491.202C491.038 219.212 490.906 219.345 490.906 219.508V219.928C490.906 220.091 491.038 220.224 491.202 220.224H492.298C492.462 220.224 492.594 220.091 492.594 219.928V219.508C492.594 219.345 492.462 219.212 492.298 219.212Z" fill="#E6E6E6"/>
<path d="M495.675 219.212H494.579C494.416 219.212 494.283 219.345 494.283 219.508V219.928C494.283 220.091 494.416 220.224 494.579 220.224H495.675C495.839 220.224 495.972 220.091 495.972 219.928V219.508C495.972 219.345 495.839 219.212 495.675 219.212Z" fill="#E6E6E6"/>
<path d="M499.053 219.212H497.956C497.793 219.212 497.66 219.345 497.66 219.508V219.928C497.66 220.091 497.793 220.224 497.956 220.224H499.053C499.216 220.224 499.349 220.091 499.349 219.928V219.508C499.349 219.345 499.216 219.212 499.053 219.212Z" fill="#E6E6E6"/>
<path d="M476.425 221.235H463.509C463.346 221.235 463.213 221.367 463.213 221.53V221.95C463.213 222.114 463.346 222.246 463.509 222.246H476.425C476.589 222.246 476.722 222.114 476.722 221.95V221.53C476.722 221.367 476.589 221.235 476.425 221.235Z" fill="#E6E6E6"/>
<path d="M513.946 139.793H427.719C427.629 139.791 427.544 139.754 427.481 139.69C427.419 139.626 427.383 139.54 427.383 139.451C427.383 139.361 427.419 139.275 427.481 139.211C427.544 139.147 427.629 139.11 427.719 139.108H513.946C514.036 139.11 514.121 139.147 514.183 139.211C514.246 139.275 514.281 139.361 514.281 139.451C514.281 139.54 514.246 139.626 514.183 139.69C514.121 139.754 514.036 139.791 513.946 139.793Z" fill="#CACACA"/>
<path d="M433.588 137.361C434.698 137.361 435.598 136.443 435.598 135.31C435.598 134.178 434.698 133.26 433.588 133.26C432.479 133.26 431.579 134.178 431.579 135.31C431.579 136.443 432.479 137.361 433.588 137.361Z" fill="#CCCCCC"/>
<path d="M440.531 137.361C441.64 137.361 442.54 136.443 442.54 135.31C442.54 134.178 441.64 133.26 440.531 133.26C439.421 133.26 438.521 134.178 438.521 135.31C438.521 136.443 439.421 137.361 440.531 137.361Z" fill="#CCCCCC"/>
<path d="M447.473 137.361C448.583 137.361 449.482 136.443 449.482 135.31C449.482 134.178 448.583 133.26 447.473 133.26C446.363 133.26 445.463 134.178 445.463 135.31C445.463 136.443 446.363 137.361 447.473 137.361Z" fill="#CCCCCC"/>
<path d="M509.766 133.768H504.835C504.737 133.77 504.644 133.81 504.576 133.88C504.507 133.95 504.469 134.043 504.469 134.141C504.469 134.239 504.507 134.332 504.576 134.402C504.644 134.472 504.737 134.512 504.835 134.514H509.766C509.864 134.512 509.957 134.472 510.025 134.402C510.094 134.332 510.132 134.239 510.132 134.141C510.132 134.043 510.094 133.95 510.025 133.88C509.957 133.81 509.864 133.77 509.766 133.768Z" fill="#CCCCCC"/>
<path d="M509.766 135.167H504.835C504.737 135.169 504.644 135.209 504.576 135.279C504.507 135.349 504.469 135.442 504.469 135.54C504.469 135.637 504.507 135.731 504.576 135.801C504.644 135.87 504.737 135.911 504.835 135.912H509.766C509.864 135.911 509.957 135.87 510.025 135.801C510.094 135.731 510.132 135.637 510.132 135.54C510.132 135.442 510.094 135.349 510.025 135.279C509.957 135.209 509.864 135.169 509.766 135.167Z" fill="#CCCCCC"/>
<path d="M509.766 136.564H504.835C504.737 136.566 504.644 136.606 504.576 136.676C504.507 136.746 504.469 136.839 504.469 136.937C504.469 137.034 504.507 137.128 504.576 137.198C504.644 137.268 504.737 137.308 504.835 137.31H509.766C509.864 137.308 509.957 137.268 510.025 137.198C510.094 137.128 510.132 137.034 510.132 136.937C510.132 136.839 510.094 136.746 510.025 136.676C509.957 136.606 509.864 136.566 509.766 136.564Z" fill="#CCCCCC"/>
<path d="M477.794 158.439H467.02C466.211 158.439 465.555 159.093 465.555 159.901C465.555 160.709 466.211 161.364 467.02 161.364H477.794C478.604 161.364 479.26 160.709 479.26 159.901C479.26 159.093 478.604 158.439 477.794 158.439Z" fill="white"/>
<path d="M484.755 164.289H460.059C459.25 164.289 458.594 164.944 458.594 165.751C458.594 166.559 459.25 167.214 460.059 167.214H484.755C485.564 167.214 486.22 166.559 486.22 165.751C486.22 164.944 485.564 164.289 484.755 164.289Z" fill="#E6E6E6"/>
<path d="M484.755 170.139H460.059C459.25 170.139 458.594 170.794 458.594 171.601C458.594 172.409 459.25 173.064 460.059 173.064H484.755C485.564 173.064 486.22 172.409 486.22 171.601C486.22 170.794 485.564 170.139 484.755 170.139Z" fill="#E6E6E6"/>
<path d="M318.379 261.278L313.412 258.907L320.235 238.185L327.566 241.684L318.379 261.278Z" fill="#FFB6B6"/>
<path d="M351.679 257.937C351.318 258.163 350.956 258.385 350.592 258.607C349.865 259.052 349.132 259.489 348.399 259.918C348.03 260.133 347.658 260.348 347.29 260.559V260.57L347.268 260.574L347.26 260.577L346.699 260.716L345.892 258.589L345.52 257.61L344.995 256.222L344.032 253.684L338.96 240.32L346.845 238.379L347.14 239.584H347.144L347.29 240.182L350.044 251.332L350.606 253.611L350.624 253.68L350.964 255.042L351.256 256.222L351.58 257.54L351.679 257.937Z" fill="#FFB6B6"/>
<path d="M398.712 211.006C398.212 211.807 397.701 212.604 397.187 213.394C396.231 214.866 395.249 216.315 394.242 217.742C394.242 217.746 394.239 217.746 394.235 217.75C393.648 218.293 392.999 218.766 392.301 219.159C392.272 219.181 392.239 219.195 392.21 219.213C391.697 219.497 391.15 219.716 390.583 219.865C390.379 219.916 390.171 219.967 389.966 220.018C389.229 220.193 388.5 220.342 387.774 220.473C386.482 220.703 385.205 220.867 383.936 220.969C383.833 220.98 383.731 220.987 383.629 220.994C378.408 221.376 373.326 220.761 368.021 219.752C365.401 219.257 362.727 218.664 359.958 218.048C359.053 217.844 358.145 217.644 357.225 217.444C357.156 217.429 357.083 217.411 357.01 217.396C355.696 217.109 354.361 216.825 352.993 216.544C351.271 216.191 349.494 215.849 347.648 215.525L347.779 218.121C347.889 220.118 348.305 222.087 349.013 223.958C349.801 226.26 350.424 228.08 349.107 231.871L348.473 233.706C348.802 234.618 348.915 235.593 348.803 236.555C348.69 237.517 348.357 238.441 347.827 239.252L347.699 239.445L352.993 252.813L353.336 253.68H350.625L347.29 253.683H341.639L333.485 237.355L333.094 236.576V236.536L333.937 205.158C333.948 204.881 333.97 204.6 334.006 204.324C334.155 203.066 334.553 201.85 335.178 200.747C335.802 199.644 336.641 198.676 337.644 197.9C338.605 197.15 339.706 196.599 340.883 196.277C342.06 195.956 343.289 195.871 344.499 196.028L347.29 196.389L352.993 197.125L357.01 197.645L357.09 197.656L368.937 199.186L369.787 195.726L369.944 195.668L374.931 193.844L392.181 187.533L392.225 187.518L393.359 187.103L393.494 187.322C393.535 187.387 393.575 187.453 393.611 187.518C394.733 189.525 395.646 191.641 396.337 193.833C397.498 197.413 398.454 201.057 399.201 204.746C399.233 204.906 399.263 205.052 399.288 205.183L399.299 205.223C399.31 205.285 399.317 205.325 399.321 205.336C399.663 207.245 399.452 209.212 398.712 211.006Z" fill="#2F2E41"/>
<path d="M399.44 199.442C399.385 199.209 399.316 198.972 399.243 198.743C398.664 197.005 397.989 195.301 397.222 193.637C396.361 191.744 395.328 189.716 394.098 187.52C393.504 186.456 392.864 185.351 392.179 184.202C391.836 183.627 391.48 183.041 391.11 182.444C391.096 182.416 391.08 182.389 391.063 182.364L390.957 182.189L373.89 184.468L367.534 185.317L367.155 188.478L367.063 189.26C367.06 189.26 367.06 189.26 367.063 189.264L366.808 191.398V191.402L366.469 194.22L366.44 194.216L357.008 192.997L347.289 191.74L342.068 191.067C340.858 190.909 339.629 190.994 338.452 191.315C337.275 191.636 336.174 192.188 335.212 192.938C334.209 193.714 333.371 194.682 332.747 195.785C332.122 196.888 331.724 198.104 331.575 199.362C331.542 199.617 331.52 199.879 331.509 200.137L326.584 211.786C323.637 218.753 321.76 226.124 321.016 233.65L317.404 245.175L317.919 245.222L325.573 245.932L327.594 246.122L332.046 239.636C332.553 238.897 333.034 238.136 333.483 237.357C334.222 236.084 334.879 234.765 335.45 233.409L345.078 210.541C345.822 210.668 346.559 210.79 347.289 210.905C350.664 211.451 353.903 211.897 357.008 212.242C367.104 213.367 375.845 213.454 383.627 212.5C385.813 212.234 387.925 211.885 389.965 211.451C390.713 211.295 391.451 211.126 392.179 210.945C392.351 210.905 392.519 210.865 392.687 210.821C394.194 210.433 395.581 209.674 396.718 208.613C397.856 207.552 398.709 206.223 399.199 204.748C399.784 203.038 399.868 201.197 399.44 199.442Z" fill="#2F2E41"/>
<path d="M319.966 257.894L314.591 255.323L313.749 254.919L312.402 258.218L303.004 260.283C302.539 260.385 302.119 260.632 301.805 260.989C301.492 261.346 301.3 261.793 301.26 262.267C301.219 262.74 301.331 263.213 301.579 263.618C301.827 264.023 302.199 264.339 302.639 264.518L311.822 268.258L314.737 265.64L314.022 269.154L317.481 270.563L321.272 258.521L319.966 257.894Z" fill="#2F2E41"/>
<path d="M352.993 252.813L353.336 253.68H352.993V252.813Z" fill="#2F2E41"/>
<path d="M351.121 253.865L345.49 255.812L344.606 256.117L345.975 259.407L340.753 267.474C340.494 267.873 340.37 268.343 340.399 268.817C340.427 269.291 340.607 269.744 340.912 270.108C341.216 270.473 341.63 270.731 342.091 270.845C342.553 270.958 343.04 270.921 343.479 270.739L352.641 266.948L352.866 263.04L354.836 266.039L358.287 264.612L352.491 253.393L351.121 253.865Z" fill="#2F2E41"/>
<path d="M316.943 133.38C317.21 133.899 317.588 134.353 318.05 134.711C318.512 135.069 319.047 135.321 319.617 135.45C320.187 135.579 320.779 135.582 321.35 135.458C321.922 135.334 322.459 135.086 322.924 134.733L334.765 142.578L334.788 135.207L323.54 128.887C322.893 128.146 321.996 127.668 321.02 127.543C320.044 127.418 319.055 127.655 318.242 128.209C317.429 128.763 316.848 129.595 316.608 130.548C316.369 131.501 316.488 132.509 316.943 133.38Z" fill="#FFB6B6"/>
<path d="M325.789 136.787L331.314 130.514L353.809 143.842L383.628 141.117C385.102 140.982 386.588 141.173 387.98 141.676C389.371 142.179 390.635 142.981 391.681 144.026C392.727 145.071 393.53 146.333 394.032 147.723C394.535 149.113 394.725 150.595 394.588 152.066C394.339 154.723 393.044 157.173 390.987 158.877C388.931 160.582 386.281 161.403 383.618 161.16L350.035 158.057L325.789 136.787Z" fill="#CCCCCC"/>
<path d="M394.999 136.884L394.948 136.819C390.753 136.406 386.528 137.216 382.785 139.151C379.043 141.087 375.943 144.065 373.862 147.723L371.331 152.173C363.145 162.16 369.094 169.048 369.45 170.073L366.608 183.148L367.245 187.524L367.563 188.824L399.997 205.739C401.843 196.884 400.058 189.338 393.33 183.574L399.839 163.36C401.282 158.891 401.596 154.135 400.751 149.515C399.907 144.896 397.931 140.556 394.999 136.884Z" fill="#CCCCCC"/>
<path d="M369.211 235.084H358.808C358.235 235.083 357.682 234.877 357.25 234.502C356.819 234.127 356.536 233.61 356.456 233.044C355.814 228.326 355.814 223.544 356.456 218.826C356.536 218.267 356.812 217.755 357.236 217.381C357.659 217.007 358.202 216.797 358.768 216.787C362.041 215.322 365.566 215.323 369.247 216.787C369.59 216.791 369.927 216.871 370.236 217.019C370.545 217.168 370.817 217.382 371.034 217.647C371.261 217.923 371.422 218.245 371.508 218.591C371.594 218.937 371.602 219.297 371.53 219.646C370.695 223.797 370.695 228.073 371.53 232.223C371.602 232.573 371.594 232.933 371.508 233.279C371.422 233.625 371.261 233.947 371.034 234.223C370.813 234.493 370.535 234.71 370.22 234.858C369.905 235.007 369.56 235.084 369.211 235.084Z" fill="white"/>
<path d="M368.121 222.208H359.365C359.293 222.208 359.221 222.195 359.154 222.168C359.087 222.14 359.026 222.1 358.975 222.049C358.924 221.999 358.883 221.938 358.855 221.872C358.827 221.805 358.813 221.734 358.813 221.662C358.813 221.589 358.827 221.518 358.855 221.451C358.883 221.385 358.924 221.324 358.975 221.274C359.026 221.223 359.087 221.183 359.154 221.155C359.221 221.128 359.293 221.115 359.365 221.115H368.121C368.194 221.115 368.265 221.128 368.332 221.155C368.399 221.183 368.46 221.223 368.512 221.274C368.563 221.324 368.604 221.385 368.631 221.451C368.659 221.518 368.674 221.589 368.674 221.662C368.674 221.734 368.659 221.805 368.631 221.872C368.604 221.938 368.563 221.999 368.512 222.049C368.46 222.1 368.399 222.14 368.332 222.168C368.265 222.195 368.194 222.208 368.121 222.208Z" fill="white"/>
<path d="M368.121 226.577H359.365C359.293 226.578 359.221 226.564 359.154 226.537C359.087 226.51 359.026 226.47 358.975 226.419C358.924 226.368 358.883 226.308 358.855 226.241C358.827 226.175 358.813 226.103 358.813 226.031C358.813 225.959 358.827 225.888 358.855 225.821C358.883 225.754 358.924 225.694 358.975 225.643C359.026 225.593 359.087 225.552 359.154 225.525C359.221 225.498 359.293 225.484 359.365 225.485H368.121C368.194 225.484 368.265 225.498 368.332 225.525C368.399 225.552 368.46 225.593 368.512 225.643C368.563 225.694 368.604 225.754 368.631 225.821C368.659 225.888 368.674 225.959 368.674 226.031C368.674 226.103 368.659 226.175 368.631 226.241C368.604 226.308 368.563 226.368 368.512 226.419C368.46 226.47 368.399 226.51 368.332 226.537C368.265 226.564 368.194 226.578 368.121 226.577Z" fill="white"/>
<path d="M368.121 230.947H359.365C359.293 230.948 359.221 230.934 359.154 230.907C359.087 230.88 359.026 230.84 358.975 230.789C358.924 230.738 358.883 230.678 358.855 230.611C358.827 230.545 358.813 230.473 358.813 230.401C358.813 230.329 358.827 230.257 358.855 230.191C358.883 230.124 358.924 230.064 358.975 230.013C359.026 229.962 359.087 229.922 359.154 229.895C359.221 229.868 359.293 229.854 359.365 229.855H368.121C368.194 229.854 368.266 229.868 368.333 229.895C368.4 229.922 368.46 229.962 368.512 230.013C368.563 230.064 368.604 230.124 368.632 230.191C368.66 230.257 368.674 230.329 368.674 230.401C368.674 230.473 368.66 230.545 368.632 230.611C368.604 230.678 368.563 230.738 368.512 230.789C368.46 230.84 368.4 230.88 368.333 230.907C368.266 230.934 368.194 230.948 368.121 230.947Z" fill="white"/>
<path d="M318.85 136.979H308.447C307.875 136.978 307.322 136.772 306.89 136.397C306.458 136.023 306.176 135.505 306.096 134.94C305.453 130.222 305.453 125.439 306.096 120.721C306.175 120.162 306.451 119.65 306.875 119.276C307.299 118.903 307.842 118.692 308.407 118.682C311.68 117.218 315.205 117.218 318.886 118.682C319.229 118.686 319.567 118.766 319.876 118.914C320.184 119.063 320.457 119.277 320.674 119.542C320.9 119.818 321.062 120.14 321.148 120.486C321.234 120.832 321.241 121.192 321.17 121.542C320.334 125.692 320.334 129.968 321.17 134.119C321.241 134.468 321.234 134.828 321.148 135.174C321.062 135.52 320.9 135.842 320.674 136.118C320.453 136.388 320.175 136.605 319.859 136.754C319.544 136.902 319.199 136.979 318.85 136.979Z" fill="white"/>
<path d="M317.761 124.103H309.005C308.932 124.103 308.861 124.09 308.794 124.063C308.727 124.035 308.666 123.995 308.615 123.945C308.563 123.894 308.523 123.833 308.495 123.767C308.467 123.7 308.453 123.629 308.453 123.557C308.453 123.484 308.467 123.413 308.495 123.346C308.523 123.28 308.563 123.219 308.615 123.169C308.666 123.118 308.727 123.078 308.794 123.051C308.861 123.023 308.932 123.01 309.005 123.01H317.761C317.833 123.01 317.905 123.023 317.972 123.051C318.039 123.078 318.1 123.118 318.151 123.169C318.202 123.219 318.243 123.28 318.271 123.346C318.299 123.413 318.313 123.484 318.313 123.557C318.313 123.629 318.299 123.7 318.271 123.767C318.243 123.833 318.202 123.894 318.151 123.945C318.1 123.995 318.039 124.035 317.972 124.063C317.905 124.09 317.833 124.103 317.761 124.103Z" fill="white"/>
<path d="M317.761 128.473H309.005C308.932 128.473 308.861 128.46 308.794 128.432C308.727 128.405 308.666 128.365 308.615 128.314C308.563 128.264 308.523 128.203 308.495 128.137C308.467 128.07 308.453 127.998 308.453 127.926C308.453 127.854 308.467 127.783 308.495 127.716C308.523 127.65 308.563 127.589 308.615 127.538C308.666 127.488 308.727 127.447 308.794 127.42C308.861 127.393 308.932 127.379 309.005 127.38H317.761C317.833 127.379 317.905 127.393 317.972 127.42C318.039 127.447 318.1 127.488 318.151 127.538C318.202 127.589 318.243 127.65 318.271 127.716C318.299 127.783 318.313 127.854 318.313 127.926C318.313 127.998 318.299 128.07 318.271 128.137C318.243 128.203 318.202 128.264 318.151 128.314C318.1 128.365 318.039 128.405 317.972 128.432C317.905 128.46 317.833 128.473 317.761 128.473Z" fill="white"/>
<path d="M317.761 132.842H309.005C308.932 132.843 308.861 132.829 308.794 132.802C308.727 132.775 308.666 132.735 308.614 132.684C308.563 132.633 308.522 132.573 308.494 132.506C308.467 132.44 308.452 132.368 308.452 132.296C308.452 132.224 308.467 132.152 308.494 132.086C308.522 132.019 308.563 131.959 308.614 131.908C308.666 131.857 308.727 131.817 308.794 131.79C308.861 131.763 308.932 131.749 309.005 131.75H317.761C317.833 131.749 317.905 131.763 317.972 131.79C318.039 131.817 318.1 131.857 318.151 131.908C318.203 131.959 318.243 132.019 318.271 132.086C318.299 132.152 318.313 132.224 318.313 132.296C318.313 132.368 318.299 132.44 318.271 132.506C318.243 132.573 318.203 132.633 318.151 132.684C318.1 132.735 318.039 132.775 317.972 132.802C317.905 132.829 317.833 132.843 317.761 132.842Z" fill="white"/>
<path d="M136.218 163.624H125.815C125.242 163.624 124.69 163.417 124.258 163.043C123.826 162.668 123.544 162.151 123.463 161.585C122.821 156.867 122.821 152.084 123.463 147.366C123.543 146.808 123.819 146.296 124.243 145.922C124.666 145.548 125.209 145.338 125.775 145.328C129.048 143.863 132.573 143.864 136.254 145.328C136.597 145.332 136.934 145.411 137.243 145.56C137.552 145.709 137.824 145.923 138.041 146.188C138.268 146.464 138.43 146.786 138.515 147.132C138.601 147.478 138.609 147.838 138.537 148.187C137.702 152.338 137.702 156.614 138.537 160.764C138.609 161.113 138.601 161.474 138.515 161.82C138.43 162.166 138.268 162.488 138.041 162.764C137.821 163.033 137.542 163.25 137.227 163.399C136.912 163.548 136.567 163.625 136.218 163.624Z" fill="white"/>
<path d="M135.128 150.749H126.372C126.3 150.749 126.228 150.736 126.161 150.708C126.094 150.681 126.033 150.641 125.982 150.59C125.931 150.54 125.89 150.479 125.862 150.413C125.834 150.346 125.82 150.275 125.82 150.202C125.82 150.13 125.834 150.059 125.862 149.992C125.89 149.926 125.931 149.865 125.982 149.814C126.033 149.764 126.094 149.724 126.161 149.696C126.228 149.669 126.3 149.656 126.372 149.656H135.128C135.201 149.656 135.272 149.669 135.339 149.696C135.406 149.724 135.467 149.764 135.519 149.814C135.57 149.865 135.611 149.926 135.638 149.992C135.666 150.059 135.681 150.13 135.681 150.202C135.681 150.275 135.666 150.346 135.638 150.413C135.611 150.479 135.57 150.54 135.519 150.59C135.467 150.641 135.406 150.681 135.339 150.708C135.272 150.736 135.201 150.749 135.128 150.749Z" fill="white"/>
<path d="M135.128 155.118H126.372C126.3 155.119 126.228 155.105 126.161 155.078C126.094 155.051 126.033 155.011 125.982 154.96C125.931 154.909 125.89 154.849 125.862 154.782C125.834 154.716 125.82 154.644 125.82 154.572C125.82 154.5 125.834 154.429 125.862 154.362C125.89 154.295 125.931 154.235 125.982 154.184C126.033 154.133 126.094 154.093 126.161 154.066C126.228 154.039 126.3 154.025 126.372 154.026H135.128C135.201 154.025 135.272 154.039 135.339 154.066C135.406 154.093 135.467 154.133 135.519 154.184C135.57 154.235 135.611 154.295 135.638 154.362C135.666 154.429 135.681 154.5 135.681 154.572C135.681 154.644 135.666 154.716 135.638 154.782C135.611 154.849 135.57 154.909 135.519 154.96C135.467 155.011 135.406 155.051 135.339 155.078C135.272 155.105 135.201 155.119 135.128 155.118Z" fill="white"/>
<path d="M135.128 159.488H126.372C126.3 159.489 126.228 159.475 126.161 159.448C126.094 159.421 126.033 159.381 125.982 159.33C125.931 159.279 125.89 159.219 125.862 159.152C125.834 159.085 125.82 159.014 125.82 158.942C125.82 158.87 125.834 158.798 125.862 158.732C125.89 158.665 125.931 158.605 125.982 158.554C126.033 158.503 126.094 158.463 126.161 158.436C126.228 158.409 126.3 158.395 126.372 158.396H135.128C135.201 158.395 135.273 158.409 135.34 158.436C135.407 158.463 135.467 158.503 135.519 158.554C135.57 158.605 135.611 158.665 135.639 158.732C135.667 158.798 135.681 158.87 135.681 158.942C135.681 159.014 135.667 159.085 135.639 159.152C135.611 159.219 135.57 159.279 135.519 159.33C135.467 159.381 135.407 159.421 135.34 159.448C135.273 159.475 135.201 159.489 135.128 159.488Z" fill="white"/>
<path d="M372.259 221.81C372.763 221.513 373.195 221.11 373.525 220.629C373.855 220.147 374.076 219.599 374.171 219.023C374.266 218.448 374.234 217.858 374.076 217.296C373.918 216.734 373.639 216.214 373.258 215.771L380.402 203.508L373.028 203.923L367.374 215.504C366.672 216.193 366.247 217.114 366.18 218.095C366.113 219.075 366.408 220.046 367.011 220.823C367.613 221.6 368.48 222.13 369.447 222.312C370.414 222.494 371.415 222.315 372.259 221.81Z" fill="#FFB6B6"/>
<path d="M375.142 212.794L368.54 207.662L380.536 184.46L376.041 154.912C375.819 153.451 375.922 151.96 376.342 150.543C376.763 149.127 377.49 147.82 378.473 146.716C379.457 145.612 380.671 144.737 382.031 144.154C383.391 143.571 384.863 143.294 386.343 143.342C389.014 143.433 391.541 144.578 393.368 146.526C395.195 148.474 396.174 151.066 396.088 153.732L394.978 187.377L375.142 212.794Z" fill="#CCCCCC"/>
<path d="M56.055 206.455C56.4708 206.038 56.79 205.535 56.9899 204.981C57.1899 204.428 57.2658 203.837 57.2123 203.251C57.1588 202.665 56.9773 202.098 56.6805 201.59C56.3836 201.081 55.9787 200.644 55.4942 200.309L61.9149 168.479L54.8245 170.751L49.685 201.539C49.1747 202.388 48.9943 203.395 49.178 204.369C49.3618 205.342 49.897 206.215 50.6821 206.821C51.4673 207.427 52.4479 207.724 53.4382 207.657C54.4284 207.589 55.3595 207.162 56.055 206.455Z" fill="#9E616A"/>
<path d="M65.5355 139.112L61.1362 135.797C61.1362 135.797 57.2554 135.523 56.5681 142.508C55.8807 149.493 54.4694 163.106 54.4694 163.106L47.7376 194.225L57.0562 196.267L64.2664 162.684L68.5918 152.711L65.5355 139.112Z" fill="#CCCCCC"/>
<path d="M58.2828 189.926L83.0729 189.513L85.1389 172.606H58.2828V189.926Z" fill="#9E616A"/>
<path d="M80.5937 293.968H86.3166L89.0391 271.936L80.5925 271.936L80.5937 293.968Z" fill="#9E616A"/>
<path d="M44.7407 294.497L50.4636 294.456L53.0314 272.406L45.5884 274.111L44.7407 294.497Z" fill="#9E616A"/>
<path d="M62.6399 158.046L61.3433 161.41L61.6024 164.776L86.981 173.549L85.722 158.822L82.869 155.457L62.6399 158.046Z" fill="#FFB6B6"/>
<path d="M73.5276 127.764C78.5337 127.764 82.5918 123.713 82.5918 118.717C82.5918 113.72 78.5337 109.67 73.5276 109.67C68.5216 109.67 64.4634 113.72 64.4634 118.717C64.4634 123.713 68.5216 127.764 73.5276 127.764Z" fill="#9E616A"/>
<path d="M79.1743 291.15L88.2211 290.611V294.48L96.8221 300.409C97.2469 300.701 97.5669 301.122 97.7352 301.609C97.9036 302.096 97.9115 302.624 97.7579 303.116C97.6042 303.608 97.2971 304.038 96.8812 304.343C96.4654 304.649 95.9626 304.814 95.4463 304.813H84.6758L82.8194 300.987L82.0945 304.813H78.0336L79.1743 291.15Z" fill="#2F2E41"/>
<path d="M42.783 291.693L51.8258 291.09L51.8529 294.959L60.4953 300.827C60.9222 301.117 61.2451 301.536 61.4168 302.022C61.5886 302.507 61.6002 303.035 61.45 303.528C61.2999 304.021 60.9957 304.454 60.582 304.762C60.1683 305.07 59.6667 305.238 59.1504 305.242L48.3802 305.317L46.4969 301.504L45.799 305.335L41.7381 305.364L42.783 291.693Z" fill="#2F2E41"/>
<path d="M42.9599 277.605L47.1272 244.359L52.0852 209.307C48.4543 202.577 56.63 181.678 56.63 181.678L57.7841 181.734L83.9048 186.652L83.8991 186.627C89.2417 201.171 91.0117 208.355 90.7189 223.843L89.6664 279.518H89.9966C90.5445 279.518 91.0699 279.735 91.4574 280.121C91.8448 280.508 92.0625 281.033 92.0625 281.579C92.0625 282.126 91.8448 282.651 91.4574 283.037C91.0699 283.424 90.5445 283.641 89.9966 283.641H79.6674C79.3958 283.642 79.1268 283.589 78.8757 283.485C78.6247 283.382 78.3965 283.23 78.2043 283.039C78.0121 282.847 77.8596 282.62 77.7556 282.369C77.6516 282.119 77.598 281.85 77.598 281.579C77.598 281.308 77.6516 281.04 77.7556 280.79C77.8596 280.539 78.0121 280.312 78.2043 280.12C78.3965 279.929 78.6247 279.777 78.8757 279.673C79.1268 279.57 79.3958 279.517 79.6674 279.518H79.9337L70.4528 213.226L62.4144 241.06L53.3247 277.349C56.63 276.524 56.1168 278.435 56.1168 279.518C56.1168 280.064 55.8992 280.589 55.5117 280.975C55.1243 281.362 54.5989 281.579 54.051 281.579H43.7218C43.2414 281.58 42.7758 281.413 42.4054 281.108C42.035 280.802 41.783 280.378 41.6927 279.907C41.6024 279.436 41.6796 278.948 41.911 278.528C42.1423 278.108 42.5132 277.781 42.9599 277.605Z" fill="#2F2E41"/>
<path d="M54.5962 182.761L55.4225 174.513C55.5084 174.177 55.6987 173.876 55.9663 173.654C56.2339 173.433 56.5649 173.301 56.9121 173.278C57.2564 169.35 58.7049 152.4 58.7915 151.661L58.7949 151.63L59.4536 137.586C59.4775 137.075 59.6888 136.592 60.0473 136.228C60.4057 135.863 60.886 135.643 61.3965 135.61L64.8757 135.383C64.9234 135.382 64.9687 135.361 65.0019 135.327C65.0351 135.293 65.0536 135.247 65.0536 135.199C65.0536 134.816 65.1293 134.436 65.2763 134.082C65.4234 133.728 65.6389 133.406 65.9106 133.135C66.1823 132.863 66.5048 132.648 66.8598 132.502C67.2147 132.355 67.5952 132.279 67.9794 132.279H78.2802C78.9474 132.28 79.5915 132.523 80.0918 132.964C80.592 133.404 80.9139 134.012 80.997 134.673C81.0016 134.718 81.0232 134.76 81.0575 134.79C81.0918 134.821 81.1363 134.837 81.1821 134.836H81.1833C82.3538 134.812 83.4941 135.207 84.3974 135.951C85.3006 136.694 85.907 137.736 86.1064 138.887C87.5147 147.065 90.3369 165.626 88.9415 175.944C88.4558 179.536 89.5029 176.691 89.6866 179.697C89.7049 179.987 89.6655 180.278 89.5708 180.553C89.4761 180.829 89.3279 181.083 89.1348 181.301C89.5302 181.444 89.8531 181.737 90.0331 182.117C90.2132 182.497 90.2361 182.932 90.0967 183.328L90.2777 183.283C90.2247 183.493 90.1307 183.691 90.0012 183.865C89.8716 184.038 89.709 184.185 89.5227 184.296C89.3364 184.407 89.13 184.48 88.9152 184.512C88.7005 184.543 88.4816 184.532 88.2712 184.479L61.3219 188.124C60.4368 187.901 54.3731 183.644 54.5962 182.761Z" fill="#CCCCCC"/>
<path d="M126.608 149.228C126.44 149.792 126.149 150.312 125.757 150.752C125.365 151.191 124.881 151.54 124.34 151.772C123.798 152.005 123.212 152.117 122.623 152.099C122.034 152.081 121.456 151.935 120.929 151.67L110.511 161.16L109.127 153.856L119.24 145.988C119.744 145.135 120.545 144.496 121.489 144.192C122.434 143.889 123.458 143.942 124.366 144.341C125.274 144.741 126.004 145.459 126.418 146.36C126.831 147.26 126.899 148.281 126.608 149.228Z" fill="#9E616A"/>
<path d="M90.3462 141.975C90.3462 141.975 86.7134 133.781 82.125 135.41C77.5367 137.038 79.9058 144.989 79.9058 144.989L97.1442 170.915C97.1442 170.915 122.008 154.995 118.985 154.883C115.961 154.77 115.057 149.282 115.057 149.282L101.916 155.835L101.471 153.502L100.759 154.214L98.9195 152.769L90.3462 141.975Z" fill="#CCCCCC"/>
<path d="M387.522 132.973C394.512 132.973 400.177 127.318 400.177 120.343C400.177 113.367 394.512 107.712 387.522 107.712C380.533 107.712 374.868 113.367 374.868 120.343C374.868 127.318 380.533 132.973 387.522 132.973Z" fill="#FFB6B6"/>
<path d="M428.136 138.928C426.676 140.994 424.544 142.492 422.104 143.168C421.127 143.458 420.118 143.629 419.1 143.677C418.975 142.528 418.674 141.405 418.208 140.347C418.255 141.473 418.098 142.598 417.744 143.669C416.216 143.582 414.721 143.183 413.354 142.495C412.011 141.821 410.844 140.843 409.945 139.64C409.047 138.437 408.442 137.042 408.177 135.565C407.641 132.11 409.211 128.718 409.778 125.268C410.348 121.819 409.278 117.45 405.895 116.543C403.319 115.852 403.607 116.151 401.466 117.738C403.694 121.026 395.464 133.075 392.096 132.024C390.192 131.43 388.973 129.686 388.58 129.686C385.934 134.237 390.918 141.905 385.895 143.498L386.308 143.085C389.34 139.362 383.003 131.484 386.035 127.762C386.881 126.72 387.781 125.486 387.532 124.169C387.295 122.917 385.304 122.255 384.721 123.284C385.77 120.886 384.221 117.686 381.658 117.07C379.381 116.522 379.422 117.198 377.137 117.491C376.988 116.505 376.709 115.544 376.307 114.631C376.349 115.615 376.234 116.598 375.966 117.546C375.159 117.53 374.379 117.249 373.749 116.746C371.885 115.247 372.263 112.099 373.926 110.382C375.591 108.665 378.066 108.046 380.427 107.646C381.113 102.877 394.297 102.38 396.045 107.145C396.789 103.586 401.252 101.74 404.721 102.844C408.191 103.948 410.598 107.182 411.865 110.589C413.133 113.995 413.487 117.66 414.267 121.208C415.048 124.756 416.368 128.37 419.085 130.788C421.802 133.203 426.229 134.004 429.091 131.759C429.508 132.945 429.638 134.212 429.472 135.458C429.306 136.703 428.849 137.892 428.136 138.928Z" fill="#2F2E41"/>
<path d="M546.863 167.752L545.091 176.624C544.958 177.302 544.818 177.992 544.667 178.677C543.186 178.37 541.65 178.456 540.213 178.925C541.353 180.551 542.375 182.257 543.271 184.03C542.155 187.464 540.516 190.637 537.774 192.932C535.942 194.431 533.754 195.433 531.422 195.843C529.089 196.252 526.69 196.055 524.456 195.27L524.535 194.918C521.586 189.208 523.188 182.007 526.852 176.733C528.722 174.13 530.936 171.794 533.436 169.787C535.911 167.728 538.587 165.881 541.238 164.058C541.834 163.649 542.538 163.427 543.261 163.419C543.983 163.412 544.692 163.62 545.296 164.016C545.9 164.413 546.371 164.98 546.65 165.645C546.929 166.311 547.003 167.044 546.863 167.752Z" fill="#E4E4E4"/>
<path d="M525.087 216.616C524.341 211.195 523.574 205.704 524.097 200.224C524.562 195.357 526.049 190.604 529.078 186.707C530.685 184.642 532.642 182.872 534.858 181.478C535.437 181.115 535.968 182.029 535.393 182.391C531.557 184.81 528.591 188.383 526.921 192.593C525.076 197.276 524.78 202.38 525.101 207.354C525.293 210.362 525.7 213.349 526.111 216.335C526.144 216.47 526.124 216.612 526.055 216.733C525.986 216.854 525.874 216.944 525.741 216.985C525.605 217.022 525.461 217.003 525.339 216.934C525.217 216.865 525.127 216.751 525.089 216.616L525.087 216.616Z" fill="#F2F2F2"/>
<path d="M567.278 305.814L0.722436 306C0.531193 305.999 0.347976 305.923 0.212942 305.788C0.0779086 305.653 0.0020752 305.47 0.0020752 305.279C0.0020752 305.088 0.0779086 304.905 0.212942 304.77C0.347976 304.635 0.531193 304.558 0.722436 304.558L567.278 304.372C567.469 304.372 567.652 304.449 567.787 304.584C567.922 304.719 567.998 304.902 567.998 305.093C567.998 305.284 567.922 305.467 567.787 305.602C567.652 305.737 567.469 305.813 567.278 305.814Z" fill="#CACACA"/>
<path d="M62.8595 113.178C61.4693 113.843 59.9132 112.842 58.713 111.849L59.1423 112.219C57.0211 114.279 56.0293 117.242 55.5448 120.16C55.0597 123.074 55.0056 126.054 54.3949 128.948C53.7836 131.838 52.5157 134.742 50.1475 136.513C46.9748 138.884 42.5989 138.731 38.7054 138.005C38.6535 137.994 38.6052 137.986 38.5533 137.976C39.6009 134.957 40.0268 131.757 39.8054 128.57C38.7617 131.764 36.985 134.671 34.6168 137.058C32.0354 136.349 29.5156 135.433 27.0823 134.318C25.5079 133.595 23.8126 132.606 23.3756 130.931C22.9375 129.269 23.9548 127.526 25.3151 126.477C26.6753 125.427 28.3448 124.88 29.8944 124.132C31.4415 123.388 32.9725 122.327 33.5919 120.725C35.0207 117.041 30.9506 112.813 32.5368 109.192C33.319 107.411 35.2349 106.442 37.0356 105.695C39.7847 104.558 42.6076 103.607 45.4851 102.85C48.0111 102.185 50.6486 101.669 53.2219 102.105C55.7952 102.54 58.3162 104.103 59.2424 106.542C60.7877 107.063 62.4283 107.65 63.42 108.949C64.4113 110.244 64.3314 112.474 62.8595 113.178Z" fill="#2F2E41"/>
<path d="M75.2289 108.908C71.252 105.775 68.0365 106.31 65.5559 108.256C65.1389 107.793 63.3643 109.067 62.7634 108.884L60.5901 112.956C59.4717 114.926 59.0129 116.936 59.1937 118.068C57.1366 123.826 62.0148 127.714 67.7838 129.767C70.0857 130.592 72.5974 130.628 74.9223 129.87L74.9932 128.889L75.4301 129.693C75.4301 129.693 80.704 140.532 81.9502 141.018C81.1941 139.061 79.1996 129.755 78.6429 127.816C77.8795 125.177 78.401 120.984 78.8496 118.413C79.1293 116.829 79.1439 115.208 78.8929 113.619L78.8818 113.549L80.1158 116.036L82.8844 114.298C81.8262 111.222 81.8051 107.542 75.2289 108.908Z" fill="#2F2E41"/>
</g>
<defs>
<clipPath id="clip0_347_734">
<rect width="568" height="306" fill="white"/>
</clipPath>
</defs>
</svg>
