<svg width="440" height="438" viewBox="0 0 440 438" fill="none" xmlns="http://www.w3.org/2000/svg">
<g clip-path="url(#clip0_347_889)">
<path d="M304.057 436.897H179.209C160.483 436.897 145.249 420.172 145.249 399.614V37.2828C145.249 16.7251 160.483 0 179.209 0H304.057C322.783 0 338.017 16.7251 338.017 37.2828C340.341 182.784 344.305 345.722 338.017 399.614C338.017 420.172 322.783 436.897 304.057 436.897Z" fill="#3F3D56"/>
<path d="M339.758 133.277C338.966 133.277 338.322 133.985 338.322 134.854V185.326C338.322 186.196 338.966 186.904 339.758 186.904C340.551 186.904 341.195 186.196 341.195 185.326V134.854C341.195 133.985 340.551 133.277 339.758 133.277Z" fill="#3F3D56"/>
<path d="M334.785 37.2831V399.608C334.785 417.501 322.099 432.138 306.059 433.274H306.051C305.814 433.29 305.577 433.305 305.333 433.313C304.909 433.337 304.485 433.345 304.054 433.345C304.054 433.345 302.474 433.219 299.586 432.982C296.67 432.745 292.425 432.391 287.13 431.925C285.543 431.791 283.869 431.641 282.102 431.484C278.582 431.168 274.717 430.821 270.572 430.427C268.92 430.277 267.211 430.111 265.465 429.946C256.543 429.102 246.551 428.116 236.013 426.996C234.232 426.815 232.436 426.626 230.625 426.429C230.151 426.373 148.482 403.835 148.482 399.608V37.2831C148.482 18.648 162.238 3.54584 179.212 3.54584H197.559C200.49 3.54584 202.846 6.05365 203.097 9.26335C203.119 9.47629 203.14 9.68919 203.176 9.90214C203.708 13.1276 206.402 15.3752 209.39 15.3752H273.877C276.865 15.3752 279.559 13.1276 280.091 9.90214C280.126 9.6892 280.148 9.4763 280.17 9.26335C280.421 6.05366 282.777 3.54584 285.708 3.54584H304.054C321.029 3.54584 334.785 18.648 334.785 37.2831Z" fill="white"/>
<path d="M144.531 95.4234C143.738 95.4234 143.094 96.1307 143.094 97.0006V109.619C143.094 110.488 143.738 111.196 144.531 111.196C145.323 111.196 145.967 110.488 145.967 109.619V97.0006C145.967 96.1308 145.323 95.4234 144.531 95.4234Z" fill="#3F3D56"/>
<path d="M144.531 133.277C143.738 133.277 143.094 133.985 143.094 134.854V159.302C143.094 160.172 143.738 160.879 144.531 160.879C145.323 160.879 145.967 160.172 145.967 159.302V134.854C145.967 133.985 145.323 133.277 144.531 133.277Z" fill="#3F3D56"/>
<path d="M144.531 167.977C143.738 167.977 143.094 168.684 143.094 169.554V194.001C143.094 194.871 143.738 195.578 144.531 195.578C145.323 195.578 145.967 194.871 145.967 194.001V169.554C145.967 168.684 145.323 167.977 144.531 167.977Z" fill="#3F3D56"/>
<path d="M197.087 9.06927H169.555C169.422 9.06927 169.313 9.18802 169.313 9.3345V12.7472C169.313 12.8936 169.422 13.0124 169.555 13.0124H197.087C197.221 13.0124 197.329 12.8936 197.329 12.7472V9.3345C197.329 9.18802 197.221 9.06927 197.087 9.06927Z" fill="#E6E6E6"/>
<path d="M290.248 13.0124C291.835 13.0124 293.121 11.6001 293.121 9.85792C293.121 8.11574 291.835 6.70343 290.248 6.70343C288.661 6.70343 287.374 8.11574 287.374 9.85792C287.374 11.6001 288.661 13.0124 290.248 13.0124Z" fill="#E6E6E6"/>
<path d="M298.149 13.0124C299.736 13.0124 301.023 11.6001 301.023 9.85792C301.023 8.11574 299.736 6.70343 298.149 6.70343C296.563 6.70343 295.276 8.11574 295.276 9.85792C295.276 11.6001 296.563 13.0124 298.149 13.0124Z" fill="#E6E6E6"/>
<path d="M306.051 13.0124C307.638 13.0124 308.925 11.6001 308.925 9.85792C308.925 8.11574 307.638 6.70343 306.051 6.70343C304.464 6.70343 303.178 8.11574 303.178 9.85792C303.178 11.6001 304.464 13.0124 306.051 13.0124Z" fill="#E6E6E6"/>
<path d="M11.1477 436.983C11.1477 437.547 11.5605 438 12.0745 438H439.073C439.587 438 440 437.547 440 436.983C440 436.418 439.587 435.965 439.073 435.965H12.0745C11.5605 435.965 11.1477 436.418 11.1477 436.983Z" fill="#CCCCCC"/>
<path d="M147.294 430.3L138.537 430.299L134.372 393.22L147.296 393.221L147.294 430.3Z" fill="#FFB6B6"/>
<path d="M117.293 430.082C117.021 430.586 116.877 432.213 116.877 432.8C116.877 434.601 118.207 436.062 119.849 436.062H146.966C148.086 436.062 148.994 435.066 148.994 433.836V432.597C148.994 432.597 150.335 428.872 147.573 424.28C147.573 424.28 144.141 427.876 139.011 422.244L137.499 419.236L126.55 428.027L120.481 428.847C119.153 429.027 117.976 428.819 117.293 430.082Z" fill="#2F2E41"/>
<path d="M98.8693 378.798L90.1129 378.767L86.0547 341.673L98.9783 341.719L98.8693 378.798Z" fill="#FFB6B6"/>
<path d="M68.8695 378.476C68.5954 378.979 68.4468 380.605 68.4451 381.191C68.4399 382.993 69.7663 384.459 71.4077 384.465L98.5252 384.559C99.6449 384.563 100.556 383.57 100.559 382.34L100.563 381.101C100.563 381.101 101.915 377.38 99.1663 372.779C99.1663 372.779 95.7233 376.362 90.6104 370.714L89.1065 367.7L78.1322 376.453L72.061 377.252C70.7328 377.427 69.5561 377.215 68.8695 378.476Z" fill="#2F2E41"/>
<path d="M134.523 205.194L123.62 206.049C123.62 206.049 86.7088 229.088 83.5937 234.218C80.4786 239.348 76.1952 246.615 80.0892 254.31C83.9831 262.005 81.0195 355.173 81.0195 355.173L99.6267 350.552L111.549 253.072L136.47 249.225C136.47 249.225 145.036 269.515 141.921 286.302C138.806 303.088 137.248 313.348 137.248 313.348L133.354 412.525L148.541 412.098L162.169 320.188L185.533 247.515L155.16 208.186L134.523 205.194Z" fill="#2F2E41"/>
<path d="M188.259 100.032L165.674 102.597L163.338 111.147L141.532 123.971L148.541 177.835L143.089 187.239L145.426 196.644C145.426 196.644 139.195 197.499 139.974 202.629L125.956 205.194C125.956 205.194 144.549 209.361 148.492 229.934C152.435 250.507 185.143 253.072 185.143 253.072L210.843 165.01L213.18 112.857L195.268 107.727L188.259 100.032Z" fill="#E6E6E6"/>
<path d="M176.356 96.7877C186.052 96.7877 193.913 88.1582 193.913 77.5132C193.913 66.8681 186.052 58.2386 176.356 58.2386C166.66 58.2386 158.799 66.8681 158.799 77.5132C158.799 88.1582 166.66 96.7877 176.356 96.7877Z" fill="#FFB6B6"/>
<path d="M167.231 94.9021C167.231 94.9021 151.656 94.0471 153.213 80.3676C149.358 65.8003 152.771 56.3419 164.895 53.0084C164.895 53.0084 168.01 52.1534 168.789 52.1534C179.032 52.1534 184.365 55.5733 184.365 55.5733C184.365 55.5733 183.586 52.1871 184.365 53.0252C185.143 53.8634 185.922 55.5733 185.922 55.5733C185.922 55.5733 193.71 59.8482 193.71 68.3979C193.71 76.9477 193.71 73.5278 193.71 73.5278C193.71 73.5278 192.153 73.5278 190.595 68.3979C189.037 63.2681 178.953 66.688 178.953 66.688L179.692 68.3979L177.356 67.5429L175.019 70.1079L173.462 69.2529C173.462 69.2529 167.231 69.2529 168.01 69.2529C168.789 69.2529 168.246 75.0632 168.246 75.0632L162.559 82.0775L168.789 94.9021H167.231Z" fill="#2F2E41"/>
<path d="M84.2488 196.947C79.8149 199.603 77.4689 204.268 79.0088 207.366C80.5487 210.463 85.3914 210.821 89.8253 208.164C91.7662 207.001 93.3069 205.453 94.2968 203.821L112.956 192.305L107.847 182.807L89.9951 195.168C88.2088 195.199 86.1896 195.784 84.2488 196.947Z" fill="#FFB6B6"/>
<path d="M147.173 124.37C147.173 124.37 139.859 121.313 137.339 124.993C134.818 128.673 118.17 173.329 118.17 173.329L93.7448 187.334L100.613 200.465L132.066 188.969L152.818 147.303L147.173 124.37Z" fill="#E6E6E6"/>
<path d="M377.826 271.025V361.652C377.826 369.667 371.887 376.187 364.587 376.187H160.546C153.245 376.187 147.306 369.667 147.306 361.652V271.025C147.306 263.01 153.245 256.49 160.546 256.49H364.587C371.887 256.49 377.826 263.01 377.826 271.025Z" fill="white"/>
<path d="M377.826 271.025V361.652C377.826 369.667 371.887 376.187 364.587 376.187H160.546C153.245 376.187 147.306 369.667 147.306 361.652V271.025C147.306 263.01 153.245 256.49 160.546 256.49H364.587C371.887 256.49 377.826 263.01 377.826 271.025ZM364.587 374.477C371.038 374.477 376.268 368.735 376.268 361.652V315.962C376.268 284.061 352.712 258.2 323.654 258.2H160.546C154.094 258.2 148.864 263.942 148.864 271.025V361.652C148.864 368.735 154.094 374.477 160.546 374.477H364.587Z" fill="#3F3D56"/>
<path d="M238.899 311.244H212.249C211.577 311.244 211.03 311.844 211.03 312.582C211.03 313.319 211.577 313.92 212.249 313.92H238.899C239.571 313.92 240.118 313.319 240.118 312.582C240.118 311.844 239.571 311.244 238.899 311.244Z" fill="#029AA4"/>
<path d="M279.396 311.244H252.745C252.074 311.244 251.527 311.844 251.527 312.582C251.527 313.319 252.074 313.92 252.745 313.92H279.396C280.068 313.92 280.614 313.319 280.614 312.582C280.614 311.844 280.068 311.244 279.396 311.244Z" fill="#029AA4"/>
<path d="M238.899 325.87H212.249C211.577 325.87 211.03 326.469 211.03 327.207C211.03 327.945 211.577 328.545 212.249 328.545H238.899C239.571 328.545 240.118 327.945 240.118 327.207C240.118 326.469 239.571 325.87 238.899 325.87Z" fill="#029AA4"/>
<path d="M279.396 325.87H252.745C252.074 325.87 251.527 326.469 251.527 327.207C251.527 327.945 252.074 328.545 252.745 328.545H279.396C280.068 328.545 280.614 327.945 280.614 327.207C280.614 326.469 280.068 325.87 279.396 325.87Z" fill="#029AA4"/>
<path d="M321.111 327.207C321.111 326.469 320.564 325.87 319.893 325.87H293.242C292.57 325.87 292.024 326.469 292.024 327.207C292.024 327.945 292.57 328.545 293.242 328.545H319.893C320.564 328.545 321.111 327.945 321.111 327.207Z" fill="#029AA4"/>
<path d="M223.324 299.566C223.995 299.566 224.542 298.966 224.542 298.229C224.542 297.491 223.995 296.891 223.324 296.891H196.673C196.001 296.891 195.455 297.491 195.455 298.229C195.455 298.966 196.001 299.566 196.673 299.566H223.324Z" fill="#029AA4"/>
<path d="M301.809 299.022H328.459C329.131 299.022 329.678 298.422 329.678 297.685C329.678 296.947 329.131 296.347 328.459 296.347H301.809C301.137 296.347 300.59 296.947 300.59 297.685C300.59 298.422 301.137 299.022 301.809 299.022Z" fill="#029AA4"/>
<path d="M234.551 299.304H289.803C290.475 299.304 291.021 298.704 291.021 297.966C291.021 297.228 290.475 296.628 289.803 296.628H234.551C233.879 296.628 233.332 297.228 233.332 297.966C233.332 298.704 233.879 299.304 234.551 299.304Z" fill="#029AA4"/>
<path d="M256.29 339.157H229.639C228.967 339.157 228.421 339.757 228.421 340.495C228.421 341.232 228.967 341.832 229.639 341.832H256.29C256.962 341.832 257.508 341.232 257.508 340.495C257.508 339.757 256.962 339.157 256.29 339.157Z" fill="#029AA4"/>
<path d="M342.362 270.342V360.969C342.362 368.984 336.423 375.504 329.122 375.504H246.571C239.271 375.504 233.332 368.984 233.332 360.969V270.342C233.332 262.327 239.271 255.807 246.571 255.807H329.122C336.423 255.807 342.362 262.327 342.362 270.342Z" fill="white"/>
<path d="M342.362 270.342V360.969C342.362 368.984 336.423 375.504 329.122 375.504H246.571C239.271 375.504 233.332 368.984 233.332 360.969V270.342C233.332 262.327 239.271 255.807 246.571 255.807H329.122C336.423 255.807 342.362 262.327 342.362 270.342ZM324.001 373.794C333.281 373.794 340.804 365.535 340.804 355.347V315.278C340.804 283.378 317.248 257.517 288.19 257.517H246.571C240.12 257.517 234.89 263.259 234.89 270.342V348.324C234.89 362.391 245.276 373.794 258.089 373.794L324.001 373.794Z" fill="#3F3D56"/>
<path d="M298.836 292.821H272.185C271.514 292.821 270.967 292.221 270.967 291.483C270.967 290.745 271.514 290.146 272.185 290.146H298.836C299.508 290.146 300.054 290.745 300.054 291.483C300.054 292.221 299.508 292.821 298.836 292.821Z" fill="#029AA4"/>
<path d="M298.836 321.346H272.185C271.514 321.346 270.967 320.746 270.967 320.008C270.967 319.271 271.514 318.671 272.185 318.671H298.836C299.508 318.671 300.054 319.271 300.054 320.008C300.054 320.746 299.508 321.346 298.836 321.346Z" fill="#029AA4"/>
<path d="M285.597 360.675H258.946C258.274 360.675 257.728 360.075 257.728 359.337C257.728 358.599 258.274 357.999 258.946 357.999H285.597C286.268 357.999 286.815 358.599 286.815 359.337C286.815 360.075 286.268 360.675 285.597 360.675Z" fill="#029AA4"/>
<path d="M313.137 307.093H257.885C257.213 307.093 256.666 306.493 256.666 305.755C256.666 305.017 257.213 304.417 257.885 304.417H313.137C313.809 304.417 314.355 305.017 314.355 305.755C314.355 306.493 313.809 307.093 313.137 307.093Z" fill="#029AA4"/>
<path d="M326.829 220.123C326.829 191.851 305.063 176.299 280.201 168.933C248.324 159.489 224.979 178.599 233.572 220.123C235.52 229.534 240.178 240.526 245.944 249.928H291.701C306.985 239.003 326.829 242.067 326.829 220.123Z" fill="#029AA4"/>
<path d="M279.516 273.567C282.119 268.12 285.419 264.19 289.055 261.199H246.198C257.229 278.496 271.857 289.598 279.516 273.567Z" fill="#029AA4"/>
<path d="M274.571 189.857C277.322 189.857 279.553 192.306 279.553 195.327V206.265H269.589V195.327C269.589 192.306 271.82 189.857 274.571 189.857ZM282.043 206.265V195.327C282.043 190.796 278.698 187.123 274.571 187.123C270.444 187.123 267.098 190.796 267.098 195.327V206.265C264.347 206.265 262.117 208.713 262.117 211.734V225.407C262.117 228.427 264.347 230.876 267.098 230.876H282.043C284.795 230.876 287.025 228.427 287.025 225.407V211.734C287.025 208.713 284.795 206.265 282.043 206.265ZM267.098 208.999H282.043C283.419 208.999 284.534 210.224 284.534 211.734V225.407C284.534 226.917 283.419 228.141 282.043 228.141H267.098C265.723 228.141 264.607 226.917 264.607 225.407V211.734C264.607 210.224 265.723 208.999 267.098 208.999Z" fill="white"/>
<path d="M203.379 253.537C202.779 259.043 204.879 263.847 208.071 264.266C211.262 264.686 214.337 260.563 214.937 255.056C215.2 252.646 214.946 250.371 214.308 248.538L216.587 225.173L206.576 224.232L205.393 247.366C204.379 248.982 203.642 251.127 203.379 253.537Z" fill="#FFB6B6"/>
<path d="M205.781 114.139C205.781 114.139 216.684 110.719 219.02 115.849C221.357 120.979 226.808 188.522 226.808 188.522L216.295 242.436L204.224 238.965L210.454 184.247L201.887 143.208L205.781 114.139Z" fill="#E6E6E6"/>
<path d="M45.5588 278.157C70.7202 278.157 91.1175 255.764 91.1175 228.141C91.1175 200.518 70.7202 178.125 45.5588 178.125C20.3974 178.125 0 200.518 0 228.141C0 255.764 20.3974 278.157 45.5588 278.157Z" fill="#029AA4"/>
<path d="M45.5588 205.75C48.7771 205.75 51.386 208.614 51.386 212.147V224.942H39.7315V212.147C39.7315 208.614 42.3405 205.75 45.5588 205.75ZM54.2997 224.942V212.147C54.2997 206.848 50.3863 202.551 45.5588 202.551C40.7313 202.551 36.8178 206.848 36.8178 212.147V224.942C33.5995 224.942 30.9905 227.806 30.9905 231.34V247.333C30.9905 250.866 33.5995 253.731 36.8178 253.731H54.2997C57.518 253.731 60.127 250.866 60.127 247.333V231.34C60.127 227.806 57.518 224.942 54.2997 224.942ZM36.8178 228.141H54.2997C55.9088 228.141 57.2133 229.573 57.2133 231.34V247.333C57.2133 249.1 55.9089 250.532 54.2997 250.532H36.8178C35.2087 250.532 33.9042 249.1 33.9042 247.333V231.34C33.9042 229.573 35.2087 228.141 36.8178 228.141Z" fill="white"/>
</g>
<defs>
<clipPath id="clip0_347_889">
<rect width="440" height="438" fill="white"/>
</clipPath>
</defs>
</svg>
