<svg width="674" height="292" viewBox="0 0 674 292" fill="none" xmlns="http://www.w3.org/2000/svg">
<g clip-path="url(#clip0_347_1033)">
<path d="M607.968 120.459H212.528C210.849 120.459 209.239 121.125 208.052 122.31C206.865 123.496 206.198 125.104 206.198 126.781C206.198 128.458 206.865 130.066 208.052 131.252C209.239 132.438 210.849 133.104 212.528 133.104H223.729V284.36C223.729 286.037 224.396 287.645 225.584 288.831C226.771 290.016 228.381 290.682 230.06 290.682C231.739 290.682 233.35 290.016 234.537 288.831C235.724 287.645 236.391 286.037 236.391 284.36L236.487 133.104H553.868L583.131 284.36C583.131 286.037 583.798 287.645 584.985 288.831C586.173 290.016 587.783 290.682 589.462 290.682C591.141 290.682 592.751 290.016 593.939 288.831C595.126 287.645 595.793 286.037 595.793 284.36L597.635 133.104H607.968C609.647 133.104 611.257 132.438 612.444 131.252C613.632 130.066 614.299 128.458 614.299 126.781C614.299 125.104 613.632 123.496 612.444 122.31C611.257 121.125 609.647 120.459 607.968 120.459Z" fill="#CCCCCC"/>
<path d="M281.073 92.286V119.06H213.904C212.144 119.122 210.389 118.836 208.739 118.22C207.089 117.603 205.577 116.669 204.289 115.469C203.001 114.269 201.962 112.827 201.232 111.227C200.502 109.626 200.094 107.897 200.033 106.139C199.972 104.381 200.258 102.628 200.875 100.98C201.492 99.3328 202.428 97.8227 203.629 96.5364C204.831 95.25 206.274 94.2126 207.877 93.4833C209.48 92.754 211.211 92.3472 212.972 92.286C213.282 92.2752 213.593 92.2752 213.904 92.286L281.073 92.286Z" fill="#F2F2F2"/>
<path d="M282.723 118.855C282.722 119.128 282.614 119.389 282.42 119.583C282.227 119.776 281.965 119.884 281.691 119.884H212.708C208.963 119.882 205.372 118.394 202.725 115.749C200.078 113.103 198.591 109.516 198.591 105.776C198.591 102.036 200.078 98.4492 202.725 95.8037C205.372 93.1582 208.963 91.6707 212.708 91.6681H281.691C281.827 91.6677 281.961 91.6941 282.087 91.7457C282.212 91.7973 282.326 91.8731 282.422 91.9688C282.518 92.0644 282.594 92.1781 282.646 92.3032C282.698 92.4283 282.725 92.5624 282.725 92.6979C282.725 92.8333 282.698 92.9675 282.646 93.0926C282.594 93.2177 282.518 93.3314 282.422 93.427C282.326 93.5227 282.212 93.5985 282.087 93.6501C281.961 93.7017 281.827 93.728 281.691 93.7277H212.708C209.511 93.7325 206.447 95.004 204.189 97.263C201.93 99.5221 200.662 102.584 200.662 105.776C200.662 108.969 201.93 112.03 204.189 114.289C206.447 116.548 209.511 117.82 212.708 117.825H281.691C281.965 117.825 282.227 117.933 282.42 118.126C282.614 118.32 282.722 118.581 282.723 118.855Z" fill="#029AA4"/>
<path d="M281.073 98.4648H208.893C208.838 98.465 208.786 98.4437 208.747 98.4055C208.708 98.3672 208.686 98.3152 208.685 98.2607C208.685 98.2062 208.706 98.1538 208.744 98.1148C208.782 98.0758 208.834 98.0536 208.889 98.0529H281.073C281.127 98.0534 281.179 98.0753 281.217 98.1139C281.255 98.1525 281.277 98.2045 281.277 98.2588C281.277 98.3131 281.255 98.3651 281.217 98.4037C281.179 98.4423 281.127 98.4642 281.073 98.4648Z" fill="#CCCCCC"/>
<path d="M281.073 103.408H208.893C208.838 103.408 208.786 103.387 208.747 103.348C208.708 103.31 208.686 103.258 208.685 103.204C208.685 103.149 208.706 103.097 208.744 103.058C208.782 103.019 208.834 102.997 208.889 102.996H281.073C281.127 102.996 281.179 103.018 281.217 103.057C281.255 103.095 281.277 103.148 281.277 103.202C281.277 103.256 281.255 103.308 281.217 103.347C281.179 103.385 281.127 103.407 281.073 103.408Z" fill="#CCCCCC"/>
<path d="M281.073 108.351H208.893C208.838 108.351 208.786 108.33 208.747 108.291C208.708 108.253 208.686 108.201 208.685 108.147C208.685 108.092 208.706 108.04 208.744 108.001C208.782 107.962 208.834 107.94 208.889 107.939H281.073C281.127 107.939 281.179 107.961 281.217 108C281.255 108.038 281.277 108.091 281.277 108.145C281.277 108.199 281.255 108.251 281.217 108.29C281.179 108.328 281.127 108.35 281.073 108.351Z" fill="#CCCCCC"/>
<path d="M281.073 113.294H208.893C208.838 113.294 208.786 113.273 208.747 113.234C208.708 113.196 208.686 113.144 208.685 113.09C208.685 113.035 208.706 112.983 208.744 112.944C208.782 112.905 208.834 112.882 208.889 112.882H281.073C281.127 112.882 281.179 112.904 281.217 112.943C281.255 112.981 281.277 113.033 281.277 113.088C281.277 113.142 281.255 113.194 281.217 113.233C281.179 113.271 281.127 113.293 281.073 113.294Z" fill="#CCCCCC"/>
<path d="M268.411 64.0775V90.852H201.242C197.687 90.9755 194.228 89.6835 191.627 87.2603C189.026 84.837 187.495 81.481 187.371 77.9305C187.247 74.38 188.541 70.9258 190.968 68.3279C193.394 65.7299 196.754 64.201 200.31 64.0775C200.62 64.0667 200.931 64.0667 201.242 64.0775H268.411Z" fill="#F2F2F2"/>
<path d="M270.061 90.646C270.061 90.9191 269.952 91.181 269.759 91.3741C269.565 91.5672 269.303 91.6757 269.03 91.6758H200.046C196.299 91.6758 192.706 90.1895 190.057 87.5437C187.408 84.8979 185.919 81.3094 185.919 77.5677C185.919 73.826 187.408 70.2376 190.057 67.5918C192.706 64.946 196.299 63.4597 200.046 63.4597H269.03C269.165 63.4597 269.299 63.4863 269.424 63.538C269.549 63.5898 269.663 63.6656 269.759 63.7613C269.854 63.8569 269.93 63.9704 269.982 64.0954C270.034 64.2203 270.061 64.3542 270.061 64.4894C270.061 64.6247 270.034 64.7586 269.982 64.8835C269.93 65.0085 269.854 65.122 269.759 65.2176C269.663 65.3132 269.549 65.3891 269.424 65.4408C269.299 65.4926 269.165 65.5192 269.03 65.5192H200.046C196.846 65.5192 193.778 66.7886 191.515 69.0482C189.253 71.3077 187.982 74.3723 187.982 77.5678C187.982 80.7632 189.253 83.8278 191.515 86.0873C193.778 88.3469 196.846 89.6163 200.046 89.6163H269.03C269.303 89.6164 269.565 89.7249 269.759 89.918C269.952 90.1111 270.061 90.373 270.061 90.646Z" fill="#3F3D56"/>
<path d="M268.411 70.2562H196.231C196.176 70.2565 196.124 70.2352 196.085 70.1969C196.046 70.1587 196.024 70.1066 196.023 70.0521C196.023 69.9977 196.044 69.9452 196.082 69.9062C196.12 69.8673 196.172 69.845 196.227 69.8443H268.411C268.465 69.8448 268.517 69.8668 268.555 69.9053C268.594 69.9439 268.615 69.996 268.615 70.0502C268.615 70.1045 268.594 70.1566 268.555 70.1952C268.517 70.2337 268.465 70.2557 268.411 70.2562Z" fill="#CCCCCC"/>
<path d="M268.411 75.1992H196.231C196.176 75.1995 196.124 75.1782 196.085 75.14C196.046 75.1017 196.024 75.0496 196.023 74.9952C196.023 74.9407 196.044 74.8882 196.082 74.8493C196.12 74.8103 196.172 74.788 196.227 74.7873H268.411C268.465 74.7878 268.517 74.8098 268.555 74.8484C268.594 74.8869 268.615 74.939 268.615 74.9933C268.615 75.0475 268.594 75.0996 268.555 75.1382C268.517 75.1767 268.465 75.1987 268.411 75.1992Z" fill="#CCCCCC"/>
<path d="M268.411 80.1422H196.231C196.176 80.1425 196.124 80.1212 196.085 80.0829C196.046 80.0447 196.024 79.9926 196.023 79.9381C196.023 79.8836 196.044 79.8312 196.082 79.7922C196.12 79.7533 196.172 79.731 196.227 79.7303H268.411C268.465 79.7308 268.517 79.7528 268.555 79.7913C268.594 79.8299 268.615 79.882 268.615 79.9362C268.615 79.9905 268.594 80.0426 268.555 80.0811C268.517 80.1197 268.465 80.1416 268.411 80.1422Z" fill="#CCCCCC"/>
<path d="M268.411 85.0851H196.231C196.176 85.0854 196.124 85.0641 196.085 85.0259C196.046 84.9876 196.024 84.9355 196.023 84.8811C196.023 84.8266 196.044 84.7741 196.082 84.7352C196.12 84.6962 196.172 84.6739 196.227 84.6732H268.411C268.465 84.6738 268.517 84.6957 268.555 84.7343C268.594 84.7728 268.615 84.8249 268.615 84.8792C268.615 84.9334 268.594 84.9855 268.555 85.0241C268.517 85.0626 268.465 85.0846 268.411 85.0851Z" fill="#CCCCCC"/>
<path d="M346.548 215.202V191.857C346.548 190.825 346.138 189.836 345.407 189.106C344.676 188.376 343.685 187.966 342.652 187.966H254.019C252.986 187.966 251.995 188.376 251.264 189.106C250.534 189.836 250.123 190.825 250.123 191.857V215.202H346.548Z" fill="#CCCCCC"/>
<path d="M346.548 223.956H250.123V254.11H346.548V223.956Z" fill="#CCCCCC"/>
<path d="M250.123 262.865V286.21C250.123 287.242 250.534 288.231 251.264 288.961C251.995 289.691 252.986 290.101 254.019 290.101H342.652C343.685 290.101 344.676 289.691 345.407 288.961C346.138 288.231 346.548 287.242 346.548 286.21V262.865H250.123Z" fill="#CCCCCC"/>
<path d="M297.849 205.475C299.462 205.475 300.771 204.168 300.771 202.557C300.771 200.945 299.462 199.639 297.849 199.639C296.235 199.639 294.927 200.945 294.927 202.557C294.927 204.168 296.235 205.475 297.849 205.475Z" fill="white"/>
<path d="M297.849 244.383C299.462 244.383 300.771 243.077 300.771 241.465C300.771 239.854 299.462 238.547 297.849 238.547C296.235 238.547 294.927 239.854 294.927 241.465C294.927 243.077 296.235 244.383 297.849 244.383Z" fill="white"/>
<path d="M298.005 282.468C299.619 282.468 300.927 281.161 300.927 279.55C300.927 277.938 299.619 276.631 298.005 276.631C296.392 276.631 295.083 277.938 295.083 279.55C295.083 281.161 296.392 282.468 298.005 282.468Z" fill="white"/>
<path d="M335.616 161.348V188.123H268.448C264.894 188.244 261.438 186.951 258.838 184.528C256.239 182.105 254.709 178.75 254.586 175.201C254.462 171.653 255.754 168.2 258.178 165.602C260.603 163.004 263.961 161.474 267.514 161.348C267.825 161.338 268.136 161.338 268.448 161.348H335.616Z" fill="#F2F2F2"/>
<path d="M337.266 187.917C337.266 188.19 337.157 188.452 336.964 188.645C336.77 188.838 336.508 188.946 336.235 188.947H267.251C263.505 188.947 259.913 187.463 257.263 184.819C254.613 182.175 253.123 178.588 253.121 174.847C253.119 171.106 254.604 167.517 257.251 164.87C259.898 162.223 263.489 160.734 267.234 160.73H336.235C336.37 160.73 336.505 160.756 336.63 160.808C336.756 160.86 336.87 160.935 336.966 161.031C337.062 161.127 337.138 161.24 337.19 161.365C337.242 161.491 337.269 161.625 337.269 161.76C337.269 161.896 337.242 162.03 337.19 162.155C337.138 162.28 337.062 162.394 336.966 162.489C336.87 162.585 336.756 162.661 336.63 162.712C336.505 162.764 336.37 162.79 336.235 162.79H267.251C264.054 162.794 260.99 164.065 258.731 166.324C256.472 168.583 255.203 171.646 255.203 174.838C255.203 178.031 256.472 181.093 258.731 183.352C260.99 185.612 264.054 186.883 267.251 186.887H336.235C336.508 186.887 336.77 186.996 336.964 187.189C337.157 187.382 337.266 187.644 337.266 187.917Z" fill="#3F3D56"/>
<path d="M335.616 167.527H263.436C263.382 167.527 263.329 167.506 263.29 167.468C263.251 167.429 263.229 167.377 263.229 167.323C263.228 167.268 263.249 167.216 263.288 167.177C263.326 167.138 263.378 167.116 263.432 167.115H335.616C335.67 167.116 335.722 167.138 335.761 167.176C335.799 167.215 335.82 167.267 335.82 167.321C335.82 167.375 335.799 167.427 335.761 167.466C335.722 167.504 335.67 167.526 335.616 167.527Z" fill="#CCCCCC"/>
<path d="M335.616 172.47H263.436C263.382 172.47 263.329 172.449 263.29 172.411C263.251 172.373 263.229 172.32 263.229 172.266C263.228 172.211 263.249 172.159 263.288 172.12C263.326 172.081 263.378 172.059 263.432 172.058H335.616C335.67 172.059 335.722 172.081 335.761 172.119C335.799 172.158 335.82 172.21 335.82 172.264C335.82 172.318 335.799 172.37 335.761 172.409C335.722 172.448 335.67 172.469 335.616 172.47Z" fill="#CCCCCC"/>
<path d="M335.616 177.413H263.436C263.382 177.413 263.329 177.392 263.29 177.354C263.251 177.315 263.229 177.263 263.229 177.209C263.228 177.154 263.249 177.102 263.288 177.063C263.326 177.024 263.378 177.002 263.432 177.001H335.616C335.67 177.002 335.722 177.024 335.761 177.062C335.799 177.101 335.82 177.153 335.82 177.207C335.82 177.261 335.799 177.313 335.761 177.352C335.722 177.391 335.67 177.412 335.616 177.413Z" fill="#CCCCCC"/>
<path d="M335.616 182.356H263.436C263.382 182.356 263.329 182.335 263.29 182.297C263.251 182.258 263.229 182.206 263.229 182.152C263.228 182.097 263.249 182.045 263.288 182.006C263.326 181.967 263.378 181.945 263.432 181.944H335.616C335.67 181.945 335.722 181.966 335.761 182.005C335.799 182.044 335.82 182.096 335.82 182.15C335.82 182.204 335.799 182.256 335.761 182.295C335.722 182.333 335.67 182.355 335.616 182.356Z" fill="#CCCCCC"/>
<path d="M256.73 55.1456H226.128C225.837 55.1454 225.551 55.2119 225.29 55.3402L217.566 59.2018C217.312 59.3097 217.095 59.4899 216.943 59.7199C216.79 59.95 216.709 60.2197 216.709 60.4955C216.709 60.7713 216.79 61.041 216.943 61.2711C217.095 61.5011 217.312 61.6813 217.566 61.7892L225.29 65.6508C225.551 65.779 225.837 65.8456 226.128 65.8454H256.73C257.152 65.8697 257.566 65.7272 257.884 65.4486C258.201 65.1701 258.395 64.7779 258.425 64.3571V56.6338C258.395 56.213 258.201 55.8209 257.884 55.5423C257.566 55.2638 257.152 55.1213 256.73 55.1456Z" fill="#3F3D56"/>
<path d="M258.425 56.6339V64.3571C258.395 64.778 258.201 65.1701 257.884 65.4487C257.566 65.7273 257.152 65.8698 256.73 65.8454H250.633V55.1456H256.73C257.152 55.1213 257.566 55.2638 257.884 55.5424C258.201 55.8209 258.395 56.2131 258.425 56.6339Z" fill="#029AA4"/>
<path d="M73.2579 206.48C77.1984 207.863 81.4293 208.21 85.5428 207.486C89.6564 206.762 93.514 204.993 96.744 202.348C104.97 195.453 107.549 184.093 109.648 173.574C111.717 163.203 113.786 152.832 115.855 142.462L102.86 151.398C93.5143 157.824 83.9584 164.457 77.4877 173.765C71.017 183.073 68.1925 195.78 73.3915 205.852" fill="#E6E6E6"/>
<path d="M74.3686 244.148C73.0534 234.58 71.7009 224.889 72.6235 215.218C73.4429 206.63 76.0665 198.241 81.408 191.363C84.2433 187.719 87.6932 184.597 91.6028 182.137C92.6223 181.495 93.5606 183.108 92.5456 183.748C85.7809 188.018 80.5487 194.322 77.6033 201.753C74.3501 210.017 73.8277 219.025 74.3883 227.803C74.7273 233.111 75.4458 238.385 76.1699 243.652C76.2269 243.89 76.1913 244.141 76.0702 244.354C75.9491 244.567 75.7516 244.726 75.5175 244.799C75.2787 244.864 75.0242 244.831 74.8091 244.709C74.5941 244.587 74.4358 244.386 74.3686 244.148Z" fill="#F2F2F2"/>
<path d="M87.0374 227.217C88.7274 229.782 91.0504 231.87 93.7827 233.278C96.5149 234.686 99.5643 235.368 102.637 235.258C110.534 234.884 117.117 229.379 123.044 224.154L140.573 208.697L128.971 208.143C120.628 207.744 112.07 207.372 104.124 209.941C96.1776 212.511 88.849 218.695 87.396 226.909" fill="#E6E6E6"/>
<path d="M70.6515 249.648C76.9822 238.461 84.3253 226.028 97.446 222.054C101.094 220.953 104.92 220.559 108.716 220.892C109.913 220.995 109.614 222.837 108.42 222.734C102.056 222.207 95.7041 223.885 90.4341 227.486C85.3629 230.934 81.4144 235.726 78.0725 240.809C76.0254 243.922 74.1918 247.167 72.3578 250.408C71.7717 251.444 70.0586 250.696 70.6515 249.648Z" fill="#F2F2F2"/>
<path d="M60.5082 261.423C60.7215 258.955 61.6088 256.592 63.0737 254.593C64.5385 252.593 66.5246 251.034 68.8157 250.084V243.616H79.6773V250.287C81.8556 251.284 83.7303 252.84 85.1102 254.796C86.4902 256.753 87.326 259.039 87.5325 261.423L90.0865 291.073H57.9541L60.5082 261.423Z" fill="#F2F2F2"/>
<path d="M429.892 119.851L426.661 118.492L424.445 102.316H394.927L392.525 118.426L389.634 119.869C389.495 119.939 389.385 120.052 389.319 120.192C389.254 120.332 389.237 120.49 389.273 120.64C389.308 120.79 389.394 120.924 389.515 121.02C389.636 121.116 389.786 121.168 389.941 121.168H429.626C429.784 121.168 429.938 121.113 430.061 121.013C430.183 120.913 430.268 120.773 430.299 120.618C430.33 120.463 430.307 120.302 430.233 120.162C430.159 120.022 430.038 119.912 429.892 119.851Z" fill="#E6E6E6"/>
<path d="M482.347 104.468H337.349C336.588 104.466 335.859 104.163 335.322 103.625C334.784 103.087 334.483 102.359 334.483 101.599V81.1792H485.213V101.599C485.213 102.359 484.911 103.087 484.374 103.625C483.837 104.163 483.108 104.466 482.347 104.468Z" fill="#CCCCCC"/>
<path d="M485.365 90.83H334.35V3.45839C334.351 2.54147 334.717 1.66241 335.366 1.01407C336.015 0.365721 336.895 0.00102597 337.813 0H481.901C482.82 0.00102595 483.7 0.365722 484.349 1.01407C484.998 1.66241 485.364 2.54147 485.365 3.45839L485.365 90.83Z" fill="#3F3D56"/>
<path d="M476.345 84.4886H343.37C342.662 84.4878 341.983 84.2067 341.483 83.7068C340.982 83.207 340.701 82.5293 340.7 81.8224V9.00762C340.701 8.30072 340.982 7.62299 341.483 7.12313C341.983 6.62326 342.662 6.34209 343.37 6.34128H476.345C477.053 6.34209 477.731 6.62326 478.232 7.12313C478.732 7.62299 479.014 8.30072 479.015 9.00762V81.8224C479.014 82.5293 478.732 83.207 478.232 83.7068C477.731 84.2067 477.053 84.4878 476.345 84.4886Z" fill="white"/>
<path d="M441.321 110.181C442.18 109.389 443.202 108.795 444.315 108.44C445.429 108.085 446.606 107.979 447.766 108.127C448.925 108.276 450.037 108.677 451.024 109.302C452.012 109.927 452.85 110.76 453.48 111.743L471.466 108.55L476.075 118.992L450.611 123.146C448.887 124.093 446.875 124.376 444.957 123.941C443.038 123.506 441.345 122.383 440.2 120.785C439.055 119.186 438.537 117.224 438.743 115.27C438.95 113.316 439.867 111.505 441.321 110.181Z" fill="#FFB6B6"/>
<path d="M457.974 123.515L476.725 123.281L479.099 123.249L517.249 122.769C517.249 122.769 527.609 112.899 536.63 102.736L535.366 93.6029C534.132 84.6394 529.68 76.4287 522.837 70.4988C509.917 79.1207 502.425 96.1867 502.425 96.1867L478.77 101.837L476.404 102.402L461.706 105.91L457.974 123.515Z" fill="#029AA4"/>
<path d="M553.964 179.652H518.962C518.962 181.15 480.701 182.366 480.701 182.366C479.857 183.001 479.088 183.729 478.408 184.537C476.365 186.969 475.249 190.044 475.256 193.219V195.39C475.257 198.988 476.689 202.438 479.236 204.982C481.784 207.526 485.238 208.955 488.841 208.957H553.964C557.566 208.954 561.019 207.523 563.566 204.98C566.113 202.436 567.545 198.987 567.549 195.39V193.219C567.544 189.623 566.111 186.175 563.564 183.632C561.018 181.088 557.565 179.657 553.964 179.652Z" fill="#E4E4E4"/>
<path d="M528.511 208.418H514.383V289.858H528.511V208.418Z" fill="#E4E4E4"/>
<path d="M474.172 289.363C474.172 290.887 495.581 289.952 521.99 289.952C548.399 289.952 569.808 290.887 569.808 289.363C569.808 287.838 548.399 275.749 521.99 275.749C495.581 275.749 474.172 287.838 474.172 289.363Z" fill="#E4E4E4"/>
<path d="M464.682 280.057L454.167 280.057L449.165 239.553L464.683 239.554L464.682 280.057Z" fill="#FFB6B6"/>
<path d="M467.363 290.236L433.459 290.235V289.807C433.46 286.311 434.85 282.959 437.325 280.488C439.8 278.017 443.156 276.628 446.656 276.628H446.657L467.364 276.629L467.363 290.236Z" fill="#2F2E41"/>
<path d="M433.605 280.057L423.09 280.057L418.088 239.553L433.606 239.554L433.605 280.057Z" fill="#FFB6B6"/>
<path d="M436.286 290.236L402.383 290.235V289.807C402.383 286.311 403.773 282.959 406.248 280.488C408.723 278.017 412.079 276.628 415.579 276.628H415.58L436.287 276.629L436.286 290.236Z" fill="#2F2E41"/>
<path d="M527.793 46.8755C537.89 46.8755 546.075 38.7011 546.075 28.6175C546.075 18.5338 537.89 10.3594 527.793 10.3594C517.696 10.3594 509.511 18.5338 509.511 28.6175C509.511 38.7011 517.696 46.8755 527.793 46.8755Z" fill="#FFB6B6"/>
<path d="M557.382 153.715C557.382 153.715 563.516 186.109 540.176 190.234C516.837 194.359 483.146 197.258 483.146 197.258L468.016 267.755L447.689 265.942C447.689 265.942 450.393 181.08 457.041 174.441C463.689 167.802 505.707 147.922 505.707 147.922L557.382 153.715Z" fill="#2F2E41"/>
<path d="M511.798 140.138L501.591 150.365C501.591 150.365 427.885 162.221 425.042 179.222C420.749 204.89 415.679 260.706 415.679 260.706L437.839 259.046L446.529 195.598L481.985 187.544L522.324 165.589L511.798 140.138Z" fill="#2F2E41"/>
<path d="M545.385 17.7188C543.58 14.3183 541.287 7.54103 537.645 6.28411C535.622 5.61424 533.531 5.16944 531.411 4.95777L525.219 7.33596L528.589 4.71864C527.933 4.6796 527.277 4.64769 526.622 4.62291L522.444 6.22749L524.582 4.56739C520.687 4.52747 516.667 4.93188 513.649 7.29964C511.077 9.31814 508.528 16.9647 508.116 20.2059C507.675 23.3065 507.829 26.4626 508.57 29.5057L509.628 30.5104C509.998 29.6629 510.276 28.7784 510.458 27.8718C510.837 26.178 511.566 24.5816 512.597 23.1845C513.628 21.7873 514.939 20.62 516.447 19.757L516.505 19.7246C518.279 18.7273 520.432 18.7732 522.467 18.8464L532.131 19.1937C534.456 19.2772 536.959 19.4242 538.772 20.8807C539.924 21.9551 540.83 23.2656 541.427 24.7223C542.328 26.5378 544.088 33.3854 544.088 33.3854C544.088 33.3854 545.084 32.0929 545.561 33.0549C546.327 30.5448 546.792 27.9531 546.948 25.3339C547.1 22.7029 546.561 20.0779 545.385 17.7188Z" fill="#2F2E41"/>
<path d="M609.328 36.6356C608.161 36.7123 607.026 37.0434 606.002 37.6056C604.978 38.1679 604.09 38.9475 603.4 39.8897C602.71 40.8319 602.235 41.9137 602.009 43.0588C601.783 44.204 601.812 45.3847 602.092 46.5178L587.391 57.3481L591.802 67.8757L612.348 52.29C614.223 51.6933 615.813 50.4306 616.818 48.7411C617.823 47.0515 618.173 45.0525 617.8 43.1229C617.428 41.1933 616.36 39.4671 614.798 38.2715C613.237 37.0758 611.29 36.4937 609.328 36.6356Z" fill="#FFB6B6"/>
<path d="M606.962 58.7457L570.106 99.6238C570.106 99.6238 552.481 93.9891 538.851 87.8801L532.727 69.097C531.305 64.7396 530.698 60.158 530.937 55.5812C549.833 50.5596 571.811 69.2442 571.811 69.2442L599.399 47.6631L606.962 58.7457Z" fill="#029AA4"/>
<path d="M520.964 156.734C514.389 154.465 507.59 152.12 500.256 151.239L499.941 151.201L500.028 150.897C507.62 124.276 505.725 107.247 502.004 81.6677C501.213 76.1502 502.23 70.525 504.903 65.6319C507.575 60.7388 511.761 56.84 516.835 54.5176L516.88 54.4973L537.825 53.1681L537.873 53.1652L553.107 57.6396C555.298 58.288 557.216 59.6361 558.567 61.4773C559.918 63.3184 560.627 65.5512 560.586 67.8333C560.421 76.2457 560.771 85.6379 561.141 95.5813C561.972 117.889 562.832 140.956 557.954 155.923L557.929 156.001L557.864 156.052C553.38 159.699 547.762 161.67 541.979 161.624C535.141 161.624 528.164 159.217 520.964 156.734Z" fill="#029AA4"/>
<path d="M673.026 292H0.97399C0.715673 292 0.467937 291.897 0.285279 291.715C0.102621 291.533 0 291.285 0 291.027C0 290.769 0.102621 290.522 0.285279 290.339C0.467937 290.157 0.715673 290.055 0.97399 290.055H673.026C673.284 290.055 673.532 290.157 673.715 290.339C673.897 290.522 674 290.769 674 291.027C674 291.285 673.897 291.533 673.715 291.715C673.532 291.897 673.284 292 673.026 292Z" fill="#CCCCCC"/>
</g>
<defs>
<clipPath id="clip0_347_1033">
<rect width="674" height="292" fill="white"/>
</clipPath>
</defs>
</svg>
