<svg width="217" height="157" viewBox="0 0 217 157" fill="none" xmlns="http://www.w3.org/2000/svg">
<g clip-path="url(#clip0_347_607)">
<path d="M216.686 155.796H0.313584C0.230416 155.796 0.150655 155.763 0.0918463 155.704C0.033038 155.645 0 155.565 0 155.482C0 155.399 0.033038 155.319 0.0918463 155.26C0.150655 155.201 0.230416 155.168 0.313584 155.168H216.686C216.77 155.168 216.849 155.201 216.908 155.26C216.967 155.319 217 155.399 217 155.482C217 155.565 216.967 155.645 216.908 155.704C216.849 155.763 216.77 155.796 216.686 155.796Z" fill="#CCCCCC"/>
<path d="M195.27 101.02H67.955C67.4144 101.02 66.8959 101.235 66.5137 101.618C66.1314 102.001 65.9167 102.52 65.9167 103.062C65.9167 103.603 66.1314 104.123 66.5137 104.505C66.8959 104.888 67.4144 105.103 67.955 105.103H71.5612V153.942C71.5612 154.484 71.7759 155.003 72.1582 155.386C72.5405 155.769 73.0589 155.984 73.5995 155.984C74.1401 155.984 74.6585 155.769 75.0408 155.386C75.423 155.003 75.6378 154.484 75.6378 153.942L75.6688 105.103H187.274V153.942C187.274 154.484 187.488 155.003 187.871 155.386C188.253 155.769 188.771 155.984 189.312 155.984C189.853 155.984 190.371 155.769 190.753 155.386C191.135 155.003 191.35 154.484 191.35 153.942V106.18L191.943 105.103H195.27C195.811 105.103 196.329 104.888 196.711 104.505C197.094 104.123 197.308 103.603 197.308 103.062C197.308 102.52 197.094 102.001 196.711 101.618C196.329 101.235 195.811 101.02 195.27 101.02Z" fill="#CCCCCC"/>
<path d="M138.539 102.089H99.9744C99.2276 102.088 98.5117 101.79 97.9837 101.262C97.4557 100.733 97.1587 100.016 97.1578 99.2677V78.0018C97.1587 77.2539 97.4557 76.5369 97.9837 76.008C98.5117 75.4792 99.2276 75.1817 99.9744 75.1808H138.539C139.286 75.1817 140.002 75.4792 140.53 76.008C141.058 76.5369 141.355 77.2539 141.356 78.0018V99.2677C141.355 100.016 141.058 100.733 140.53 101.262C140.002 101.79 139.286 102.088 138.539 102.089Z" fill="#3F3D56"/>
<path d="M138.539 77.352H99.9746C99.8025 77.3523 99.6376 77.4209 99.516 77.5428C99.3943 77.6646 99.3259 77.8298 99.3255 78.0021V99.2683C99.3259 99.4406 99.3944 99.6057 99.516 99.7276C99.6376 99.8494 99.8025 99.918 99.9746 99.9184H138.539C138.711 99.918 138.876 99.8494 138.998 99.7276C139.119 99.6057 139.188 99.4406 139.188 99.2683V78.0021C139.188 77.8298 139.119 77.6646 138.998 77.5428C138.876 77.4209 138.711 77.3523 138.539 77.352Z" fill="white"/>
<path d="M122.546 92.4082C122.546 92.4082 117.929 91.3427 115.39 93.2961C112.851 95.2495 118.622 99.6891 118.622 99.6891L122.546 92.4082Z" fill="#2F2E41"/>
<path d="M119.483 90.395C121.888 90.395 123.838 88.4423 123.838 86.0334C123.838 83.6246 121.888 81.6718 119.483 81.6718C117.078 81.6718 115.128 83.6246 115.128 86.0334C115.128 88.4423 117.078 90.395 119.483 90.395Z" fill="#A0616A"/>
<path d="M116.116 79.9108C116.406 79.4171 116.827 79.0134 117.332 78.7443C117.837 78.4752 118.406 78.3511 118.978 78.3857C119.575 78.4607 120.158 78.6241 120.707 78.8706L123.554 79.9828C124.291 80.2706 125.097 80.6232 125.417 81.3475C125.714 82.0198 125.492 82.7963 125.268 83.4962L124.203 86.8233C124.085 86.0703 123.883 85.333 123.6 84.6255C123.312 83.9132 122.792 83.3195 122.124 82.9408C121.385 82.5609 120.513 82.5687 119.683 82.6088C118.508 82.6654 117.229 82.8152 116.394 83.6458C115.95 84.1175 115.65 84.7055 115.527 85.3416C115.406 85.9742 115.345 86.6169 115.345 87.2611C114.863 86.4311 114.457 85.5591 114.132 84.6557C113.864 83.9831 113.712 83.2701 113.681 82.5467C113.653 81.8172 113.895 81.1029 114.36 80.5407C114.596 80.266 114.904 80.0628 115.249 79.9539C115.594 79.8451 115.963 79.835 116.314 79.9248L116.116 79.9108Z" fill="#2F2E41"/>
<path d="M129.881 96.1903C129.84 96.043 129.757 95.9111 129.641 95.811C129.526 95.711 129.383 95.6474 129.232 95.6281C129.222 95.6211 129.211 95.6148 129.201 95.6093L122.7 91.9603C122.514 91.8561 122.295 91.8276 122.089 91.8807C121.883 91.9338 121.706 92.0645 121.593 92.2455L119.815 95.1287L117.137 92.4465L117.095 92.4039C116.957 92.2662 116.776 92.1815 116.582 92.1645C116.388 92.1476 116.195 92.1995 116.036 92.3111L110.693 96.0584C110.684 96.0584 110.674 96.0616 110.665 96.0616C110.409 96.1042 110.176 96.233 110.003 96.4266C109.83 96.6202 109.728 96.867 109.714 97.1263L109.577 99.9184H130.913L129.881 96.1903Z" fill="#029AA4"/>
<path d="M141.789 99.4847H137.673C137.673 99.3696 137.627 99.2592 137.546 99.1778C137.465 99.0964 137.354 99.0507 137.24 99.0507H135.94C135.825 99.0507 135.714 99.0964 135.633 99.1778C135.552 99.2592 135.506 99.3696 135.506 99.4847H134.206C134.206 99.3696 134.161 99.2592 134.079 99.1778C133.998 99.0964 133.888 99.0507 133.773 99.0507H132.473C132.358 99.0507 132.248 99.0964 132.167 99.1778C132.085 99.2592 132.04 99.3696 132.04 99.4847H130.74C130.74 99.3696 130.694 99.2592 130.613 99.1778C130.532 99.0964 130.421 99.0507 130.306 99.0507H129.007C128.892 99.0507 128.781 99.0964 128.7 99.1778C128.619 99.2592 128.573 99.3696 128.573 99.4847H127.273C127.273 99.3696 127.228 99.2592 127.146 99.1778C127.065 99.0964 126.955 99.0507 126.84 99.0507H125.54C125.425 99.0507 125.315 99.0964 125.234 99.1778C125.152 99.2592 125.107 99.3696 125.107 99.4847H123.807C123.807 99.3696 123.761 99.2592 123.68 99.1778C123.599 99.0964 123.488 99.0507 123.373 99.0507H122.073C121.959 99.0507 121.848 99.0964 121.767 99.1778C121.686 99.2592 121.64 99.3696 121.64 99.4847H120.34C120.34 99.3696 120.295 99.2592 120.213 99.1778C120.132 99.0964 120.022 99.0507 119.907 99.0507H118.607C118.492 99.0507 118.382 99.0964 118.301 99.1778C118.219 99.2592 118.174 99.3696 118.174 99.4847H116.874C116.874 99.3696 116.828 99.2592 116.747 99.1778C116.666 99.0964 116.555 99.0507 116.44 99.0507H115.14C115.026 99.0507 114.915 99.0964 114.834 99.1778C114.753 99.2592 114.707 99.3696 114.707 99.4847H113.407C113.407 99.3696 113.362 99.2592 113.28 99.1778C113.199 99.0964 113.089 99.0507 112.974 99.0507H111.674C111.559 99.0507 111.449 99.0964 111.367 99.1778C111.286 99.2592 111.241 99.3696 111.241 99.4847H109.941C109.941 99.3696 109.895 99.2592 109.814 99.1778C109.732 99.0964 109.622 99.0507 109.507 99.0507H108.207C108.092 99.0507 107.982 99.0964 107.901 99.1778C107.82 99.2592 107.774 99.3696 107.774 99.4847H106.474C106.474 99.3696 106.428 99.2592 106.347 99.1778C106.266 99.0964 106.156 99.0507 106.041 99.0507H104.741C104.626 99.0507 104.516 99.0964 104.434 99.1778C104.353 99.2592 104.308 99.3696 104.308 99.4847H103.008C103.008 99.3696 102.962 99.2592 102.881 99.1778C102.799 99.0964 102.689 99.0507 102.574 99.0507H101.274C101.159 99.0507 101.049 99.0964 100.968 99.1778C100.887 99.2592 100.841 99.3696 100.841 99.4847H96.7245C96.3801 99.4853 96.05 99.6227 95.8066 99.8668C95.5633 100.111 95.4266 100.442 95.4266 100.787C95.4266 101.132 95.5633 101.463 95.8066 101.707C96.05 101.951 96.3801 102.088 96.7245 102.089H141.789C142.134 102.089 142.465 101.952 142.709 101.707C142.952 101.463 143.089 101.132 143.089 100.787C143.089 100.441 142.952 100.11 142.709 99.8661C142.465 99.6219 142.134 99.4847 141.789 99.4847Z" fill="#3F3D56"/>
<path d="M90.0233 91.9236V100.569H68.3979C67.8185 100.589 67.241 100.492 66.6998 100.284C66.1585 100.076 65.6647 99.7608 65.2477 99.3574C64.8307 98.954 64.499 98.4706 64.2725 97.9361C64.046 97.4016 63.9293 96.8269 63.9293 96.2462C63.9293 95.6656 64.046 95.0909 64.2725 94.5564C64.499 94.0219 64.8307 93.5385 65.2477 93.1351C65.6647 92.7317 66.1585 92.4166 66.6998 92.2084C67.241 92.0003 67.8185 91.9034 68.3979 91.9236H90.0233Z" fill="#F2F2F2"/>
<path d="M90.5546 100.502C90.5545 100.591 90.5195 100.675 90.4573 100.737C90.395 100.8 90.3106 100.835 90.2226 100.835H68.0127C66.8065 100.835 65.6496 100.355 64.7967 99.5006C63.9437 98.6463 63.4645 97.4877 63.4645 96.2795C63.4645 95.0714 63.9437 93.9127 64.7967 93.0584C65.6496 92.2041 66.8065 91.7242 68.0127 91.7242H90.2226C90.3106 91.7242 90.395 91.7592 90.4573 91.8215C90.5196 91.8839 90.5546 91.9685 90.5546 92.0567C90.5546 92.1448 90.5196 92.2294 90.4573 92.2918C90.395 92.3541 90.3106 92.3892 90.2226 92.3892H68.0127C66.9832 92.3901 65.9961 92.8004 65.2684 93.5299C64.5408 94.2593 64.132 95.2483 64.132 96.2795C64.132 97.3107 64.5408 98.2997 65.2684 99.0292C65.9961 99.7586 66.9832 100.169 68.0127 100.17H90.2226C90.3106 100.17 90.395 100.205 90.4573 100.267C90.5195 100.33 90.5545 100.414 90.5546 100.502Z" fill="#029AA4"/>
<path d="M90.0234 93.9187H66.7844C66.7756 93.9188 66.7669 93.9171 66.7588 93.9138C66.7507 93.9105 66.7434 93.9056 66.7371 93.8994C66.7309 93.8932 66.726 93.8859 66.7226 93.8778C66.7193 93.8697 66.7175 93.861 66.7175 93.8522C66.7175 93.8434 66.7193 93.8348 66.7226 93.8267C66.726 93.8186 66.7309 93.8112 66.7371 93.805C66.7434 93.7988 66.7507 93.794 66.7588 93.7906C66.7669 93.7873 66.7756 93.7856 66.7844 93.7857H90.0234C90.0409 93.7858 90.0577 93.7929 90.07 93.8053C90.0824 93.8178 90.0893 93.8347 90.0893 93.8522C90.0893 93.8698 90.0824 93.8866 90.07 93.8991C90.0577 93.9115 90.0409 93.9186 90.0234 93.9187Z" fill="#CCCCCC"/>
<path d="M90.0234 95.5147H66.7844C66.7756 95.5148 66.7669 95.5131 66.7588 95.5098C66.7507 95.5065 66.7434 95.5016 66.7371 95.4954C66.7309 95.4893 66.726 95.4819 66.7226 95.4738C66.7193 95.4657 66.7175 95.457 66.7175 95.4482C66.7175 95.4395 66.7193 95.4308 66.7226 95.4227C66.726 95.4146 66.7309 95.4072 66.7371 95.4011C66.7434 95.3949 66.7507 95.39 66.7588 95.3867C66.7669 95.3834 66.7756 95.3817 66.7844 95.3817H90.0234C90.0409 95.3819 90.0577 95.3889 90.07 95.4014C90.0824 95.4138 90.0893 95.4307 90.0893 95.4482C90.0893 95.4658 90.0824 95.4826 90.07 95.4951C90.0577 95.5076 90.0409 95.5146 90.0234 95.5147Z" fill="#CCCCCC"/>
<path d="M90.0234 97.1108H66.7844C66.7756 97.1108 66.7669 97.1092 66.7588 97.1059C66.7507 97.1025 66.7434 97.0977 66.7371 97.0915C66.7309 97.0853 66.726 97.0779 66.7226 97.0698C66.7193 97.0617 66.7175 97.0531 66.7175 97.0443C66.7175 97.0355 66.7193 97.0268 66.7226 97.0187C66.726 97.0106 66.7309 97.0033 66.7371 96.9971C66.7434 96.9909 66.7507 96.986 66.7588 96.9827C66.7669 96.9794 66.7756 96.9777 66.7844 96.9778H90.0234C90.0409 96.9779 90.0577 96.985 90.07 96.9974C90.0824 97.0099 90.0893 97.0267 90.0893 97.0443C90.0893 97.0618 90.0824 97.0787 90.07 97.0911C90.0577 97.1036 90.0409 97.1107 90.0234 97.1108Z" fill="#CCCCCC"/>
<path d="M90.0234 98.7068H66.7844C66.7756 98.7069 66.7669 98.7052 66.7588 98.7019C66.7507 98.6986 66.7434 98.6937 66.7371 98.6875C66.7309 98.6813 66.726 98.6739 66.7226 98.6658C66.7193 98.6577 66.7175 98.6491 66.7175 98.6403C66.7175 98.6315 66.7193 98.6228 66.7226 98.6147C66.726 98.6066 66.7309 98.5993 66.7371 98.5931C66.7434 98.5869 66.7507 98.582 66.7588 98.5787C66.7669 98.5754 66.7756 98.5737 66.7844 98.5738H90.0234C90.0409 98.5739 90.0577 98.581 90.07 98.5934C90.0824 98.6059 90.0893 98.6227 90.0893 98.6403C90.0893 98.6579 90.0824 98.6747 90.07 98.6872C90.0577 98.6996 90.0409 98.7067 90.0234 98.7068Z" fill="#CCCCCC"/>
<path d="M85.9467 82.8154V91.4606H64.3213C63.7419 91.4808 63.1644 91.384 62.6232 91.1758C62.0819 90.9677 61.5881 90.6525 61.1711 90.2492C60.7541 89.8458 60.4224 89.3624 60.1959 88.8279C59.9694 88.2934 59.8527 87.7187 59.8527 87.138C59.8527 86.5574 59.9694 85.9827 60.1959 85.4481C60.4224 84.9136 60.7541 84.4303 61.1711 84.0269C61.5881 83.6235 62.0819 83.3084 62.6232 83.1002C63.1644 82.8921 63.7419 82.7952 64.3213 82.8154H85.9467Z" fill="#F2F2F2"/>
<path d="M86.478 91.3941C86.4779 91.4823 86.4429 91.5668 86.3807 91.6292C86.3184 91.6915 86.234 91.7266 86.146 91.7266H63.9361C63.3389 91.7266 62.7474 91.6088 62.1956 91.3799C61.6438 91.1509 61.1424 90.8154 60.7201 90.3924C60.2977 89.9694 59.9627 89.4672 59.7341 88.9145C59.5056 88.3618 59.3879 87.7695 59.3879 87.1713C59.3879 86.573 59.5056 85.9807 59.7341 85.428C59.9627 84.8753 60.2977 84.3731 60.7201 83.9501C61.1424 83.5271 61.6438 83.1916 62.1956 82.9627C62.7474 82.7337 63.3389 82.6159 63.9361 82.6159H86.146C86.234 82.6159 86.3184 82.6509 86.3807 82.7133C86.443 82.7757 86.478 82.8602 86.478 82.9484C86.478 83.0366 86.443 83.1212 86.3807 83.1835C86.3184 83.2459 86.234 83.2809 86.146 83.2809H63.9361C62.9066 83.2818 61.9195 83.6921 61.1918 84.4216C60.4642 85.1511 60.0554 86.1401 60.0554 87.1713C60.0554 88.2024 60.4642 89.1914 61.1918 89.9209C61.9195 90.6504 62.9066 91.0607 63.9361 91.0616H86.146C86.234 91.0616 86.3184 91.0967 86.3807 91.159C86.4429 91.2214 86.4779 91.3059 86.478 91.3941Z" fill="#3F3D56"/>
<path d="M85.9468 84.8104H62.7078C62.699 84.8105 62.6903 84.8088 62.6822 84.8055C62.6741 84.8022 62.6668 84.7973 62.6605 84.7911C62.6543 84.7849 62.6494 84.7776 62.646 84.7695C62.6427 84.7614 62.6409 84.7527 62.6409 84.7439C62.6409 84.7352 62.6427 84.7265 62.646 84.7184C62.6494 84.7103 62.6543 84.7029 62.6605 84.6968C62.6668 84.6906 62.6741 84.6857 62.6822 84.6824C62.6903 84.6791 62.699 84.6774 62.7078 84.6774H85.9468C85.9643 84.6776 85.9811 84.6846 85.9934 84.6971C86.0058 84.7095 86.0127 84.7264 86.0127 84.7439C86.0127 84.7615 86.0058 84.7783 85.9934 84.7908C85.9811 84.8033 85.9643 84.8103 85.9468 84.8104Z" fill="#CCCCCC"/>
<path d="M85.9468 86.4065H62.7078C62.699 86.4066 62.6903 86.4049 62.6822 86.4016C62.6741 86.3982 62.6668 86.3934 62.6605 86.3872C62.6543 86.381 62.6494 86.3737 62.646 86.3656C62.6427 86.3575 62.6409 86.3488 62.6409 86.34C62.6409 86.3312 62.6427 86.3225 62.646 86.3144C62.6494 86.3063 62.6543 86.299 62.6605 86.2928C62.6668 86.2866 62.6741 86.2817 62.6822 86.2784C62.6903 86.2751 62.699 86.2734 62.7078 86.2735H85.9468C85.9643 86.2736 85.9811 86.2807 85.9934 86.2931C86.0058 86.3056 86.0127 86.3224 86.0127 86.34C86.0127 86.3576 86.0058 86.3744 85.9934 86.3869C85.9811 86.3993 85.9643 86.4064 85.9468 86.4065Z" fill="#CCCCCC"/>
<path d="M85.9468 88.0025H62.7078C62.699 88.0026 62.6903 88.0009 62.6822 87.9976C62.6741 87.9943 62.6668 87.9894 62.6605 87.9832C62.6543 87.977 62.6494 87.9697 62.646 87.9616C62.6427 87.9535 62.6409 87.9448 62.6409 87.936C62.6409 87.9273 62.6427 87.9186 62.646 87.9105C62.6494 87.9024 62.6543 87.895 62.6605 87.8889C62.6668 87.8827 62.6741 87.8778 62.6822 87.8745C62.6903 87.8712 62.699 87.8695 62.7078 87.8695H85.9468C85.9643 87.8697 85.9811 87.8767 85.9934 87.8892C86.0058 87.9016 86.0127 87.9185 86.0127 87.936C86.0127 87.9536 86.0058 87.9704 85.9934 87.9829C85.9811 87.9954 85.9643 88.0024 85.9468 88.0025Z" fill="#CCCCCC"/>
<path d="M85.9468 89.5985H62.7078C62.699 89.5986 62.6903 89.5969 62.6822 89.5936C62.6741 89.5903 62.6668 89.5854 62.6605 89.5792C62.6543 89.5731 62.6494 89.5657 62.646 89.5576C62.6427 89.5495 62.6409 89.5408 62.6409 89.532C62.6409 89.5233 62.6427 89.5146 62.646 89.5065C62.6494 89.4984 62.6543 89.491 62.6605 89.4849C62.6668 89.4787 62.6741 89.4738 62.6822 89.4705C62.6903 89.4672 62.699 89.4655 62.7078 89.4655H85.9468C85.9643 89.4657 85.9811 89.4727 85.9934 89.4852C86.0058 89.4976 86.0127 89.5145 86.0127 89.532C86.0127 89.5496 86.0058 89.5664 85.9934 89.5789C85.9811 89.5914 85.9643 89.5984 85.9468 89.5985Z" fill="#CCCCCC"/>
<path d="M111.104 131.298V123.76C111.104 123.427 110.972 123.107 110.736 122.872C110.501 122.636 110.182 122.504 109.849 122.504H81.3133C80.9806 122.504 80.6615 122.636 80.4263 122.872C80.1911 123.107 80.0589 123.427 80.0589 123.76V131.298H111.104Z" fill="#CCCCCC"/>
<path d="M111.104 134.125H80.0589V143.861H111.104V134.125Z" fill="#CCCCCC"/>
<path d="M80.0589 146.688V154.226C80.0589 154.559 80.1911 154.878 80.4263 155.114C80.6615 155.349 80.9806 155.482 81.3133 155.482H109.849C110.182 155.482 110.501 155.349 110.736 155.114C110.972 154.878 111.104 154.559 111.104 154.226V146.688H80.0589Z" fill="#CCCCCC"/>
<path d="M95.4245 128.157C95.9441 128.157 96.3653 127.735 96.3653 127.215C96.3653 126.695 95.9441 126.273 95.4245 126.273C94.905 126.273 94.4838 126.695 94.4838 127.215C94.4838 127.735 94.905 128.157 95.4245 128.157Z" fill="white"/>
<path d="M95.4245 140.72C95.9441 140.72 96.3653 140.298 96.3653 139.778C96.3653 139.258 95.9441 138.836 95.4245 138.836C94.905 138.836 94.4838 139.258 94.4838 139.778C94.4838 140.298 94.905 140.72 95.4245 140.72Z" fill="white"/>
<path d="M95.475 153.017C95.9945 153.017 96.4157 152.595 96.4157 152.075C96.4157 151.555 95.9945 151.133 95.475 151.133C94.9554 151.133 94.5342 151.555 94.5342 152.075C94.5342 152.595 94.9554 153.017 95.475 153.017Z" fill="white"/>
<path d="M107.584 113.909V122.554H85.9586C85.3792 122.574 84.8017 122.478 84.2605 122.269C83.7192 122.061 83.2254 121.746 82.8084 121.343C82.3914 120.939 82.0597 120.456 81.8332 119.922C81.6067 119.387 81.49 118.812 81.49 118.232C81.49 117.651 81.6067 117.076 81.8332 116.542C82.0597 116.007 82.3914 115.524 82.8084 115.121C83.2254 114.717 83.7192 114.402 84.2605 114.194C84.8017 113.986 85.3792 113.889 85.9586 113.909H107.584Z" fill="#F2F2F2"/>
<path d="M108.115 122.488C108.115 122.576 108.08 122.661 108.018 122.723C107.956 122.785 107.871 122.82 107.783 122.82H85.5734C84.9758 122.821 84.384 122.703 83.8317 122.475C83.2795 122.246 82.7777 121.91 82.3549 121.487C81.9322 121.064 81.5968 120.562 81.368 120.009C81.1392 119.456 81.0215 118.863 81.0215 118.265C81.0215 117.666 81.1392 117.074 81.368 116.521C81.5968 115.968 81.9322 115.466 82.3549 115.042C82.7777 114.619 83.2795 114.284 83.8317 114.055C84.384 113.827 84.9758 113.709 85.5734 113.71H107.783C107.871 113.71 107.956 113.745 108.018 113.807C108.08 113.869 108.115 113.954 108.115 114.042C108.115 114.13 108.08 114.215 108.018 114.277C107.956 114.34 107.871 114.375 107.783 114.375H85.5734C84.5439 114.376 83.5568 114.786 82.8291 115.515C82.1014 116.245 81.6927 117.234 81.6927 118.265C81.6927 119.296 82.1014 120.285 82.8291 121.015C83.5568 121.744 84.5439 122.154 85.5734 122.155H107.783C107.871 122.155 107.956 122.19 108.018 122.253C108.08 122.315 108.115 122.4 108.115 122.488Z" fill="#3F3D56"/>
<path d="M107.584 115.904H84.3451C84.3363 115.904 84.3276 115.903 84.3195 115.899C84.3114 115.896 84.304 115.891 84.2978 115.885C84.2916 115.879 84.2867 115.871 84.2833 115.863C84.2799 115.855 84.2782 115.846 84.2782 115.838C84.2782 115.829 84.2799 115.82 84.2833 115.812C84.2867 115.804 84.2916 115.797 84.2978 115.79C84.304 115.784 84.3114 115.779 84.3195 115.776C84.3276 115.773 84.3363 115.771 84.3451 115.771H107.584C107.602 115.771 107.618 115.778 107.631 115.791C107.643 115.803 107.65 115.82 107.65 115.838C107.65 115.855 107.643 115.872 107.631 115.884C107.618 115.897 107.602 115.904 107.584 115.904Z" fill="#CCCCCC"/>
<path d="M107.584 117.5H84.3451C84.3363 117.5 84.3276 117.499 84.3195 117.495C84.3114 117.492 84.304 117.487 84.2978 117.481C84.2916 117.475 84.2867 117.467 84.2833 117.459C84.2799 117.451 84.2782 117.442 84.2782 117.434C84.2782 117.425 84.2799 117.416 84.2833 117.408C84.2867 117.4 84.2916 117.393 84.2978 117.386C84.304 117.38 84.3114 117.375 84.3195 117.372C84.3276 117.369 84.3363 117.367 84.3451 117.367H107.584C107.602 117.367 107.618 117.374 107.631 117.387C107.643 117.399 107.65 117.416 107.65 117.434C107.65 117.451 107.643 117.468 107.631 117.481C107.618 117.493 107.602 117.5 107.584 117.5Z" fill="#CCCCCC"/>
<path d="M107.584 119.096H84.3451C84.3363 119.096 84.3276 119.095 84.3195 119.091C84.3114 119.088 84.304 119.083 84.2978 119.077C84.2916 119.071 84.2867 119.063 84.2833 119.055C84.2799 119.047 84.2782 119.038 84.2782 119.03C84.2782 119.021 84.2799 119.012 84.2833 119.004C84.2867 118.996 84.2916 118.989 84.2978 118.983C84.304 118.976 84.3114 118.971 84.3195 118.968C84.3276 118.965 84.3363 118.963 84.3451 118.963H107.584C107.602 118.963 107.618 118.97 107.631 118.983C107.643 118.995 107.65 119.012 107.65 119.03C107.65 119.047 107.643 119.064 107.631 119.077C107.618 119.089 107.602 119.096 107.584 119.096Z" fill="#CCCCCC"/>
<path d="M107.584 120.692H84.3451C84.3363 120.692 84.3276 120.691 84.3195 120.687C84.3114 120.684 84.304 120.679 84.2978 120.673C84.2916 120.667 84.2867 120.659 84.2833 120.651C84.2799 120.643 84.2782 120.634 84.2782 120.626C84.2782 120.617 84.2799 120.608 84.2833 120.6C84.2867 120.592 84.2916 120.585 84.2978 120.579C84.304 120.572 84.3114 120.567 84.3195 120.564C84.3276 120.561 84.3363 120.559 84.3451 120.559H107.584C107.602 120.559 107.618 120.566 107.631 120.579C107.643 120.591 107.65 120.608 107.65 120.626C107.65 120.643 107.643 120.66 107.631 120.673C107.618 120.685 107.602 120.692 107.584 120.692Z" fill="#CCCCCC"/>
<path d="M78.4306 57.4829V2.36231C78.4313 1.73601 78.68 1.13556 79.1222 0.692695C79.5643 0.24983 80.1638 0.000712402 80.7892 0H124.292C124.918 0.00071655 125.517 0.249835 125.959 0.692699C126.401 1.13556 126.65 1.73601 126.651 2.36231V57.4829C126.65 58.1092 126.401 58.7097 125.959 59.1525C125.517 59.5954 124.918 59.8445 124.292 59.8452H80.7892C80.1638 59.8445 79.5643 59.5954 79.1222 59.1525C78.68 58.7097 78.4313 58.1092 78.4306 57.4829ZM80.7892 0.524959C80.3028 0.525505 79.8365 0.719259 79.4926 1.06371C79.1487 1.40816 78.9552 1.87519 78.9547 2.36231V57.4829C78.9552 57.97 79.1487 58.4371 79.4926 58.7815C79.8365 59.126 80.3028 59.3197 80.7892 59.3203H124.292C124.779 59.3197 125.245 59.126 125.589 58.7815C125.933 58.4371 126.126 57.97 126.127 57.4829V2.36231C126.126 1.87519 125.933 1.40816 125.589 1.06371C125.245 0.719259 124.779 0.525505 124.292 0.524959H80.7892Z" fill="#E6E6E6"/>
<path d="M104.98 25.3139V13.9959C104.981 13.6828 105.105 13.3825 105.326 13.1611C105.547 12.9397 105.847 12.8151 106.159 12.8148H115.735C116.048 12.8151 116.348 12.9397 116.569 13.1611C116.79 13.3825 116.914 13.6828 116.915 13.9959V25.3139C116.914 25.6271 116.79 25.9273 116.569 26.1487C116.348 26.3702 116.048 26.4947 115.735 26.4951H106.159C105.847 26.4947 105.547 26.3702 105.326 26.1487C105.105 25.9273 104.981 25.6271 104.98 25.3139Z" fill="#029AA4"/>
<path d="M86.3734 30.5635V19.2455C86.3738 18.9324 86.4982 18.6321 86.7192 18.4107C86.9403 18.1893 87.2401 18.0647 87.5528 18.0644H97.1287C97.4413 18.0647 97.7411 18.1893 97.9622 18.4107C98.1833 18.6321 98.3076 18.9324 98.308 19.2455V30.5635C98.3076 30.8767 98.1833 31.1769 97.9622 31.3983C97.7411 31.6198 97.4413 31.7443 97.1287 31.7447H87.5528C87.2401 31.7443 86.9403 31.6198 86.7192 31.3983C86.4982 31.1769 86.3738 30.8766 86.3734 30.5635Z" fill="#CCCCCC"/>
<path d="M101.311 46.5747V35.2567C101.312 34.9436 101.436 34.6433 101.657 34.4219C101.878 34.2005 102.178 34.0759 102.491 34.0756H112.066C112.379 34.0759 112.679 34.2005 112.9 34.4219C113.121 34.6433 113.245 34.9436 113.246 35.2567V46.5747C113.245 46.8879 113.121 47.1881 112.9 47.4095C112.679 47.631 112.379 47.7555 112.066 47.7559H102.491C102.178 47.7555 101.878 47.631 101.657 47.4095C101.436 47.1881 101.312 46.8879 101.311 46.5747Z" fill="#FF6584"/>
<path d="M158.536 98.3198H148.684C148.59 98.3197 148.498 98.3412 148.414 98.3826L145.927 99.6295C145.845 99.6643 145.776 99.7225 145.726 99.7968C145.677 99.871 145.651 99.9581 145.651 100.047C145.651 100.136 145.677 100.223 145.726 100.298C145.776 100.372 145.845 100.43 145.927 100.465L148.414 101.712C148.498 101.753 148.59 101.775 148.684 101.775H158.536C158.672 101.782 158.806 101.736 158.908 101.647C159.01 101.557 159.072 101.43 159.082 101.294V98.8003C159.072 98.6644 159.01 98.5378 158.908 98.4479C158.806 98.3579 158.672 98.3119 158.536 98.3198Z" fill="#3F3D56"/>
<path d="M159.082 98.8003V101.294C159.072 101.43 159.01 101.557 158.908 101.647C158.806 101.736 158.672 101.782 158.536 101.775H156.573V98.3198H158.536C158.672 98.3119 158.806 98.3579 158.908 98.4479C159.01 98.5378 159.072 98.6645 159.082 98.8003Z" fill="#029AA4"/>
<path d="M158.462 79.6635C158.908 79.4706 159.39 79.3743 159.876 79.381C160.362 79.3877 160.842 79.4971 161.282 79.7021C161.723 79.9072 162.116 80.2032 162.435 80.5708C162.753 80.9384 162.991 81.3693 163.132 81.8352C163.175 81.983 163.209 82.1336 163.232 82.2859L177.01 89.1291L180.199 87.0127L184.166 91.5873L179.298 95.5478C178.712 96.0203 177.99 96.2912 177.239 96.3203C176.487 96.3493 175.747 96.1349 175.127 95.7089L161.147 86.0265C161.043 86.0707 160.937 86.1094 160.829 86.1427C160.364 86.2837 159.874 86.3245 159.392 86.2627C158.91 86.2008 158.446 86.0376 158.031 85.7838C157.616 85.5299 157.26 85.1911 156.985 84.7896C156.71 84.3881 156.523 83.933 156.436 83.454C156.41 83.3149 156.393 83.1744 156.385 83.0333C156.346 82.3263 156.524 81.6244 156.896 81.0219C157.267 80.4195 157.814 79.9454 158.462 79.6635Z" fill="#FFB8B8"/>
<path d="M187.16 121.797H172.105C172.105 122.23 156.588 122.582 156.588 122.582C156.345 122.765 156.123 122.976 155.927 123.21C155.338 123.914 155.015 124.804 155.017 125.723V126.351C155.018 127.392 155.431 128.39 156.166 129.126C156.901 129.863 157.898 130.276 158.937 130.277H187.16C188.199 130.276 189.195 129.862 189.93 129.126C190.665 128.39 191.079 127.392 191.079 126.351V125.723C191.078 124.682 190.665 123.684 189.93 122.948C189.195 122.212 188.199 121.798 187.16 121.797Z" fill="#3F3D56"/>
<path d="M170.783 156.503H174.86V130.121H170.783V156.503Z" fill="#3F3D56"/>
<path d="M159.181 156.36C159.181 156.801 165.358 156.53 172.978 156.53C180.599 156.53 186.776 156.801 186.776 156.36C186.776 155.919 180.599 152.42 172.978 152.42C165.358 152.42 159.181 155.919 159.181 156.36Z" fill="#3F3D56"/>
<path d="M162.861 153.268L159.016 153.267L157.187 143.281L162.861 143.281L162.861 153.268Z" fill="#FFB8B8"/>
<path d="M163.841 157L151.445 157V156.843C151.445 156.208 151.57 155.579 151.812 154.993C152.055 154.407 152.41 153.874 152.858 153.425C153.306 152.977 153.838 152.621 154.424 152.378C155.009 152.135 155.636 152.01 156.27 152.01H156.27L163.841 152.01L163.841 157Z" fill="#2F2E41"/>
<path d="M157.111 147.075L149.446 129.861C148.807 128.41 148.736 126.771 149.248 125.27C149.761 123.769 150.819 122.517 152.212 121.763L168.836 112.834L176.422 112.188L183.419 111.551L183.47 111.636C183.534 111.745 185.039 114.348 184.022 117.202C183.251 119.367 181.244 121.058 178.058 122.228C170.622 124.959 162.031 127.293 158.683 128.17C158.535 128.208 158.396 128.277 158.277 128.372C158.157 128.467 158.059 128.587 157.989 128.723C157.919 128.857 157.877 129.004 157.867 129.156C157.856 129.307 157.877 129.459 157.928 129.602L165.048 145.624C165.123 145.827 165.149 146.045 165.126 146.26C165.104 146.475 165.032 146.682 164.916 146.865C164.801 147.048 164.645 147.202 164.461 147.315C164.277 147.429 164.069 147.498 163.854 147.518L158.533 147.906C158.488 147.91 158.443 147.912 158.398 147.912C158.126 147.912 157.859 147.833 157.631 147.684C157.402 147.536 157.222 147.324 157.111 147.075Z" fill="#2F2E41"/>
<path d="M164.742 153.268L160.898 153.267L159.069 143.281L164.743 143.281L164.742 153.268Z" fill="#FFB8B8"/>
<path d="M165.723 157L153.327 157V156.843C153.327 156.208 153.451 155.579 153.694 154.993C153.936 154.407 154.292 153.874 154.74 153.425C155.188 152.977 155.72 152.621 156.305 152.378C156.891 152.135 157.518 152.01 158.152 152.01H158.152L165.723 152.01L165.723 157Z" fill="#2F2E41"/>
<path d="M159.306 148.017L151.642 130.803C151.002 129.352 150.931 127.713 151.443 126.212C151.956 124.712 153.014 123.459 154.407 122.705L171.031 113.776L178.617 113.13L185.615 112.493L185.665 112.579C185.73 112.688 187.234 115.291 186.217 118.145C185.446 120.309 183.439 122 180.253 123.17C172.817 125.901 164.226 128.235 160.878 129.112C160.73 129.15 160.592 129.219 160.472 129.314C160.353 129.409 160.255 129.529 160.184 129.665C160.114 129.799 160.072 129.947 160.062 130.098C160.051 130.249 160.072 130.401 160.123 130.544L167.243 146.566C167.318 146.77 167.344 146.987 167.322 147.202C167.299 147.418 167.227 147.625 167.111 147.808C166.996 147.991 166.84 148.145 166.656 148.258C166.472 148.371 166.264 148.44 166.049 148.46L160.728 148.848C160.683 148.852 160.638 148.854 160.593 148.854C160.321 148.854 160.054 148.775 159.826 148.627C159.597 148.478 159.417 148.266 159.306 148.017Z" fill="#2F2E41"/>
<path d="M155.486 95.4306C152.265 91.1399 149.719 86.3808 147.936 81.3186C147.833 81.0158 147.84 80.6861 147.957 80.3882C148.073 80.0903 148.292 79.8435 148.573 79.6918L159.594 73.7773C159.772 73.6808 159.97 73.6265 160.173 73.6182C160.375 73.61 160.577 73.6481 160.762 73.7298C160.951 73.812 161.119 73.9363 161.253 74.0933C161.387 74.2503 161.483 74.4357 161.534 74.6356C162.817 79.5137 165.228 84.0209 168.573 87.7925C168.711 87.946 168.811 88.129 168.868 88.3274C168.924 88.5259 168.935 88.7347 168.898 88.9378C168.864 89.1377 168.784 89.327 168.665 89.4913C168.546 89.6555 168.391 89.7904 168.212 89.8857L157.191 95.8003C156.909 95.9509 156.583 95.9963 156.271 95.9286C155.958 95.8609 155.68 95.6845 155.486 95.4306Z" fill="#CCCCCC"/>
<path d="M156.238 94.8646C156.297 94.9387 156.38 94.9898 156.473 95.009C156.566 95.0282 156.663 95.0144 156.746 94.9698L167.767 89.0551C167.821 89.0272 167.867 88.9872 167.903 88.9383C167.938 88.8895 167.962 88.833 167.972 88.7734C167.984 88.7105 167.98 88.6457 167.963 88.5843C167.945 88.5228 167.913 88.4663 167.87 88.4191C164.427 84.5364 161.945 79.8964 160.624 74.8746C160.609 74.8125 160.58 74.7548 160.538 74.7061C160.497 74.6573 160.445 74.6188 160.387 74.5935C160.331 74.5687 160.271 74.5572 160.211 74.5597C160.15 74.5622 160.091 74.5787 160.038 74.6079L149.018 80.5224C148.934 80.5676 148.869 80.6406 148.833 80.7287C148.798 80.8169 148.794 80.9146 148.823 81.0052C150.574 85.9768 153.075 90.6507 156.238 94.8646Z" fill="white"/>
<path d="M192.099 93.8529L183.468 97.1379L181.361 91.2752C181.081 90.4967 181.085 89.6442 181.372 88.8683C181.659 88.0925 182.21 87.4432 182.929 87.0353C183.656 86.6226 184.507 86.484 185.327 86.6443C186.147 86.8047 186.883 87.2536 187.402 87.9098L192.099 93.8529Z" fill="#029AA4"/>
<path d="M170.145 117.082C169.964 116.953 169.811 116.787 169.699 116.595C169.586 116.403 169.515 116.189 169.492 115.967C168.386 105.631 169.156 97.5424 171.846 91.2386C172.319 90.1514 173.033 89.1858 173.933 88.4144C174.832 87.6431 175.895 87.086 177.041 86.7851L184.018 86.4324L184.054 86.4499C185.628 87.2222 186.912 88.4822 187.715 90.043C188.519 91.6038 188.798 93.3823 188.513 95.1147C186.269 101.039 184.39 107.208 185.823 112.184C185.883 112.392 185.9 112.61 185.874 112.825C185.848 113.04 185.779 113.247 185.671 113.435C185.566 113.616 185.425 113.774 185.257 113.899C185.089 114.023 184.898 114.112 184.694 114.16L171.405 117.326C171.189 117.377 170.966 117.382 170.749 117.34C170.531 117.298 170.326 117.21 170.145 117.082Z" fill="#029AA4"/>
<path d="M181.689 83.8223C185.943 83.8223 189.391 80.3686 189.391 76.1082C189.391 71.8479 185.943 68.3942 181.689 68.3942C177.436 68.3942 173.987 71.8479 173.987 76.1082C173.987 80.3686 177.436 83.8223 181.689 83.8223Z" fill="#FFB8B8"/>
<path d="M160.318 82.218L154.315 84.8718C154.087 84.9725 153.828 84.9783 153.595 84.888C153.363 84.7978 153.176 84.6188 153.075 84.3903L152.926 84.0535C152.826 83.8248 152.82 83.5656 152.91 83.3327C153 83.0998 153.179 82.9121 153.407 82.811L159.409 80.1572C159.638 80.0566 159.896 80.0507 160.129 80.141C160.362 80.2313 160.549 80.4102 160.65 80.6387L160.798 80.9755C160.899 81.2042 160.905 81.4634 160.815 81.6963C160.724 81.9293 160.546 82.1169 160.318 82.218Z" fill="#CCCCCC"/>
<path d="M162.513 86.301L156.51 88.9548C156.282 89.0555 156.023 89.0613 155.791 88.971C155.558 88.8808 155.371 88.7018 155.27 88.4734L155.121 88.1365C155.021 87.9079 155.015 87.6486 155.105 87.4157C155.195 87.1828 155.374 86.9951 155.602 86.894L161.604 84.2402C161.833 84.1396 162.092 84.1337 162.324 84.224C162.557 84.3143 162.744 84.4932 162.845 84.7217L162.993 85.0585C163.094 85.2872 163.1 85.5464 163.01 85.7793C162.919 86.0123 162.741 86.1999 162.513 86.301Z" fill="#CCCCCC"/>
<path d="M167.142 102.249L153.76 91.6752C153.653 91.7128 153.545 91.7448 153.435 91.7712C152.963 91.8819 152.472 91.8918 151.996 91.8003C151.519 91.7087 151.068 91.5178 150.67 91.24C150.269 90.962 149.933 90.6014 149.682 90.1825C149.432 89.7637 149.274 89.2961 149.219 88.8111C149.129 88.0358 149.304 87.2529 149.714 86.5894C150.124 85.9259 150.747 85.4207 151.48 85.1558C151.937 84.9915 152.424 84.9258 152.909 84.963C153.393 85.0003 153.865 85.1397 154.292 85.3721C154.719 85.6045 155.092 85.9246 155.387 86.3116C155.682 86.6985 155.892 87.1435 156.003 87.6174C156.038 87.7676 156.062 87.9199 156.075 88.0735L169.397 95.7707L172.712 93.8591L176.384 98.6745L171.237 102.349C170.634 102.776 169.911 102.996 169.173 102.978C168.435 102.96 167.723 102.704 167.142 102.249Z" fill="#FFB8B8"/>
<path d="M178.017 100.174L170.382 94.9738L173.97 89.8836C174.447 89.2077 175.146 88.7223 175.946 88.5131C176.745 88.3039 177.592 88.3844 178.338 88.7404C179.092 89.1005 179.693 89.7189 180.032 90.484C180.371 91.249 180.426 92.1103 180.186 92.9121L178.017 100.174Z" fill="#029AA4"/>
<path d="M178.865 74.9593C176.886 76.3163 174.287 77.7112 172.265 76.2661C170.937 75.3173 170.519 73.5602 171.057 72.0182C172.026 69.2454 174.685 68.0247 177.229 67.0889C180.535 65.8725 184.136 64.9048 187.549 65.7759C190.963 66.6471 193.979 69.9572 193.363 73.4309C192.868 76.2244 190.237 78.5488 190.61 81.3612C190.986 84.1917 194.164 85.6816 196.97 86.1875C199.776 86.6934 202.916 86.856 204.932 88.8745C207.505 91.4496 206.862 96.0522 204.442 98.771C202.021 101.49 198.369 102.722 194.829 103.56C190.14 104.67 185.068 105.253 180.614 103.411C176.16 101.569 172.694 96.6099 173.984 91.9599C174.529 89.9957 175.813 88.3357 177.054 86.7197C178.295 85.1036 179.551 83.4137 180.024 81.4309C180.419 79.7787 180.127 77.8603 179.033 76.6209C178.834 76.404 178.709 76.1295 178.675 75.8368C178.642 75.5441 178.702 75.2484 178.846 74.992L178.865 74.9593Z" fill="#2F2E41"/>
<path d="M34.2033 112.439C32.2186 113.138 30.0878 113.313 28.016 112.947C25.9442 112.582 24.0013 111.688 22.3745 110.352C18.2315 106.869 16.9325 101.131 15.8756 95.8183C14.8335 90.58 13.7914 85.3416 12.7494 80.1033L19.2944 84.617C24.0012 87.863 28.814 91.213 32.0729 95.9147C35.3319 100.616 36.7544 107.035 34.136 112.122" fill="#E6E6E6"/>
<path d="M33.6438 131.466C34.3063 126.633 34.9874 121.738 34.5228 116.853C34.1101 112.515 32.7887 108.278 30.0985 104.804C28.6705 102.963 26.9329 101.386 24.9639 100.144C24.4504 99.8191 23.9779 100.634 24.4891 100.957C27.8961 103.114 30.5313 106.298 32.0147 110.052C33.6532 114.226 33.9163 118.776 33.6339 123.21C33.4632 125.891 33.1013 128.555 32.7367 131.215C32.7079 131.335 32.7258 131.462 32.7868 131.57C32.8478 131.677 32.9473 131.758 33.0652 131.795C33.1855 131.827 33.3137 131.811 33.422 131.749C33.5303 131.688 33.61 131.586 33.6438 131.466Z" fill="#F2F2F2"/>
<path d="M27.2633 122.914C26.4121 124.209 25.2421 125.264 23.866 125.975C22.4899 126.686 20.9541 127.031 19.4065 126.975C15.4293 126.786 12.1136 124.006 9.12877 121.366L0.300354 113.559L6.1433 113.279C10.3452 113.078 14.6555 112.89 18.6577 114.188C22.6598 115.486 26.3508 118.609 27.0827 122.758" fill="#E6E6E6"/>
<path d="M35.5159 134.244C32.3275 128.593 28.6292 122.313 22.0209 120.306C20.1835 119.75 18.2568 119.55 16.3447 119.719C15.7421 119.771 15.8926 120.701 16.4941 120.649C19.6993 120.383 22.8982 121.231 25.5524 123.05C28.1065 124.791 30.0952 127.212 31.7784 129.779C32.8094 131.351 33.7329 132.991 34.6565 134.628C34.9517 135.151 35.8145 134.773 35.5159 134.244Z" fill="#F2F2F2"/>
<path d="M40.6247 140.191C40.5173 138.945 40.0703 137.751 39.3326 136.741C38.5948 135.731 37.5945 134.944 36.4406 134.464V131.197H30.9702V134.567C29.8731 135.07 28.9289 135.856 28.2339 136.844C27.5389 137.832 27.118 138.987 27.014 140.191L25.7276 155.168H41.911L40.6247 140.191Z" fill="#F2F2F2"/>
</g>
<defs>
<clipPath id="clip0_347_607">
<rect width="217" height="157" fill="white"/>
</clipPath>
</defs>
</svg>
