<svg width="20" height="18" viewBox="0 0 20 18" fill="none" xmlns="http://www.w3.org/2000/svg">
<path d="M7.18 1H3C1.89543 1 1 1.89543 1 3V14.45C1 15.5546 1.89543 16.45 3 16.45H7.18" stroke="#1F1F1F" stroke-width="1.5" stroke-linecap="round"/>
<path d="M4 8.25C3.58579 8.25 3.25 8.58579 3.25 9C3.25 9.41421 3.58579 9.75 4 9.75V8.25ZM19.4429 9.53033C19.7358 9.23744 19.7358 8.76256 19.4429 8.46967L14.6699 3.6967C14.377 3.40381 13.9022 3.40381 13.6093 3.6967C13.3164 3.98959 13.3164 4.46447 13.6093 4.75736L17.8519 9L13.6093 13.2426C13.3164 13.5355 13.3164 14.0104 13.6093 14.3033C13.9022 14.5962 14.377 14.5962 14.6699 14.3033L19.4429 9.53033ZM4 9.75H18.9126V8.25H4V9.75Z" fill="#1F1F1F"/>
</svg>
