<svg width="674" height="292" viewBox="0 0 674 292" fill="none" xmlns="http://www.w3.org/2000/svg">
<g clip-path="url(#clip0_325_2363)">
<path d="M607.968 120.459H212.528C210.849 120.459 209.239 121.125 208.052 122.311C206.865 123.497 206.198 125.105 206.198 126.782C206.198 128.458 206.865 130.067 208.052 131.252C209.239 132.438 210.849 133.104 212.528 133.104H223.729V284.36C223.729 286.037 224.396 287.645 225.584 288.831C226.771 290.017 228.381 290.683 230.06 290.683C231.739 290.683 233.35 290.017 234.537 288.831C235.724 287.645 236.391 286.037 236.391 284.36L236.487 133.104H553.868L583.131 284.36C583.131 286.037 583.798 287.645 584.985 288.831C586.173 290.017 587.783 290.683 589.462 290.683C591.141 290.683 592.751 290.017 593.939 288.831C595.126 287.645 595.793 286.037 595.793 284.36L597.635 133.104H607.968C609.647 133.104 611.257 132.438 612.444 131.252C613.632 130.067 614.299 128.458 614.299 126.782C614.299 125.105 613.632 123.497 612.444 122.311C611.257 121.125 609.647 120.459 607.968 120.459Z" fill="#CCCCCC"/>
<path d="M281.073 92.2864V119.061H213.904C212.144 119.122 210.389 118.836 208.739 118.22C207.089 117.604 205.577 116.669 204.289 115.469C203.001 114.269 201.962 112.828 201.232 111.227C200.502 109.626 200.094 107.897 200.033 106.139C199.972 104.381 200.258 102.628 200.875 100.981C201.492 99.3332 202.428 97.8232 203.629 96.5368C204.831 95.2504 206.274 94.213 207.877 93.4837C209.48 92.7544 211.211 92.3476 212.972 92.2864C213.282 92.2756 213.593 92.2756 213.904 92.2864L281.073 92.2864Z" fill="#F2F2F2"/>
<path d="M282.723 118.854C282.722 119.127 282.614 119.389 282.42 119.582C282.227 119.776 281.965 119.884 281.691 119.884H212.708C208.963 119.882 205.372 118.394 202.725 115.749C200.078 113.103 198.591 109.516 198.591 105.776C198.591 102.036 200.078 98.4491 202.725 95.8036C205.372 93.1581 208.963 91.6706 212.708 91.668H281.691C281.827 91.6676 281.961 91.694 282.087 91.7456C282.212 91.7972 282.326 91.873 282.422 91.9687C282.518 92.0643 282.594 92.178 282.646 92.3031C282.698 92.4282 282.725 92.5623 282.725 92.6978C282.725 92.8332 282.698 92.9674 282.646 93.0925C282.594 93.2176 282.518 93.3312 282.422 93.4269C282.326 93.5225 282.212 93.5983 282.087 93.6499C281.961 93.7015 281.827 93.7279 281.691 93.7276H212.708C209.511 93.7324 206.447 95.0039 204.189 97.2629C201.93 99.5219 200.662 102.584 200.662 105.776C200.662 108.968 201.93 112.03 204.189 114.289C206.447 116.548 209.511 117.82 212.708 117.825H281.691C281.965 117.825 282.227 117.933 282.42 118.126C282.614 118.319 282.722 118.581 282.723 118.854Z" fill="#029AA4"/>
<path d="M281.073 98.4646H208.893C208.838 98.4649 208.786 98.4436 208.747 98.4054C208.708 98.3671 208.686 98.315 208.685 98.2606C208.685 98.2061 208.706 98.1536 208.744 98.1147C208.782 98.0757 208.834 98.0534 208.889 98.0527H281.073C281.127 98.0533 281.179 98.0752 281.217 98.1138C281.255 98.1523 281.277 98.2044 281.277 98.2587C281.277 98.3129 281.255 98.365 281.217 98.4036C281.179 98.4422 281.127 98.4641 281.073 98.4646Z" fill="#CCCCCC"/>
<path d="M281.073 103.408H208.893C208.838 103.408 208.786 103.387 208.747 103.349C208.708 103.31 208.686 103.258 208.685 103.204C208.685 103.149 208.706 103.097 208.744 103.058C208.782 103.019 208.834 102.997 208.889 102.996H281.073C281.127 102.997 281.179 103.019 281.217 103.057C281.255 103.096 281.277 103.148 281.277 103.202C281.277 103.256 281.255 103.308 281.217 103.347C281.179 103.386 281.127 103.407 281.073 103.408Z" fill="#CCCCCC"/>
<path d="M281.073 108.35H208.893C208.838 108.351 208.786 108.329 208.747 108.291C208.708 108.253 208.686 108.201 208.685 108.146C208.685 108.092 208.706 108.039 208.744 108C208.782 107.961 208.834 107.939 208.889 107.938H281.073C281.127 107.939 281.179 107.961 281.217 108C281.255 108.038 281.277 108.09 281.277 108.144C281.277 108.199 281.255 108.251 281.217 108.289C281.179 108.328 281.127 108.35 281.073 108.35Z" fill="#CCCCCC"/>
<path d="M281.073 113.294H208.893C208.838 113.294 208.786 113.273 208.747 113.234C208.708 113.196 208.686 113.144 208.685 113.09C208.685 113.035 208.706 112.983 208.744 112.944C208.782 112.905 208.834 112.883 208.889 112.882H281.073C281.127 112.882 281.179 112.904 281.217 112.943C281.255 112.981 281.277 113.034 281.277 113.088C281.277 113.142 281.255 113.194 281.217 113.233C281.179 113.271 281.127 113.293 281.073 113.294Z" fill="#CCCCCC"/>
<path d="M268.411 64.0774V90.8519H201.242C197.687 90.9755 194.228 89.6835 191.627 87.2602C189.026 84.837 187.495 81.4809 187.371 77.9304C187.247 74.3799 188.541 70.9257 190.968 68.3278C193.394 65.7299 196.754 64.201 200.31 64.0774C200.62 64.0666 200.931 64.0666 201.242 64.0774H268.411Z" fill="#F2F2F2"/>
<path d="M270.061 90.6463C270.061 90.9194 269.952 91.1813 269.759 91.3744C269.565 91.5675 269.303 91.676 269.03 91.6761H200.046C196.299 91.6761 192.706 90.1898 190.057 87.544C187.408 84.8982 185.919 81.3097 185.919 77.568C185.919 73.8263 187.408 70.2379 190.057 67.5921C192.706 64.9463 196.299 63.46 200.046 63.46H269.03C269.165 63.46 269.299 63.4866 269.424 63.5383C269.549 63.5901 269.663 63.6659 269.759 63.7616C269.854 63.8572 269.93 63.9707 269.982 64.0957C270.034 64.2206 270.061 64.3545 270.061 64.4898C270.061 64.625 270.034 64.7589 269.982 64.8838C269.93 65.0088 269.854 65.1223 269.759 65.2179C269.663 65.3135 269.549 65.3894 269.424 65.4411C269.299 65.4929 269.165 65.5195 269.03 65.5195H200.046C196.846 65.5195 193.778 66.7889 191.515 69.0485C189.253 71.308 187.982 74.3726 187.982 77.5681C187.982 80.7635 189.253 83.8281 191.515 86.0877C193.778 88.3472 196.846 89.6166 200.046 89.6166H269.03C269.303 89.6167 269.565 89.7252 269.759 89.9183C269.952 90.1114 270.061 90.3733 270.061 90.6463Z" fill="#3F3D56"/>
<path d="M268.411 70.2566H196.231C196.176 70.2569 196.124 70.2356 196.085 70.1974C196.046 70.1591 196.024 70.1071 196.023 70.0526C196.023 69.9981 196.044 69.9456 196.082 69.9067C196.12 69.8677 196.172 69.8454 196.227 69.8447H268.411C268.465 69.8453 268.517 69.8672 268.555 69.9058C268.594 69.9443 268.615 69.9964 268.615 70.0507C268.615 70.1049 268.594 70.157 268.555 70.1956C268.517 70.2341 268.465 70.2561 268.411 70.2566Z" fill="#CCCCCC"/>
<path d="M268.411 75.199H196.231C196.176 75.1993 196.124 75.178 196.085 75.1398C196.046 75.1015 196.024 75.0495 196.023 74.995C196.023 74.9405 196.044 74.888 196.082 74.8491C196.12 74.8101 196.172 74.7878 196.227 74.7871H268.411C268.465 74.7877 268.517 74.8096 268.555 74.8482C268.594 74.8867 268.615 74.9388 268.615 74.9931C268.615 75.0473 268.594 75.0994 268.555 75.138C268.517 75.1766 268.465 75.1985 268.411 75.199Z" fill="#CCCCCC"/>
<path d="M268.411 80.1424H196.231C196.176 80.1427 196.124 80.1214 196.085 80.0831C196.046 80.0449 196.024 79.9928 196.023 79.9383C196.023 79.8838 196.044 79.8314 196.082 79.7924C196.12 79.7535 196.172 79.7312 196.227 79.7305H268.411C268.465 79.731 268.517 79.7529 268.555 79.7915C268.594 79.8301 268.615 79.8822 268.615 79.9364C268.615 79.9907 268.594 80.0428 268.555 80.0813C268.517 80.1199 268.465 80.1418 268.411 80.1424Z" fill="#CCCCCC"/>
<path d="M268.411 85.0847H196.231C196.176 85.085 196.124 85.0637 196.085 85.0255C196.046 84.9872 196.024 84.9352 196.023 84.8807C196.023 84.8262 196.044 84.7737 196.082 84.7348C196.12 84.6958 196.172 84.6736 196.227 84.6729H268.411C268.465 84.6734 268.517 84.6953 268.555 84.7339C268.594 84.7725 268.615 84.8245 268.615 84.8788C268.615 84.9331 268.594 84.9851 268.555 85.0237C268.517 85.0623 268.465 85.0842 268.411 85.0847Z" fill="#CCCCCC"/>
<path d="M346.548 215.202V191.857C346.548 190.825 346.138 189.835 345.407 189.105C344.676 188.376 343.685 187.966 342.652 187.966H254.019C252.986 187.966 251.995 188.376 251.264 189.105C250.534 189.835 250.123 190.825 250.123 191.857V215.202H346.548Z" fill="#CCCCCC"/>
<path d="M346.548 223.956H250.123V254.11H346.548V223.956Z" fill="#CCCCCC"/>
<path d="M250.123 262.865V286.21C250.123 287.242 250.534 288.232 251.264 288.961C251.995 289.691 252.986 290.101 254.019 290.101H342.652C343.685 290.101 344.676 289.691 345.407 288.961C346.138 288.232 346.548 287.242 346.548 286.21V262.865H250.123Z" fill="#CCCCCC"/>
<path d="M297.849 205.475C299.462 205.475 300.771 204.168 300.771 202.557C300.771 200.945 299.462 199.639 297.849 199.639C296.235 199.639 294.927 200.945 294.927 202.557C294.927 204.168 296.235 205.475 297.849 205.475Z" fill="white"/>
<path d="M297.849 244.383C299.462 244.383 300.771 243.077 300.771 241.465C300.771 239.853 299.462 238.547 297.849 238.547C296.235 238.547 294.927 239.853 294.927 241.465C294.927 243.077 296.235 244.383 297.849 244.383Z" fill="white"/>
<path d="M298.005 282.468C299.619 282.468 300.927 281.162 300.927 279.55C300.927 277.938 299.619 276.632 298.005 276.632C296.392 276.632 295.083 277.938 295.083 279.55C295.083 281.162 296.392 282.468 298.005 282.468Z" fill="white"/>
<path d="M335.616 161.348V188.122H268.448C264.894 188.243 261.438 186.95 258.838 184.527C256.239 182.104 254.709 178.75 254.586 175.201C254.462 171.652 255.754 168.199 258.178 165.602C260.603 163.004 263.961 161.474 267.514 161.348C267.825 161.337 268.136 161.337 268.448 161.348H335.616Z" fill="#F2F2F2"/>
<path d="M337.266 187.917C337.266 188.19 337.157 188.452 336.964 188.645C336.77 188.838 336.508 188.947 336.235 188.947H267.251C263.505 188.948 259.913 187.463 257.263 184.819C254.613 182.175 253.123 178.588 253.121 174.847C253.119 171.106 254.604 167.518 257.251 164.87C259.898 162.223 263.489 160.734 267.234 160.73H336.235C336.37 160.73 336.505 160.756 336.63 160.808C336.756 160.86 336.87 160.935 336.966 161.031C337.062 161.127 337.138 161.24 337.19 161.366C337.242 161.491 337.269 161.625 337.269 161.76C337.269 161.896 337.242 162.03 337.19 162.155C337.138 162.28 337.062 162.394 336.966 162.489C336.87 162.585 336.756 162.661 336.63 162.712C336.505 162.764 336.37 162.79 336.235 162.79H267.251C264.054 162.794 260.99 164.065 258.731 166.325C256.472 168.584 255.203 171.646 255.203 174.839C255.203 178.031 256.472 181.094 258.731 183.353C260.99 185.612 264.054 186.883 267.251 186.887H336.235C336.508 186.887 336.77 186.996 336.964 187.189C337.157 187.382 337.266 187.644 337.266 187.917Z" fill="#3F3D56"/>
<path d="M335.616 167.527H263.436C263.382 167.527 263.329 167.506 263.29 167.468C263.251 167.43 263.229 167.378 263.229 167.323C263.228 167.269 263.249 167.216 263.288 167.177C263.326 167.138 263.378 167.116 263.432 167.115H335.616C335.67 167.116 335.722 167.138 335.761 167.176C335.799 167.215 335.82 167.267 335.82 167.321C335.82 167.375 335.799 167.428 335.761 167.466C335.722 167.505 335.67 167.527 335.616 167.527Z" fill="#CCCCCC"/>
<path d="M335.616 172.471H263.436C263.382 172.471 263.329 172.449 263.29 172.411C263.251 172.373 263.229 172.321 263.229 172.266C263.228 172.212 263.249 172.16 263.288 172.121C263.326 172.082 263.378 172.059 263.432 172.059H335.616C335.67 172.059 335.722 172.081 335.761 172.12C335.799 172.158 335.82 172.21 335.82 172.265C335.82 172.319 335.799 172.371 335.761 172.409C335.722 172.448 335.67 172.47 335.616 172.471Z" fill="#CCCCCC"/>
<path d="M335.616 177.413H263.436C263.382 177.413 263.329 177.392 263.29 177.354C263.251 177.315 263.229 177.263 263.229 177.209C263.228 177.154 263.249 177.102 263.288 177.063C263.326 177.024 263.378 177.002 263.432 177.001H335.616C335.67 177.002 335.722 177.023 335.761 177.062C335.799 177.101 335.82 177.153 335.82 177.207C335.82 177.261 335.799 177.313 335.761 177.352C335.722 177.39 335.67 177.412 335.616 177.413Z" fill="#CCCCCC"/>
<path d="M335.616 182.356H263.436C263.382 182.357 263.329 182.335 263.29 182.297C263.251 182.259 263.229 182.207 263.229 182.152C263.228 182.098 263.249 182.045 263.288 182.006C263.326 181.967 263.378 181.945 263.432 181.944H335.616C335.67 181.945 335.722 181.967 335.761 182.005C335.799 182.044 335.82 182.096 335.82 182.15C335.82 182.205 335.799 182.257 335.761 182.295C335.722 182.334 335.67 182.356 335.616 182.356Z" fill="#CCCCCC"/>
<path d="M256.73 55.1453H226.128C225.837 55.145 225.551 55.2116 225.29 55.3398L217.566 59.2014C217.312 59.3093 217.095 59.4895 216.943 59.7196C216.79 59.9496 216.709 60.2193 216.709 60.4951C216.709 60.7709 216.79 61.0407 216.943 61.2707C217.095 61.5007 217.312 61.6809 217.566 61.7888L225.29 65.6504C225.551 65.7787 225.837 65.8452 226.128 65.845H256.73C257.152 65.8694 257.566 65.7268 257.884 65.4483C258.201 65.1697 258.395 64.7775 258.425 64.3567V56.6335C258.395 56.2127 258.201 55.8205 257.884 55.542C257.566 55.2634 257.152 55.1209 256.73 55.1453Z" fill="#3F3D56"/>
<path d="M258.425 56.6335V64.3568C258.395 64.7776 258.201 65.1698 257.884 65.4483C257.566 65.7269 257.152 65.8694 256.73 65.8451H250.633V55.1453H256.73C257.152 55.1209 257.566 55.2634 257.884 55.542C258.201 55.8205 258.395 56.2127 258.425 56.6335Z" fill="#029AA4"/>
<path d="M73.2579 206.48C77.1984 207.864 81.4293 208.21 85.5428 207.486C89.6564 206.763 93.514 204.993 96.744 202.349C104.97 195.453 107.549 184.093 109.648 173.574C111.717 163.204 113.786 152.833 115.855 142.462L102.86 151.398C93.5143 157.825 83.9584 164.457 77.4877 173.765C71.017 183.074 68.1925 195.78 73.3915 205.852" fill="#E6E6E6"/>
<path d="M74.3686 244.148C73.0534 234.58 71.7009 224.889 72.6235 215.219C73.4429 206.63 76.0665 198.242 81.408 191.364C84.2433 187.72 87.6932 184.598 91.6028 182.138C92.6223 181.495 93.5606 183.109 92.5456 183.748C85.7809 188.018 80.5487 194.323 77.6033 201.754C74.3501 210.017 73.8277 219.025 74.3883 227.803C74.7273 233.112 75.4458 238.386 76.1699 243.652C76.2269 243.891 76.1913 244.142 76.0702 244.355C75.9491 244.568 75.7516 244.727 75.5175 244.8C75.2787 244.864 75.0242 244.832 74.8091 244.71C74.5941 244.588 74.4358 244.386 74.3686 244.148Z" fill="#F2F2F2"/>
<path d="M87.0374 227.217C88.7274 229.782 91.0504 231.87 93.7827 233.278C96.5149 234.686 99.5643 235.368 102.637 235.258C110.534 234.883 117.117 229.379 123.044 224.154L140.573 208.697L128.971 208.143C120.628 207.744 112.07 207.372 104.124 209.941C96.1776 212.511 88.849 218.694 87.396 226.909" fill="#E6E6E6"/>
<path d="M70.6515 249.648C76.9822 238.461 84.3253 226.028 97.446 222.054C101.094 220.953 104.92 220.559 108.716 220.892C109.913 220.995 109.614 222.837 108.42 222.734C102.056 222.207 95.7041 223.885 90.4341 227.486C85.3629 230.934 81.4144 235.726 78.0725 240.809C76.0254 243.922 74.1918 247.167 72.3578 250.408C71.7717 251.444 70.0586 250.696 70.6515 249.648Z" fill="#F2F2F2"/>
<path d="M60.5082 261.423C60.7215 258.955 61.6088 256.593 63.0737 254.593C64.5385 252.594 66.5246 251.034 68.8157 250.084V243.616H79.6773V250.287C81.8556 251.284 83.7303 252.84 85.1102 254.796C86.4902 256.753 87.326 259.039 87.5325 261.423L90.0865 291.073H57.9541L60.5082 261.423Z" fill="#F2F2F2"/>
<path d="M429.892 119.851L426.661 118.492L424.445 102.315H394.927L392.525 118.426L389.634 119.869C389.495 119.938 389.385 120.052 389.319 120.192C389.254 120.332 389.237 120.49 389.273 120.64C389.308 120.79 389.394 120.924 389.515 121.02C389.636 121.116 389.786 121.168 389.941 121.168H429.626C429.784 121.168 429.938 121.113 430.061 121.013C430.183 120.913 430.268 120.773 430.299 120.618C430.33 120.463 430.307 120.302 430.233 120.162C430.159 120.022 430.038 119.912 429.892 119.851Z" fill="#E6E6E6"/>
<path d="M482.347 104.467H337.349C336.588 104.466 335.859 104.163 335.322 103.625C334.784 103.087 334.483 102.358 334.483 101.598V81.1787H485.213V101.598C485.213 102.358 484.911 103.087 484.374 103.625C483.837 104.163 483.108 104.466 482.347 104.467Z" fill="#CCCCCC"/>
<path d="M485.365 90.83H334.35V3.45839C334.351 2.54147 334.717 1.66241 335.366 1.01407C336.015 0.365721 336.895 0.00102597 337.813 0H481.901C482.82 0.00102595 483.7 0.365722 484.349 1.01407C484.998 1.66241 485.364 2.54147 485.365 3.45839L485.365 90.83Z" fill="#3F3D56"/>
<path d="M476.345 84.4881H343.37C342.662 84.4874 341.983 84.2062 341.483 83.7064C340.982 83.2065 340.701 82.5288 340.7 81.822V9.00717C340.701 8.30026 340.982 7.62253 341.483 7.12267C341.983 6.62281 342.662 6.34163 343.37 6.34082H476.345C477.053 6.34163 477.731 6.62281 478.232 7.12267C478.732 7.62253 479.014 8.30026 479.015 9.00717V81.822C479.014 82.5288 478.732 83.2065 478.232 83.7064C477.731 84.2062 477.053 84.4874 476.345 84.4881Z" fill="white"/>
<path d="M441.321 110.182C442.18 109.39 443.202 108.795 444.315 108.44C445.429 108.086 446.606 107.979 447.766 108.128C448.925 108.277 450.037 108.678 451.024 109.302C452.012 109.927 452.85 110.76 453.48 111.743L471.466 108.55L476.075 118.992L450.611 123.146C448.887 124.093 446.875 124.376 444.957 123.941C443.038 123.506 441.345 122.383 440.2 120.785C439.055 119.187 438.537 117.225 438.743 115.27C438.95 113.316 439.867 111.506 441.321 110.182Z" fill="#FFB6B6"/>
<path d="M457.974 123.515L476.725 123.282L479.099 123.25L517.249 122.77C517.249 122.77 527.609 112.899 536.63 102.736L535.366 93.6031C534.132 84.6396 529.68 76.4289 522.837 70.499C509.917 79.1209 502.425 96.1868 502.425 96.1868L478.77 101.837L476.404 102.402L461.706 105.91L457.974 123.515Z" fill="#029AA4"/>
<path d="M553.964 179.652H518.962C518.962 181.15 480.701 182.366 480.701 182.366C479.857 183 479.088 183.729 478.408 184.536C476.365 186.969 475.249 190.044 475.256 193.219V195.39C475.257 198.988 476.689 202.438 479.236 204.982C481.784 207.526 485.238 208.955 488.841 208.957H553.964C557.566 208.953 561.019 207.523 563.566 204.98C566.113 202.436 567.545 198.987 567.549 195.39V193.219C567.544 189.623 566.111 186.175 563.564 183.631C561.018 181.088 557.565 179.657 553.964 179.652Z" fill="#E4E4E4"/>
<path d="M528.511 208.418H514.383V289.859H528.511V208.418Z" fill="#E4E4E4"/>
<path d="M474.172 289.363C474.172 290.887 495.581 289.953 521.99 289.953C548.399 289.953 569.808 290.887 569.808 289.363C569.808 287.838 548.399 275.749 521.99 275.749C495.581 275.749 474.172 287.838 474.172 289.363Z" fill="#E4E4E4"/>
<path d="M464.682 280.058L454.167 280.057L449.165 239.554L464.683 239.554L464.682 280.058Z" fill="#FFB6B6"/>
<path d="M467.363 290.236L433.459 290.235V289.807C433.46 286.311 434.85 282.96 437.325 280.488C439.8 278.017 443.156 276.628 446.656 276.628H446.657L467.364 276.629L467.363 290.236Z" fill="#2F2E41"/>
<path d="M433.605 280.058L423.09 280.057L418.088 239.554L433.606 239.554L433.605 280.058Z" fill="#FFB6B6"/>
<path d="M436.286 290.236L402.383 290.235V289.807C402.383 286.311 403.773 282.96 406.248 280.488C408.723 278.017 412.079 276.628 415.579 276.628H415.58L436.287 276.629L436.286 290.236Z" fill="#2F2E41"/>
<path d="M527.793 46.8755C537.89 46.8755 546.075 38.7011 546.075 28.6174C546.075 18.5338 537.89 10.3594 527.793 10.3594C517.696 10.3594 509.511 18.5338 509.511 28.6174C509.511 38.7011 517.696 46.8755 527.793 46.8755Z" fill="#FFB6B6"/>
<path d="M557.382 153.714C557.382 153.714 563.516 186.108 540.176 190.233C516.837 194.359 483.146 197.258 483.146 197.258L468.016 267.754L447.689 265.942C447.689 265.942 450.393 181.08 457.041 174.441C463.689 167.801 505.707 147.922 505.707 147.922L557.382 153.714Z" fill="#2F2E41"/>
<path d="M511.798 140.138L501.591 150.365C501.591 150.365 427.885 162.221 425.042 179.222C420.749 204.89 415.679 260.705 415.679 260.705L437.839 259.046L446.529 195.598L481.985 187.543L522.324 165.588L511.798 140.138Z" fill="#2F2E41"/>
<path d="M545.385 17.7184C543.58 14.3179 541.287 7.54066 537.645 6.28374C535.622 5.61388 533.531 5.16907 531.411 4.9574L525.219 7.3356L528.589 4.71827C527.933 4.67924 527.277 4.64733 526.622 4.62254L522.444 6.22712L524.582 4.56702C520.687 4.5271 516.667 4.93152 513.649 7.29927C511.077 9.31778 508.528 16.9643 508.116 20.2055C507.675 23.3062 507.829 26.4623 508.57 29.5054L509.628 30.51C509.998 29.6626 510.276 28.778 510.458 27.8715C510.837 26.1776 511.566 24.5812 512.597 23.1841C513.628 21.7869 514.939 20.6197 516.447 19.7566L516.505 19.7242C518.279 18.7269 520.432 18.7729 522.467 18.846L532.131 19.1933C534.456 19.2769 536.959 19.4238 538.772 20.8803C539.924 21.9547 540.83 23.2652 541.427 24.7219C542.328 26.5374 544.088 33.3851 544.088 33.3851C544.088 33.3851 545.084 32.0925 545.561 33.0545C546.327 30.5445 546.792 27.9528 546.948 25.3335C547.1 22.7026 546.561 20.0775 545.385 17.7184Z" fill="#2F2E41"/>
<path d="M609.328 36.6352C608.161 36.7119 607.026 37.043 606.002 37.6053C604.978 38.1675 604.09 38.9471 603.4 39.8893C602.71 40.8315 602.235 41.9133 602.009 43.0585C601.783 44.2036 601.812 45.3843 602.092 46.5174L587.391 57.3477L591.802 67.8753L612.348 52.2896C614.223 51.693 615.813 50.4302 616.818 48.7407C617.823 47.0511 618.173 45.0522 617.8 43.1226C617.428 41.193 616.36 39.4668 614.798 38.2711C613.237 37.0755 611.29 36.4934 609.328 36.6352Z" fill="#FFB6B6"/>
<path d="M606.962 58.7457L570.106 99.6238C570.106 99.6238 552.481 93.989 538.851 87.88L532.727 69.097C531.305 64.7395 530.698 60.1579 530.937 55.5811C549.833 50.5596 571.811 69.2442 571.811 69.2442L599.399 47.6631L606.962 58.7457Z" fill="#029AA4"/>
<path d="M520.964 156.734C514.389 154.465 507.59 152.12 500.256 151.239L499.941 151.201L500.028 150.897C507.62 124.276 505.725 107.247 502.004 81.6676C501.213 76.1501 502.23 70.5249 504.903 65.6318C507.575 60.7387 511.761 56.8399 516.835 54.5175L516.88 54.4972L537.825 53.1679L537.873 53.165L553.107 57.6394C555.298 58.2879 557.216 59.636 558.567 61.4771C559.918 63.3183 560.627 65.551 560.586 67.8332C560.421 76.2456 560.771 85.6378 561.141 95.5812C561.972 117.889 562.832 140.956 557.954 155.922L557.929 156.001L557.864 156.052C553.38 159.699 547.762 161.67 541.979 161.624C535.141 161.624 528.164 159.217 520.964 156.734Z" fill="#029AA4"/>
<path d="M673.026 292H0.97399C0.715673 292 0.467937 291.898 0.285279 291.715C0.102621 291.533 0 291.285 0 291.027C0 290.769 0.102621 290.522 0.285279 290.34C0.467937 290.157 0.715673 290.055 0.97399 290.055H673.026C673.284 290.055 673.532 290.157 673.715 290.34C673.897 290.522 674 290.769 674 291.027C674 291.285 673.897 291.533 673.715 291.715C673.532 291.898 673.284 292 673.026 292Z" fill="#CCCCCC"/>
</g>
<defs>
<clipPath id="clip0_325_2363">
<rect width="674" height="292" fill="white"/>
</clipPath>
</defs>
</svg>
