<svg width="17" height="17" viewBox="0 0 17 17" fill="none" xmlns="http://www.w3.org/2000/svg">
<path d="M8.72503 10.9322C9.94403 10.9322 10.9322 9.94403 10.9322 8.72503C10.9322 7.50602 9.94403 6.51788 8.72503 6.51788C7.50602 6.51788 6.51788 7.50602 6.51788 8.72503C6.51788 9.94403 7.50602 10.9322 8.72503 10.9322Z" stroke="black" stroke-width="0.8" stroke-linecap="round" stroke-linejoin="round"/>
<path d="M15.099 7.60896C14.7933 7.53122 14.5422 7.31383 14.4215 7.02242L13.9985 6.00084C13.8553 5.65508 13.9171 5.25832 14.1588 4.97255L14.3111 4.79238C14.6468 4.39533 14.6223 3.80726 14.2546 3.4396L14.0138 3.19883C13.6447 2.82975 13.0539 2.80661 12.6571 3.14572L12.4842 3.29346C12.1989 3.53724 11.8012 3.60081 11.4542 3.45809L10.3888 3.01995C10.0988 2.90071 9.88158 2.6524 9.80193 2.34917L9.63935 1.73025C9.52632 1.29997 9.13737 1 8.6925 1V1C8.24778 1 7.85894 1.29975 7.74576 1.72982L7.57491 2.37903C7.49594 2.67908 7.28217 2.92548 6.99627 3.046L5.98816 3.47096C5.6329 3.62071 5.2232 3.55291 4.93513 3.29669L4.79476 3.17184C4.39904 2.81987 3.79754 2.83746 3.42306 3.21194L3.18272 3.45228C2.82037 3.81463 2.79056 4.39225 3.11369 4.78996L3.29462 5.01265C3.52473 5.29588 3.58229 5.68196 3.4448 6.01998L3.02776 7.04533C2.90546 7.34601 2.64483 7.56862 2.32872 7.6424L1.76673 7.77356C1.31767 7.87836 1 8.27871 1 8.73983V8.73983C1 9.18719 1.29936 9.57922 1.73092 9.69704L2.38567 9.87579C2.68187 9.95665 2.92451 10.1691 3.04378 10.452L3.47048 11.4643C3.6204 11.8199 3.55228 12.2301 3.29546 12.5182L3.17334 12.6552C2.82064 13.0508 2.83791 13.6529 3.21269 14.0277L3.45132 14.2663C3.81408 14.6291 4.39249 14.6585 4.79017 14.3344L5.01212 14.1535C5.29652 13.9217 5.68501 13.8643 6.0243 14.0039L7.0209 14.4139C7.31389 14.5344 7.53243 14.7867 7.61001 15.0938L7.76328 15.7008C7.87454 16.1413 8.27087 16.45 8.72527 16.45V16.45C9.17942 16.45 9.57559 16.1417 9.68709 15.7014L9.84128 15.0926C9.91881 14.7865 10.1363 14.535 10.4281 14.4142L11.4994 13.9705C11.8183 13.8385 12.1807 13.883 12.4444 14.1056C12.511 14.1619 12.5799 14.2207 12.6486 14.2798C13.0511 14.6264 13.6541 14.6109 14.0297 14.2353L14.2538 14.0112C14.6218 13.6432 14.646 13.0545 14.3094 12.6575L14.1531 12.4731C13.9108 12.1873 13.8487 11.79 13.992 11.4439L14.4163 10.4193C14.5362 10.1297 14.785 9.91306 15.0884 9.83413L15.713 9.67163C16.147 9.5587 16.4499 9.16687 16.45 8.71841V8.71841C16.45 8.26789 16.1443 7.87477 15.7077 7.76374L15.099 7.60896Z" stroke="black" stroke-linecap="round" stroke-linejoin="round"/>
</svg>
