<svg width="132" height="40" viewBox="0 0 132 40" fill="none" xmlns="http://www.w3.org/2000/svg">
<path d="M26.5207 2.61163L32.21 4.86791M26.5207 2.61163L20.8314 1L15.142 2.61163M26.5207 2.61163H15.142M26.5207 2.61163L34.8109 9.86396M26.5207 2.61163L23.9199 8.57466M32.21 4.86791L38.7121 14.5377L38.4037 20.5007M32.21 4.86791L34.8109 9.86396M38.0619 27.1084L30.9096 35.4889L25.2203 37.1005M38.0619 27.1084L33.8356 30.4928M38.0619 27.1084L38.4037 20.5007M25.2203 37.1005L19.2059 38.7121L8.4774 34.5219M25.2203 37.1005L13.8416 35.8112M25.2203 37.1005L33.8356 30.4928M25.2203 37.1005L22.9446 30.4928M8.4774 34.5219L4.90125 29.8482M8.4774 34.5219L13.8416 35.8112M4.90125 29.8482L1 24.8521M4.90125 29.8482L2.62552 19.0502M4.90125 29.8482L13.8416 35.8112M4.90125 29.8482L10.2655 25.8191M1 24.8521L2.13787 13.4095M1 24.8521L2.62552 19.0502M2.13787 13.4095L5.55146 8.57466M2.13787 13.4095L2.62552 19.0502M5.55146 8.57466L9.77782 4.22326L15.142 2.61163M5.55146 8.57466L15.142 2.61163M5.55146 8.57466L2.62552 19.0502M5.55146 8.57466L10.9157 12.2814M15.142 2.61163L23.9199 8.57466M15.142 2.61163L10.9157 12.2814M2.62552 19.0502L10.9157 12.2814M2.62552 19.0502L10.2655 25.8191M13.8416 35.8112L10.2655 25.8191M13.8416 35.8112L22.9446 30.4928M33.8356 30.4928L38.4037 20.5007M33.8356 30.4928H22.9446M33.8356 30.4928L31.7224 20.1784M38.4037 20.5007L34.8109 9.86396M38.4037 20.5007L31.7224 20.1784M34.8109 9.86396L31.7224 20.1784M34.8109 9.86396L23.9199 8.57466M23.9199 8.57466L10.9157 12.2814M23.9199 8.57466L31.7224 20.1784M23.9199 8.57466L20.0186 19.3726M10.9157 12.2814L10.2655 25.8191M10.9157 12.2814L20.0186 19.3726M10.2655 25.8191L22.9446 30.4928M10.2655 25.8191L20.0186 19.3726M22.9446 30.4928L20.0186 19.3726M22.9446 30.4928L31.7224 20.1784M31.7224 20.1784L20.0186 19.3726" stroke="#045257"/>
<ellipse cx="19.5508" cy="19.5337" rx="1.13787" ry="1.12814" fill="#029AA4"/>
<ellipse cx="22.4769" cy="30.4925" rx="0.487657" ry="0.483489" fill="#029AA4"/>
<ellipse cx="34.3429" cy="10.0247" rx="0.325105" ry="0.322326" fill="#029AA4"/>
<ellipse cx="23.3706" cy="8.49324" rx="0.406381" ry="0.402907" fill="#029AA4"/>
<ellipse cx="24.7526" cy="37.261" rx="0.812761" ry="0.805815" fill="#029AA4"/>
<ellipse cx="4.59581" cy="29.8476" rx="0.487657" ry="0.483489" fill="#029AA4"/>
<ellipse cx="1.83267" cy="13.2482" rx="0.325105" ry="0.322326" fill="#029AA4"/>
<ellipse cx="31.255" cy="20.1779" rx="0.812761" ry="0.805815" fill="#029AA4"/>
<ellipse cx="38.0818" cy="20.5004" rx="0.487657" ry="0.483489" fill="#029AA4"/>
<ellipse cx="38.2442" cy="14.5372" rx="0.325105" ry="0.322326" fill="#029AA4"/>
<ellipse cx="31.7423" cy="4.86749" rx="0.325105" ry="0.322326" fill="#029AA4"/>
<ellipse cx="26.0525" cy="2.77243" rx="0.487657" ry="0.483489" fill="#029AA4"/>
<ellipse cx="14.6744" cy="2.77243" rx="0.487657" ry="0.483489" fill="#029AA4"/>
<ellipse cx="10.2852" cy="12.2809" rx="0.650209" ry="0.644652" fill="#029AA4"/>
<path d="M78.1051 12.375C76.8965 13.0208 76.4663 14 76.1795 16.7917L76.0566 18H75.3396C74.9504 18 74.6637 18.0833 74.7251 18.1667C74.7866 18.2708 75.1143 18.3333 75.4626 18.3125L76.0771 18.2708V22.6458C76.0771 26.875 76.0566 27.0625 75.6264 27.5208L75.1963 28H77.3676H79.5595L79.1498 27.2083C78.7606 26.4583 78.7401 26.0625 78.7811 22.3542L78.8425 18.3125L79.8667 18.1875L80.891 18.0625L79.7848 18.0417L78.6786 18L78.822 16.0625C78.8835 15.0208 79.0883 13.6458 79.2317 13.0417C79.498 12.0625 79.498 11.9583 79.1907 11.9583C78.9859 11.9792 78.5148 12.1458 78.1051 12.375Z" fill="#045257"/>
<path d="M80.9115 12.2291C80.9525 12.375 80.8296 12.6875 80.5838 12.8958C79.8054 13.625 80.2765 15.0833 81.3212 15.0833C81.8743 15.0833 82.1611 14.8333 82.4069 14.1875C82.6732 13.4791 82.4684 13 81.6285 12.3958C80.932 11.8958 80.7681 11.8541 80.9115 12.2291Z" fill="#045257"/>
<path d="M85.3362 12.3125C84.1276 12.9167 83.6974 13.9167 83.3492 16.7917C83.2263 17.9375 83.2058 17.9792 82.5708 18.0625L81.9153 18.1458L82.5913 18.1667L83.2468 18.2083V22.5C83.2468 26.6667 83.1444 27.4375 82.5503 27.8333C82.4274 27.9167 83.3082 28 84.4963 28H86.6882L86.299 27.2292C85.9507 26.5417 85.9098 25.9792 85.9098 22.5833C85.9098 20.4583 85.9917 18.6042 86.0941 18.4583C86.1966 18.2708 86.5653 18.1875 87.0979 18.2292C87.569 18.2708 87.9992 18.2292 88.0811 18.1458C88.1631 18.0625 87.6919 18 87.0364 18H85.8483L85.9712 15.9583C86.0327 14.8542 86.2375 13.5208 86.4014 13.0208C86.5858 12.5208 86.7292 12.0833 86.7292 12.0417C86.7292 11.8542 85.9507 12 85.3362 12.3125Z" fill="#045257"/>
<path d="M88.0197 12.25C88.0811 12.4167 87.9582 12.7083 87.7329 12.9167C87.4461 13.1875 87.3437 13.5 87.3846 14.0208C87.4461 14.6458 87.5485 14.7917 88.1221 14.9583C88.88 15.1667 89.4741 14.7917 89.6789 13.9167C89.7609 13.625 89.9247 13.4167 90.0681 13.4792C90.2525 13.5417 90.3344 15.1875 90.3754 20.0625C90.4164 26.375 90.4164 26.6042 89.9862 27.2917L89.556 28H91.6249C92.7721 28 93.6939 27.9583 93.6939 27.8958C93.6939 27.8333 93.53 27.5208 93.3457 27.2292C93.0179 26.7083 92.9769 25.9583 92.9769 19.3125C92.9769 15.2708 92.936 11.9583 92.8745 11.9583C92.8131 11.9583 91.9732 12.1042 90.9899 12.3125C89.3307 12.625 89.1873 12.625 88.6957 12.3125C88.0606 11.875 87.8763 11.875 88.0197 12.25Z" fill="#045257"/>
<path d="M114.178 12.2917C112.191 12.7292 112.171 12.75 112.806 13.2708L113.38 13.7292L113.421 20.1875C113.461 26.0417 113.421 26.7083 113.093 27.3125L112.724 28H114.916H117.108L116.616 27.4583L116.124 26.9167V19.4375C116.124 12.9167 116.084 11.9583 115.817 11.9792C115.653 11.9792 114.916 12.125 114.178 12.2917Z" fill="#045257"/>
<path d="M46.6817 12.7292C44.1826 13.3542 42.6872 15.2083 43.1789 17.1042C43.4657 18.2083 44.6333 19.5 46.4974 20.7292C50.2665 23.2292 50.369 23.3125 50.8401 24.25C51.4751 25.5208 51.3522 26.625 50.4714 27.4375C50.1027 27.7708 49.8569 28.0833 49.9183 28.1458C49.9798 28.2083 50.5533 28.1042 51.1679 27.9167C52.6018 27.4792 53.8104 26.375 54.1586 25.1458C54.7322 23.1875 53.5441 21.5 49.7339 18.9375C46.9071 17 46.1696 16.1875 46.1696 14.9167C46.1696 14.1667 46.2925 13.8958 46.7842 13.4167C47.624 12.6042 47.6035 12.5 46.6817 12.7292Z" fill="#045257"/>
<path d="M49.0375 12.75C49.0375 12.875 49.3447 13.0417 49.7135 13.1042C50.369 13.25 51.5776 14.0417 52.0487 14.6667C52.1921 14.8334 52.6018 15.4792 52.95 16.0834C53.2983 16.7084 53.667 17.125 53.7694 17.0209C53.8718 16.9167 53.8718 16.3334 53.7694 15.7084C53.6465 14.9375 53.667 14.4792 53.8104 14.2917C54.1381 13.875 53.5851 13.4375 52.315 13.1042C50.7172 12.6667 49.0375 12.5 49.0375 12.75Z" fill="#045257"/>
<path d="M96.3568 13.625C95.7628 14.2291 95.8242 15.1666 96.4797 15.6875C97.2172 16.2708 97.504 16.2291 98.2209 15.5208C98.9379 14.7708 98.9584 14.3958 98.3029 13.7291C97.7088 13.1041 96.9099 13.0625 96.3568 13.625Z" fill="#045257"/>
<path d="M58.3579 14.9167C57.8048 15.0208 57.2722 15.2292 57.1903 15.3542C57.0879 15.5 57.0264 16.0208 57.0469 16.5417C57.0674 17.9792 57.0674 18 56.4938 18C56.1865 18 56.0227 18.0833 56.1251 18.2292C56.1865 18.3542 56.4324 18.4167 56.6372 18.3542C57.0879 18.2292 57.0674 18.0417 57.0469 21.5417C57.0264 25.4583 57.1698 26.6458 57.7639 27.375C58.7266 28.5208 60.7136 28.375 62.1066 27.0625C62.9055 26.3333 62.9055 25.8542 62.1066 26.4167C61.4511 26.8958 60.7751 26.8333 60.2015 26.2292C59.6894 25.7292 59.6894 25.6667 59.6894 22.0833V18.4167L60.2015 18.2917C60.4883 18.2292 61.0004 18.2083 61.3282 18.2917C61.6764 18.3542 61.9427 18.3125 61.9427 18.2083C61.9427 18.0833 61.4306 18 60.8161 18H59.6894L59.6689 16.8958C59.6689 15.8958 59.546 14.8333 59.4231 14.7708C59.4026 14.75 58.9315 14.8333 58.3579 14.9167Z" fill="#045257"/>
<path d="M67.4736 18C67.2278 18.1458 67.2483 18.2083 67.5761 18.3125C68.5798 18.6458 69.1329 18.8958 69.2148 19.0625C69.4606 19.4375 69.7269 21.4791 69.6245 22C69.5221 22.4166 69.3377 22.5833 68.8461 22.6875C67.7604 22.9166 65.5481 23.6666 65.0564 24C63.8683 24.7916 63.7249 26.5 64.7697 27.4791C65.5481 28.2083 66.3675 28.3125 67.6785 27.8541C68.9075 27.4166 69.2558 26.8125 68.2111 26.9166C67.3507 27.0208 66.8591 26.4583 66.8591 25.3333C66.8591 24.5833 66.9615 24.3125 67.4736 23.8333C68.0472 23.2916 69.2148 22.8333 69.4401 23.0625C69.5016 23.1041 69.5835 23.9791 69.645 25C69.7064 26.125 69.8703 27.0416 70.0547 27.3333C70.7512 28.4166 72.7177 28.4375 73.7214 27.375C74.3564 26.7083 74.3155 26.375 73.66 26.7291C72.6153 27.2916 72.4104 26.8125 72.2875 23.4791C72.1441 20.2916 71.9598 19.5208 71.2018 18.7708C70.321 17.8958 68.2725 17.4791 67.4736 18Z" fill="#045257"/>
<path d="M106.681 18.2917C106.107 18.5625 105.575 18.9375 105.513 19.125C105.411 19.3958 105.554 19.4583 106.394 19.4583C107.972 19.4583 108.135 19.8542 108.135 23.625C108.115 26.1667 108.053 26.7708 107.767 27.2292C107.582 27.5208 107.418 27.8333 107.418 27.8958C107.418 27.9583 108.34 28 109.467 28H111.495L111.106 27.1042C110.757 26.375 110.696 25.7292 110.696 23.0417C110.696 19.3542 110.512 18.6667 109.405 18.1458C108.443 17.6667 107.931 17.7083 106.681 18.2917Z" fill="#045257"/>
<path d="M97.8932 18.1042C97.7908 18.1458 97.1558 18.2917 96.5207 18.4167C95.2712 18.6667 94.9844 19.0417 95.7423 19.4583C96.1315 19.6667 96.152 19.8958 96.152 23.0833C96.152 25.6458 96.0701 26.6667 95.8448 27.25L95.5375 28H97.5655H99.5934L99.2042 27.2292C98.856 26.5417 98.815 25.9583 98.815 22.2292C98.815 18.3333 98.7945 18 98.4668 18.0208C98.2619 18.0208 98.0161 18.0625 97.8932 18.1042Z" fill="#045257"/>
<path d="M102.482 18.3125C100.822 18.6875 100.72 18.7917 101.376 19.3958L101.929 19.9167L101.847 23.3958C101.806 26.2917 101.724 26.9583 101.416 27.4375L101.068 28H103.24H105.431L105.042 27.5625C104.694 27.1667 104.653 26.7083 104.592 22.5625C104.51 17.3542 104.755 17.8125 102.482 18.3125Z" fill="#045257"/>
<path d="M119.484 18.4375C119.832 18.6458 120.119 18.9792 120.119 19.1667C120.119 19.6042 119.381 20.6042 117.804 22.3333C116.452 23.8125 116.411 23.5625 118.234 26.0625C119.402 27.6458 119.504 27.7292 120.426 27.8542C120.959 27.9375 121.963 28 122.659 28L123.909 27.9792L123.151 27.6042C122.72 27.375 122.27 27.0833 122.106 26.9375C121.532 26.3125 118.685 22.2917 118.685 22.0625C118.685 21.6042 121.082 19.4583 122.167 18.9583C122.782 18.6667 123.396 18.4167 123.54 18.4167C123.663 18.4167 123.827 18.3333 123.888 18.25C123.929 18.1667 122.823 18.0833 121.409 18.0625L118.849 18.0417L119.484 18.4375Z" fill="#045257"/>
<path d="M65.3227 19.3959C64.6877 20.375 64.6877 20.6042 65.3227 21.2292C65.9168 21.8542 66.0397 21.875 66.6132 21.3334C67.1663 20.7917 67.1868 20.0625 66.6542 19.5625C66.4289 19.3542 66.2445 19.0625 66.2445 18.8959C66.2445 18.3959 65.8553 18.6042 65.3227 19.3959Z" fill="#045257"/>
<path d="M43.3428 24.8125L43.4042 26.8542L44.1621 27.2292C45.3298 27.8125 48.1771 28.3333 48.4639 28.0417C48.6483 27.8542 48.6073 27.7917 48.3 27.7917C48.0952 27.7917 47.4397 27.5625 46.8661 27.2917C45.7395 26.75 44.6947 25.5 43.9573 23.7708C43.7115 23.2292 43.4657 22.7917 43.4042 22.7917C43.3428 22.7917 43.3223 23.7083 43.3428 24.8125Z" fill="#045257"/>
</svg>
