<svg width="40" height="40" viewBox="0 0 40 40" fill="none" xmlns="http://www.w3.org/2000/svg">
<path d="M26.5207 2.61163L32.21 4.86791M26.5207 2.61163L20.8314 1L15.142 2.61163M26.5207 2.61163H15.142M26.5207 2.61163L34.8109 9.86396M26.5207 2.61163L23.9199 8.57466M32.21 4.86791L38.7121 14.5377L38.4037 20.5007M32.21 4.86791L34.8109 9.86396M38.0619 27.1084L30.9096 35.4889L25.2203 37.1005M38.0619 27.1084L33.8356 30.4928M38.0619 27.1084L38.4037 20.5007M25.2203 37.1005L19.2059 38.7121L8.4774 34.5219M25.2203 37.1005L13.8416 35.8112M25.2203 37.1005L33.8356 30.4928M25.2203 37.1005L22.9446 30.4928M8.4774 34.5219L4.90125 29.8482M8.4774 34.5219L13.8416 35.8112M4.90125 29.8482L1 24.8521M4.90125 29.8482L2.62552 19.0502M4.90125 29.8482L13.8416 35.8112M4.90125 29.8482L10.2655 25.8191M1 24.8521L2.13787 13.4095M1 24.8521L2.62552 19.0502M2.13787 13.4095L5.55146 8.57466M2.13787 13.4095L2.62552 19.0502M5.55146 8.57466L9.77782 4.22326L15.142 2.61163M5.55146 8.57466L15.142 2.61163M5.55146 8.57466L2.62552 19.0502M5.55146 8.57466L10.9157 12.2814M15.142 2.61163L23.9199 8.57466M15.142 2.61163L10.9157 12.2814M2.62552 19.0502L10.9157 12.2814M2.62552 19.0502L10.2655 25.8191M13.8416 35.8112L10.2655 25.8191M13.8416 35.8112L22.9446 30.4928M33.8356 30.4928L38.4037 20.5007M33.8356 30.4928H22.9446M33.8356 30.4928L31.7224 20.1784M38.4037 20.5007L34.8109 9.86396M38.4037 20.5007L31.7224 20.1784M34.8109 9.86396L31.7224 20.1784M34.8109 9.86396L23.9199 8.57466M23.9199 8.57466L10.9157 12.2814M23.9199 8.57466L31.7224 20.1784M23.9199 8.57466L20.0186 19.3726M10.9157 12.2814L10.2655 25.8191M10.9157 12.2814L20.0186 19.3726M10.2655 25.8191L22.9446 30.4928M10.2655 25.8191L20.0186 19.3726M22.9446 30.4928L20.0186 19.3726M22.9446 30.4928L31.7224 20.1784M31.7224 20.1784L20.0186 19.3726" stroke="white"/>
<ellipse cx="19.5508" cy="19.5337" rx="1.13787" ry="1.12814" fill="#029AA4"/>
<ellipse cx="22.4769" cy="30.4925" rx="0.487657" ry="0.483489" fill="#029AA4"/>
<ellipse cx="34.3429" cy="10.0247" rx="0.325105" ry="0.322326" fill="#029AA4"/>
<ellipse cx="23.3706" cy="8.49324" rx="0.406381" ry="0.402907" fill="#029AA4"/>
<ellipse cx="24.7526" cy="37.261" rx="0.812761" ry="0.805815" fill="#029AA4"/>
<ellipse cx="4.59581" cy="29.8476" rx="0.487657" ry="0.483489" fill="#029AA4"/>
<ellipse cx="1.83267" cy="13.2482" rx="0.325105" ry="0.322326" fill="#029AA4"/>
<ellipse cx="31.255" cy="20.1779" rx="0.812761" ry="0.805815" fill="#029AA4"/>
<ellipse cx="38.0818" cy="20.5004" rx="0.487657" ry="0.483489" fill="#029AA4"/>
<ellipse cx="38.2442" cy="14.5372" rx="0.325105" ry="0.322326" fill="#029AA4"/>
<ellipse cx="31.7423" cy="4.86749" rx="0.325105" ry="0.322326" fill="#029AA4"/>
<ellipse cx="26.0525" cy="2.77243" rx="0.487657" ry="0.483489" fill="#029AA4"/>
<ellipse cx="14.6744" cy="2.77243" rx="0.487657" ry="0.483489" fill="#029AA4"/>
<ellipse cx="10.2852" cy="12.2809" rx="0.650209" ry="0.644652" fill="#029AA4"/>
</svg>
