<svg width="523" height="329" viewBox="0 0 523 329" fill="none" xmlns="http://www.w3.org/2000/svg">
<g clip-path="url(#clip0_774_673)">
<path d="M523 135.124H522.117V110.906C522.117 109.066 521.755 107.243 521.051 105.543C520.347 103.842 519.315 102.297 518.015 100.995C516.715 99.6939 515.171 98.6614 513.472 97.957C511.772 97.2527 509.951 96.8901 508.112 96.8901H456.848C455.009 96.8901 453.187 97.2527 451.488 97.957C449.789 98.6614 448.245 99.6939 446.945 100.995C445.644 102.297 444.613 103.842 443.909 105.543C443.205 107.243 442.843 109.066 442.843 110.906V243.764C442.843 245.604 443.205 247.427 443.909 249.128C444.613 250.828 445.644 252.373 446.945 253.675C448.245 254.976 449.789 256.009 451.488 256.713C453.187 257.418 455.009 257.78 456.848 257.78H508.112C509.951 257.78 511.772 257.418 513.472 256.713C515.171 256.009 516.715 254.976 518.015 253.675C519.315 252.373 520.347 250.828 521.051 249.128C521.755 247.427 522.117 245.604 522.117 243.764V152.362H523V135.124Z" fill="#3F3D56"/>
<path d="M519.137 111.73V244.394C519.136 247.171 518.034 249.833 516.073 251.797C514.111 253.76 511.451 254.863 508.677 254.863H457.166C455.792 254.863 454.432 254.592 453.164 254.066C451.895 253.539 450.742 252.768 449.771 251.796C448.8 250.824 448.03 249.67 447.505 248.4C446.98 247.13 446.71 245.769 446.71 244.394V111.73C446.71 108.955 447.812 106.293 449.773 104.331C451.733 102.369 454.393 101.266 457.166 101.266H463.415C463.108 102.021 462.992 102.84 463.075 103.651C463.159 104.461 463.44 105.239 463.895 105.916C464.349 106.592 464.962 107.146 465.681 107.53C466.399 107.913 467.201 108.114 468.015 108.115H497.385C498.2 108.117 499.003 107.917 499.723 107.534C500.443 107.151 501.057 106.597 501.512 105.92C501.967 105.243 502.248 104.464 502.33 103.652C502.413 102.841 502.294 102.021 501.985 101.266H508.677C511.45 101.266 514.11 102.368 516.071 104.331C518.033 106.293 519.135 108.954 519.137 111.73Z" fill="#D0CDE1"/>
<path d="M509.385 169.187H449.505V185.358H509.385V169.187Z" fill="#029AA4"/>
<path d="M511.761 182.504H453.782C453.404 182.504 453.042 182.353 452.774 182.086C452.507 181.818 452.357 181.456 452.356 181.077V166.808C452.357 166.43 452.507 166.067 452.774 165.8C453.042 165.532 453.404 165.382 453.782 165.381H511.761C512.139 165.382 512.501 165.532 512.769 165.8C513.036 166.067 513.186 166.43 513.187 166.808V181.077C513.186 181.456 513.036 181.818 512.769 182.086C512.501 182.353 512.139 182.504 511.761 182.504ZM453.782 166.333C453.656 166.333 453.535 166.383 453.446 166.472C453.357 166.561 453.307 166.682 453.307 166.808V181.077C453.307 181.203 453.357 181.324 453.446 181.414C453.535 181.503 453.656 181.553 453.782 181.553H511.761C511.887 181.553 512.008 181.503 512.097 181.414C512.186 181.324 512.236 181.203 512.236 181.077V166.808C512.236 166.682 512.186 166.561 512.097 166.472C512.008 166.383 511.887 166.333 511.761 166.333H453.782Z" fill="#3F3D56"/>
<path d="M463.762 178.224H456.158V179.175H463.762V178.224Z" fill="#3F3D56"/>
<path d="M474.217 178.224H466.613V179.175H474.217V178.224Z" fill="#3F3D56"/>
<path d="M484.672 178.224H477.069V179.175H484.672V178.224Z" fill="#3F3D56"/>
<path d="M495.128 178.224H487.524V179.175H495.128V178.224Z" fill="#3F3D56"/>
<path d="M505.583 178.224H497.979V179.175H505.583V178.224Z" fill="#3F3D56"/>
<path opacity="0.1" d="M519.137 230.905V244.394C519.136 247.171 518.034 249.833 516.073 251.796C514.111 253.76 511.451 254.863 508.677 254.863H457.166C455.792 254.863 454.432 254.592 453.164 254.066C451.895 253.539 450.742 252.768 449.771 251.796C448.8 250.824 448.03 249.67 447.505 248.4C446.98 247.13 446.71 245.769 446.71 244.394V182.343L519.137 230.905Z" fill="black"/>
<path d="M272.241 218.653H47.4531V329H272.241V218.653Z" fill="#D0CDE1"/>
<path opacity="0.1" d="M215.093 329H48.4036C48.1517 328.999 47.9104 328.899 47.7323 328.721C47.5542 328.542 47.4539 328.301 47.4531 328.049V219.604C47.4539 219.352 47.5542 219.111 47.7323 218.932C47.9104 218.754 48.1517 218.654 48.4036 218.653H50.5137L215.093 329Z" fill="black"/>
<path d="M499.88 233.397H151.53V234.349H499.88V233.397Z" fill="#3F3D56"/>
<path d="M261.663 2.05368H162.105V0H116.962V2.05368H16.9942C16.1098 2.05368 15.2341 2.22801 14.4171 2.56672C13.6 2.90544 12.8577 3.4019 12.2323 4.02776C11.607 4.65362 11.1109 5.39662 10.7725 6.21435C10.4341 7.03208 10.2599 7.90851 10.2599 8.79362V145.232C10.2599 147.02 10.9694 148.734 12.2323 149.998C13.4952 151.262 15.2081 151.972 16.9942 151.972H261.663C263.449 151.972 265.162 151.262 266.425 149.998C267.688 148.734 268.397 147.02 268.397 145.232V8.79362C268.397 7.90851 268.223 7.03208 267.885 6.21435C267.546 5.39662 267.05 4.65362 266.425 4.02776C265.799 3.4019 265.057 2.90544 264.24 2.56672C263.423 2.22801 262.547 2.05368 261.663 2.05368Z" fill="#3F3D56"/>
<path d="M259.367 13.9629H19.2905V149.509H259.367V13.9629Z" fill="#D0CDE1"/>
<path d="M139.123 10.2682C140.483 10.2682 141.586 9.16483 141.586 7.80377C141.586 6.44271 140.483 5.33936 139.123 5.33936C137.763 5.33936 136.661 6.44271 136.661 7.80377C136.661 9.16483 137.763 10.2682 139.123 10.2682Z" fill="#029AA4"/>
<path d="M90.6999 64.5468H84.997C84.619 64.5464 84.2566 64.3959 83.9893 64.1284C83.722 63.8609 83.5717 63.4982 83.5713 63.1199V57.4123C83.5717 57.0339 83.722 56.6712 83.9893 56.4037C84.2566 56.1362 84.619 55.9858 84.997 55.9854H90.6999C91.0779 55.9858 91.4403 56.1362 91.7075 56.4037C91.9748 56.6712 92.1252 57.0339 92.1256 57.4123V63.1199C92.1252 63.4982 91.9748 63.8609 91.7075 64.1284C91.4403 64.3959 91.0779 64.5464 90.6999 64.5468ZM84.997 56.9366C84.871 56.9368 84.7502 56.9869 84.6611 57.0761C84.5721 57.1653 84.5219 57.2862 84.5218 57.4123V63.1199C84.5219 63.246 84.5721 63.3669 84.6611 63.456C84.7502 63.5452 84.871 63.5953 84.997 63.5955H90.6999C90.8259 63.5953 90.9466 63.5452 91.0357 63.456C91.1248 63.3669 91.1749 63.246 91.1751 63.1199V57.4123C91.1749 57.2862 91.1248 57.1653 91.0357 57.0761C90.9466 56.9869 90.8259 56.9368 90.6999 56.9366H84.997Z" fill="#3F3D56"/>
<path d="M192.401 63.5957H84.0465V64.547H192.401V63.5957Z" fill="#3F3D56"/>
<path d="M189.549 89.7554H164.362V97.3655H189.549V89.7554Z" fill="#029AA4"/>
<path d="M191.45 95.4633H168.164C167.786 95.4629 167.423 95.3124 167.156 95.0449C166.889 94.7774 166.738 94.4147 166.738 94.0364V88.3288C166.738 87.9504 166.889 87.5877 167.156 87.3202C167.423 87.0527 167.786 86.9023 168.164 86.9019H191.45C191.828 86.9023 192.191 87.0527 192.458 87.3202C192.725 87.5877 192.876 87.9504 192.876 88.3288V94.0364C192.876 94.4147 192.725 94.7774 192.458 95.0449C192.191 95.3124 191.828 95.4629 191.45 95.4633ZM168.164 87.8531C168.038 87.8533 167.917 87.9035 167.828 87.9926C167.739 88.0818 167.689 88.2027 167.689 88.3288V94.0364C167.689 94.1625 167.739 94.2834 167.828 94.3725C167.917 94.4617 168.038 94.5119 168.164 94.512H191.45C191.576 94.5119 191.697 94.4617 191.786 94.3725C191.875 94.2834 191.926 94.1625 191.926 94.0364V88.3288C191.926 88.2027 191.875 88.0818 191.786 87.9926C191.697 87.9035 191.576 87.8533 191.45 87.8531H168.164Z" fill="#3F3D56"/>
<path d="M382.021 98.3169H334.497V131.611H382.021V98.3169Z" fill="#029AA4"/>
<path d="M386.773 128.995H341.15C340.646 128.995 340.163 128.794 339.807 128.437C339.45 128.081 339.25 127.597 339.25 127.093V95.7009C339.25 95.1965 339.45 94.7129 339.807 94.3562C340.163 93.9995 340.646 93.7989 341.15 93.7983H386.773C387.277 93.7989 387.761 93.9995 388.117 94.3562C388.473 94.7128 388.674 95.1965 388.674 95.7009V127.093C388.674 127.597 388.473 128.081 388.117 128.437C387.761 128.794 387.277 128.995 386.773 128.995ZM341.15 95.7009V127.093H386.775L386.773 95.7009H341.15Z" fill="#3F3D56"/>
<path d="M381.546 94.5121H379.645C379.645 90.3492 377.992 86.3569 375.051 83.4133C372.11 80.4698 368.121 78.8161 363.962 78.8161C359.803 78.8161 355.814 80.4698 352.872 83.4133C349.931 86.3569 348.279 90.3492 348.279 94.5121H346.378C346.378 89.8447 348.231 85.3684 351.528 82.068C354.826 78.7677 359.298 76.9136 363.962 76.9136C368.625 76.9136 373.098 78.7677 376.396 82.068C379.693 85.3684 381.546 89.8447 381.546 94.5121Z" fill="#3F3D56"/>
<path d="M368.714 107.592C368.715 106.764 368.5 105.95 368.09 105.23C367.68 104.511 367.089 103.911 366.377 103.49C365.664 103.069 364.854 102.842 364.026 102.831C363.199 102.819 362.383 103.024 361.659 103.426C360.935 103.827 360.328 104.411 359.899 105.119C359.469 105.827 359.232 106.635 359.211 107.463C359.189 108.291 359.384 109.11 359.776 109.84C360.168 110.569 360.744 111.183 361.446 111.622V116.727C361.446 117.058 361.511 117.385 361.637 117.691C361.764 117.996 361.949 118.274 362.183 118.508C362.416 118.741 362.694 118.927 362.999 119.053C363.304 119.18 363.631 119.245 363.962 119.245C364.629 119.245 365.269 118.98 365.741 118.508C366.213 118.035 366.478 117.395 366.478 116.727V111.622C367.162 111.196 367.726 110.602 368.117 109.897C368.509 109.192 368.714 108.399 368.714 107.592Z" fill="#3F3D56"/>
<path d="M142.738 267.643H135.135V268.594H142.738V267.643Z" fill="#3F3D56"/>
<path d="M153.194 267.643H145.59V268.594H153.194V267.643Z" fill="#3F3D56"/>
<path d="M163.649 267.643H156.045V268.594H163.649V267.643Z" fill="#3F3D56"/>
<path d="M174.104 267.643H166.5V268.594H174.104V267.643Z" fill="#3F3D56"/>
<path d="M184.559 267.643H176.956V268.594H184.559V267.643Z" fill="#3F3D56"/>
<path d="M282.221 320.914H59.3342C58.8302 320.914 58.347 320.713 57.9906 320.357C57.6342 320 57.4338 319.516 57.4332 319.012V210.567C57.4338 210.063 57.6342 209.579 57.9906 209.222C58.347 208.866 58.8302 208.665 59.3342 208.665H282.221C282.725 208.665 283.208 208.866 283.564 209.222C283.921 209.579 284.121 210.063 284.122 210.567V319.012C284.121 319.516 283.921 320 283.564 320.357C283.208 320.713 282.725 320.914 282.221 320.914ZM59.3342 210.567V319.012H282.222L282.221 210.567H59.3342Z" fill="#3F3D56"/>
<path d="M69.3141 226.738C70.8889 226.738 72.1655 225.461 72.1655 223.885C72.1655 222.308 70.8889 221.031 69.3141 221.031C67.7393 221.031 66.4626 222.308 66.4626 223.885C66.4626 225.461 67.7393 226.738 69.3141 226.738Z" fill="#3F3D56"/>
<path d="M79.2941 226.738C80.8689 226.738 82.1455 225.461 82.1455 223.885C82.1455 222.308 80.8689 221.031 79.2941 221.031C77.7193 221.031 76.4426 222.308 76.4426 223.885C76.4426 225.461 77.7193 226.738 79.2941 226.738Z" fill="#3F3D56"/>
<path d="M89.2742 226.738C90.849 226.738 92.1256 225.461 92.1256 223.885C92.1256 222.308 90.849 221.031 89.2742 221.031C87.6994 221.031 86.4227 222.308 86.4227 223.885C86.4227 225.461 87.6994 226.738 89.2742 226.738Z" fill="#3F3D56"/>
<path d="M191.926 274.302H127.768C127.39 274.301 127.028 274.151 126.761 273.883C126.494 273.616 126.343 273.253 126.343 272.875V256.703C126.343 256.325 126.494 255.962 126.761 255.695C127.028 255.427 127.39 255.277 127.768 255.276H191.926C192.304 255.277 192.666 255.427 192.933 255.695C193.201 255.962 193.351 256.325 193.351 256.703V272.875C193.351 273.253 193.201 273.616 192.933 273.883C192.666 274.151 192.304 274.301 191.926 274.302ZM127.768 256.228C127.642 256.228 127.522 256.278 127.433 256.367C127.343 256.456 127.293 256.577 127.293 256.703V272.875C127.293 273.001 127.343 273.122 127.433 273.211C127.522 273.3 127.642 273.35 127.768 273.35H191.926C192.052 273.35 192.172 273.3 192.262 273.211C192.351 273.122 192.401 273.001 192.401 272.875V256.703C192.401 256.577 192.351 256.456 192.262 256.367C192.172 256.278 192.052 256.228 191.926 256.228H127.768Z" fill="#3F3D56"/>
<path d="M208.084 274.778C212.808 274.778 216.638 270.945 216.638 266.216C216.638 261.488 212.808 257.655 208.084 257.655C203.359 257.655 199.529 261.488 199.529 266.216C199.529 270.945 203.359 274.778 208.084 274.778Z" fill="#029AA4"/>
<path d="M210.935 273.826C209.149 273.826 207.404 273.296 205.919 272.303C204.434 271.31 203.276 269.899 202.593 268.247C201.91 266.596 201.731 264.779 202.079 263.026C202.428 261.273 203.288 259.663 204.55 258.399C205.813 257.135 207.422 256.274 209.174 255.926C210.925 255.577 212.741 255.756 214.391 256.44C216.041 257.124 217.451 258.282 218.443 259.768C219.435 261.254 219.965 263.002 219.965 264.789C219.962 267.185 219.01 269.482 217.317 271.176C215.624 272.87 213.329 273.823 210.935 273.826ZM210.935 256.703C209.337 256.703 207.775 257.177 206.447 258.066C205.118 258.954 204.083 260.217 203.471 261.695C202.86 263.172 202.7 264.798 203.011 266.366C203.323 267.935 204.093 269.376 205.222 270.507C206.352 271.637 207.792 272.407 209.359 272.719C210.926 273.031 212.551 272.871 214.027 272.259C215.503 271.647 216.765 270.611 217.653 269.281C218.54 267.952 219.014 266.388 219.014 264.789C219.012 262.645 218.16 260.59 216.645 259.074C215.131 257.558 213.077 256.706 210.935 256.703Z" fill="#3F3D56"/>
<path d="M211.062 268.164L206.461 263.559L207.805 262.214L210.808 265.219L219.187 253.302L220.742 254.397L211.062 268.164Z" fill="#3F3D56"/>
<path opacity="0.1" d="M206.14 149.509H19.2904V24.2319L206.14 149.509Z" fill="black"/>
<path d="M275.138 147.044H251.708V145.354C251.708 145.31 251.699 145.266 251.682 145.226C251.666 145.185 251.641 145.148 251.61 145.117C251.579 145.086 251.542 145.061 251.501 145.045C251.461 145.028 251.417 145.019 251.373 145.019H243.34C243.296 145.019 243.252 145.028 243.212 145.045C243.171 145.061 243.134 145.086 243.103 145.117C243.072 145.148 243.048 145.185 243.031 145.226C243.014 145.266 243.005 145.31 243.005 145.354V147.044H237.984V145.354C237.984 145.31 237.976 145.266 237.959 145.226C237.942 145.185 237.917 145.148 237.886 145.117C237.855 145.086 237.818 145.061 237.778 145.045C237.737 145.028 237.694 145.019 237.65 145.019H229.616C229.573 145.019 229.529 145.028 229.488 145.045C229.448 145.061 229.411 145.086 229.38 145.117C229.349 145.148 229.324 145.185 229.307 145.226C229.29 145.266 229.282 145.31 229.282 145.354V147.044H224.261V145.354C224.261 145.31 224.252 145.266 224.236 145.226C224.219 145.185 224.194 145.148 224.163 145.117C224.132 145.086 224.095 145.061 224.054 145.045C224.014 145.028 223.97 145.019 223.926 145.019H215.893C215.849 145.019 215.806 145.028 215.765 145.045C215.724 145.061 215.687 145.086 215.656 145.117C215.625 145.148 215.601 145.185 215.584 145.226C215.567 145.266 215.558 145.31 215.558 145.354V147.044H210.538V145.354C210.538 145.31 210.529 145.266 210.512 145.226C210.495 145.185 210.471 145.148 210.44 145.117C210.408 145.086 210.372 145.061 210.331 145.045C210.29 145.028 210.247 145.019 210.203 145.019H202.17C202.126 145.019 202.082 145.028 202.042 145.045C202.001 145.061 201.964 145.086 201.933 145.117C201.902 145.148 201.877 145.185 201.86 145.226C201.844 145.266 201.835 145.31 201.835 145.354V147.044H196.814V145.354C196.814 145.31 196.805 145.266 196.789 145.226C196.772 145.185 196.747 145.148 196.716 145.117C196.685 145.086 196.648 145.061 196.608 145.045C196.567 145.028 196.523 145.019 196.479 145.019H188.446C188.402 145.019 188.359 145.028 188.318 145.045C188.277 145.061 188.241 145.086 188.21 145.117C188.178 145.148 188.154 145.185 188.137 145.226C188.12 145.266 188.111 145.31 188.111 145.354V147.044H183.091V145.354C183.091 145.31 183.082 145.266 183.065 145.226C183.048 145.185 183.024 145.148 182.993 145.117C182.962 145.086 182.925 145.061 182.884 145.045C182.843 145.028 182.8 145.019 182.756 145.019H174.723C174.679 145.019 174.635 145.028 174.595 145.045C174.554 145.061 174.517 145.086 174.486 145.117C174.455 145.148 174.43 145.185 174.414 145.226C174.397 145.266 174.388 145.31 174.388 145.354V147.044H169.367V145.354C169.367 145.31 169.359 145.266 169.342 145.226C169.325 145.185 169.3 145.148 169.269 145.117C169.238 145.086 169.201 145.061 169.161 145.045C169.12 145.028 169.077 145.019 169.033 145.019H106.106C106.062 145.019 106.018 145.028 105.977 145.045C105.937 145.061 105.9 145.086 105.869 145.117C105.838 145.148 105.813 145.185 105.796 145.226C105.78 145.266 105.771 145.31 105.771 145.354V147.044H100.75V145.354C100.75 145.31 100.741 145.266 100.725 145.226C100.708 145.185 100.683 145.148 100.652 145.117C100.621 145.086 100.584 145.061 100.543 145.045C100.503 145.028 100.459 145.019 100.415 145.019H92.3821C92.3382 145.019 92.2947 145.028 92.2541 145.045C92.2134 145.061 92.1765 145.086 92.1455 145.117C92.1144 145.148 92.0897 145.185 92.0729 145.226C92.0561 145.266 92.0474 145.31 92.0474 145.354V147.044H87.0267V145.354C87.0267 145.31 87.018 145.266 87.0012 145.226C86.9844 145.185 86.9597 145.148 86.9286 145.117C86.8975 145.086 86.8606 145.061 86.82 145.045C86.7794 145.028 86.7359 145.019 86.6919 145.019H78.6587C78.6148 145.019 78.5712 145.028 78.5306 145.045C78.49 145.061 78.4531 145.086 78.422 145.117C78.3909 145.148 78.3663 145.185 78.3495 145.226C78.3326 145.266 78.324 145.31 78.324 145.354V147.044H73.3032V145.354C73.3032 145.31 73.2946 145.266 73.2777 145.226C73.2609 145.185 73.2363 145.148 73.2052 145.117C73.1741 145.086 73.1372 145.061 73.0966 145.045C73.056 145.028 73.0125 145.019 72.9685 145.019H64.9353C64.8913 145.019 64.8478 145.028 64.8072 145.045C64.7666 145.061 64.7297 145.086 64.6986 145.117C64.6675 145.148 64.6429 145.185 64.626 145.226C64.6092 145.266 64.6006 145.31 64.6006 145.354V147.044H59.5798V145.354C59.5798 145.31 59.5711 145.266 59.5543 145.226C59.5375 145.185 59.5128 145.148 59.4818 145.117C59.4507 145.086 59.4138 145.061 59.3732 145.045C59.3326 145.028 59.289 145.019 59.2451 145.019H51.2118C51.1679 145.019 51.1243 145.028 51.0837 145.045C51.0431 145.061 51.0062 145.086 50.9751 145.117C50.9441 145.148 50.9194 145.185 50.9026 145.226C50.8858 145.266 50.8771 145.31 50.8771 145.354V147.044H45.8564V145.354C45.8564 145.31 45.8477 145.266 45.8309 145.226C45.8141 145.185 45.7894 145.148 45.7583 145.117C45.7273 145.086 45.6904 145.061 45.6497 145.045C45.6091 145.028 45.5656 145.019 45.5217 145.019H37.4884C37.4445 145.019 37.4009 145.028 37.3603 145.045C37.3197 145.061 37.2828 145.086 37.2517 145.117C37.2206 145.148 37.196 145.185 37.1792 145.226C37.1623 145.266 37.1537 145.31 37.1537 145.354V147.044H32.1329V145.354C32.1329 145.31 32.1243 145.266 32.1074 145.226C32.0906 145.185 32.066 145.148 32.0349 145.117C32.0038 145.086 31.9669 145.061 31.9263 145.045C31.8857 145.028 31.8422 145.019 31.7982 145.019H23.765C23.721 145.019 23.6775 145.028 23.6369 145.045C23.5963 145.061 23.5594 145.086 23.5283 145.117C23.4972 145.148 23.4726 145.185 23.4557 145.226C23.4389 145.266 23.4303 145.31 23.4303 145.354V147.044H8.03323C6.97829 147.044 5.93368 147.252 4.95904 147.656C3.98441 148.06 3.09883 148.652 2.35288 149.398C1.60692 150.145 1.0152 151.031 0.611492 152.007C0.207784 152.982 -6.24091e-07 154.028 0 155.084V158.719C5.04164e-06 160.851 0.846363 162.896 2.35289 164.404C3.85941 165.912 5.90269 166.759 8.03323 166.759H275.138C276.193 166.759 277.238 166.551 278.212 166.147C279.187 165.743 280.073 165.151 280.818 164.404C281.564 163.657 282.156 162.771 282.56 161.796C282.964 160.82 283.171 159.775 283.171 158.719V155.084C283.171 154.028 282.964 152.982 282.56 152.007C282.156 151.031 281.564 150.145 280.818 149.398C280.073 148.652 279.187 148.06 278.212 147.656C277.238 147.252 276.193 147.044 275.138 147.044Z" fill="#3F3D56"/>
<path d="M201.906 103.549H76.4427C76.0647 103.549 75.7023 103.398 75.435 103.131C75.1677 102.863 75.0174 102.501 75.017 102.122V49.8024C75.0174 49.4241 75.1677 49.0614 75.435 48.7939C75.7023 48.5264 76.0647 48.3759 76.4427 48.3755H201.906C202.284 48.3759 202.646 48.5264 202.913 48.7939C203.181 49.0614 203.331 49.4241 203.331 49.8024V102.122C203.331 102.501 203.181 102.863 202.913 103.131C202.646 103.398 202.284 103.549 201.906 103.549ZM76.4427 49.3268C76.3167 49.3269 76.1959 49.3771 76.1068 49.4662C76.0177 49.5554 75.9676 49.6763 75.9674 49.8024V102.122C75.9676 102.248 76.0177 102.369 76.1068 102.458C76.1959 102.548 76.3167 102.598 76.4427 102.598H201.906C202.032 102.598 202.152 102.548 202.241 102.458C202.331 102.369 202.381 102.248 202.381 102.122V49.8024C202.381 49.6763 202.331 49.5554 202.241 49.4662C202.152 49.3771 202.032 49.3269 201.906 49.3268H76.4427Z" fill="#3F3D56"/>
<path d="M90.6999 78.8158H84.997C84.619 78.8154 84.2566 78.665 83.9893 78.3974C83.722 78.1299 83.5717 77.7672 83.5713 77.3889V71.6813C83.5717 71.303 83.722 70.9403 83.9893 70.6728C84.2566 70.4053 84.619 70.2548 84.997 70.2544H90.6999C91.0779 70.2548 91.4403 70.4053 91.7075 70.6728C91.9748 70.9403 92.1252 71.303 92.1256 71.6813V77.3889C92.1252 77.7672 91.9748 78.1299 91.7075 78.3974C91.4403 78.665 91.0779 78.8154 90.6999 78.8158ZM84.997 71.2057C84.871 71.2058 84.7502 71.256 84.6611 71.3452C84.5721 71.4343 84.5219 71.5552 84.5218 71.6813V77.3889C84.5219 77.515 84.5721 77.6359 84.6611 77.7251C84.7502 77.8142 84.871 77.8644 84.997 77.8646H90.6999C90.8259 77.8644 90.9466 77.8142 91.0357 77.7251C91.1248 77.6359 91.1749 77.515 91.1751 77.3889V71.6813C91.1749 71.5552 91.1248 71.4343 91.0357 71.3452C90.9466 71.256 90.8259 71.2058 90.6999 71.2057H84.997Z" fill="#3F3D56"/>
<path d="M192.401 77.8647H84.0465V78.816H192.401V77.8647Z" fill="#3F3D56"/>
<path d="M474.217 128.282H125.867V129.233H474.217V128.282Z" fill="#3F3D56"/>
<path d="M125.867 134.941C129.542 134.941 132.521 131.96 132.521 128.282C132.521 124.604 129.542 121.623 125.867 121.623C122.193 121.623 119.214 124.604 119.214 128.282C119.214 131.96 122.193 134.941 125.867 134.941Z" fill="#3F3D56"/>
<path d="M474.217 134.465C477.104 134.465 479.445 132.123 479.445 129.233C479.445 126.344 477.104 124.001 474.217 124.001C471.33 124.001 468.99 126.344 468.99 129.233C468.99 132.123 471.33 134.465 474.217 134.465Z" fill="#3F3D56"/>
<path d="M499.88 239.581C502.767 239.581 505.108 237.238 505.108 234.349C505.108 231.459 502.767 229.117 499.88 229.117C496.993 229.117 494.652 231.459 494.652 234.349C494.652 237.238 496.993 239.581 499.88 239.581Z" fill="#3F3D56"/>
<path d="M152.956 239.581C155.843 239.581 158.184 237.238 158.184 234.349C158.184 231.459 155.843 229.117 152.956 229.117C150.069 229.117 147.728 231.459 147.728 234.349C147.728 237.238 150.069 239.581 152.956 239.581Z" fill="#3F3D56"/>
</g>
<defs>
<clipPath id="clip0_774_673">
<rect width="523" height="329" fill="white"/>
</clipPath>
</defs>
</svg>
