<svg width="19" height="17" viewBox="0 0 19 17" fill="none" xmlns="http://www.w3.org/2000/svg">
<path d="M16.0751 16.4497H2.88439C1.84367 16.4497 1 15.6061 1 14.5653V6.08556C1 5.04484 1.84367 4.20117 2.88439 4.20117H16.0751C17.1159 4.20117 17.9595 5.04484 17.9595 6.08556V14.5653C17.9595 15.6061 17.1159 16.4497 16.0751 16.4497Z" stroke="black"/>
<path d="M13.7196 10.7977C13.4595 10.7977 13.2485 10.5867 13.2485 10.3266C13.2485 10.0664 13.4595 9.85547 13.7196 9.85547C13.9798 9.85547 14.1907 10.0664 14.1907 10.3266C14.1907 10.5867 13.9798 10.7977 13.7196 10.7977Z" fill="black" stroke="black" stroke-linecap="round" stroke-linejoin="round"/>
<path d="M15.1329 4.20146V2.88542C15.1329 1.64732 13.9593 0.745646 12.763 1.06465L2.39885 3.82843C1.57396 4.04841 1 4.79548 1 5.6492V6.08585" stroke="black"/>
</svg>
